<svg width="121" height="125" viewBox="0 0 121 125" fill="none" xmlns="http://www.w3.org/2000/svg">
<g clip-path="url(#clip0_443_2670)">
<path d="M99.3307 73.5218C98.7309 72.9522 98.2378 72.2799 97.8746 71.5368C96.7656 69.1538 97.6316 66.7368 99.8746 64.8568C98.0401 63.4648 96.0369 62.3103 93.9127 61.4208C90.2275 62.806 86.2448 63.2062 82.3577 62.5818C78.2367 61.9378 75.0457 60.2998 73.3477 58.2388C71.9637 58.3328 70.5716 58.4658 69.1866 58.6798C67.8016 58.8938 66.4867 59.1798 65.2067 59.4968C65.5287 61.7718 64.1867 64.1078 61.1727 65.8508C60.5956 66.1625 59.999 66.4368 59.3867 66.6718C59.1137 66.6248 58.8507 66.5638 58.5717 66.5238C56.8997 66.2678 55.2227 66.1048 53.5527 65.9918C52.8395 66.8293 52.0101 67.5604 51.0897 68.1628C50.7787 68.1628 50.4717 68.1908 50.1617 68.1728C49.9407 68.4728 49.7477 68.7728 49.5536 69.0728C47.4018 70.155 45.0888 70.8814 42.7047 71.2238C38.0186 71.9759 33.2174 71.4934 28.7747 69.8238C26.2146 70.8939 23.8009 72.285 21.5917 73.9638C24.3007 76.2348 25.3437 79.1428 24.0077 82.0118C23.5712 82.9084 22.9771 83.7193 22.2537 84.4058C20.176 86.2924 17.6576 87.6266 14.9297 88.2858C15.371 90.3436 16.268 92.2763 17.5547 93.9418C22.1555 93.6348 26.7516 94.6063 30.8347 96.7488C34.4637 98.8488 36.0766 101.661 35.6896 104.405C37.2376 104.792 38.8237 105.137 40.4897 105.397C42.1557 105.657 43.8317 105.813 45.4947 105.924C47.5477 103.436 51.3876 101.462 56.3536 100.688C61.039 99.9349 65.8398 100.417 70.2817 102.088C72.8469 101.014 75.266 99.6195 77.4817 97.9388C74.7637 95.6708 73.7206 92.7678 75.0566 89.8928C75.308 89.3804 75.6134 88.8963 75.9677 88.4488C77.53 89.1001 78.9231 90.0995 80.0406 91.3708C81.4237 91.2708 82.8106 91.1428 84.1976 90.9288C85.5846 90.7148 86.8977 90.4288 88.1827 90.1048C87.8607 87.8298 89.1997 85.5048 92.2117 83.7538C95.5994 81.9757 99.4131 81.1696 103.231 81.4248C104.297 80.0427 105.041 78.4401 105.409 76.7338C103.146 76.1889 101.056 75.0845 99.3307 73.5218ZM62.5536 92.0968C62.4967 92.1328 62.4437 92.1728 62.3867 92.2118C62.1587 92.3638 61.9296 92.5118 61.6866 92.6608C61.6036 92.7078 61.5207 92.7608 61.4357 92.8058C61.1887 92.9478 60.9467 93.0878 60.6907 93.2138C60.5837 93.2718 60.4726 93.3198 60.3666 93.3728C60.3475 93.3822 60.3278 93.3906 60.3077 93.3978C60.1957 93.4548 60.0897 93.5058 59.9797 93.5568C59.5057 93.7778 59.0207 93.9788 58.5137 94.1568C54.232 95.6486 49.6477 96.0574 45.1697 95.3468C42.1279 94.9457 39.214 93.8706 36.6407 92.1998C36.5687 92.1538 36.4887 92.0998 36.4207 92.0518C36.3527 92.0038 36.2876 91.9438 36.2206 91.8958C35.9326 91.6838 35.6656 91.4588 35.4136 91.2308C35.3136 91.1398 35.2046 91.0568 35.1136 90.9628C35.0826 90.9338 35.0477 90.9088 35.0217 90.8798C35.0217 90.8728 35.0277 90.8728 35.0287 90.8728C32.8337 88.7098 32.0617 86.0628 33.2767 83.4478C35.6947 78.2618 44.9256 75.1768 53.9106 76.5648C54.1526 76.6038 54.3836 76.6548 54.6246 76.6988C54.9823 77.1163 55.2849 77.5781 55.5247 78.0728C56.6337 80.4558 55.7677 82.8728 53.5137 84.7518C55.3511 86.1428 57.3553 87.2984 59.4797 88.1918C61.6609 87.3651 63.9634 86.9029 66.2947 86.8238C66.2091 87.3907 66.0435 87.9425 65.8027 88.4628C65.0554 89.9372 63.9352 91.1903 62.5536 92.0978V92.0968ZM88.7347 78.8888L88.7416 78.8958C88.7216 78.9138 88.6997 78.9288 88.6797 78.9498C88.4279 79.1855 88.1628 79.4065 87.8857 79.6118C87.7857 79.6978 87.6856 79.7858 87.5776 79.8648C87.4936 79.9258 87.3937 79.9838 87.3047 80.0418C87.1867 80.1278 87.0487 80.2008 86.9207 80.2838C86.7037 80.4178 86.5016 80.5588 86.2646 80.6888C86.4827 80.5698 86.6647 80.4358 86.8647 80.3128C85.8349 80.9321 84.7378 81.432 83.5947 81.8028C83.0883 80.4286 82.3835 79.1358 81.5027 77.9658C76.904 78.2772 72.3089 77.308 68.2277 75.1658C66.5335 74.2627 65.1164 72.9164 64.1277 71.2708C65.8377 69.2488 68.9927 67.6428 73.0587 67.0108C80.5127 65.8638 88.1767 68.4168 90.1786 72.7218C91.1966 74.9008 90.5606 77.0958 88.7336 78.8898L88.7347 78.8888Z" fill="#F2F5FC"/>
<path d="M84.1348 54.174C83.6894 52.1156 82.7914 50.1821 81.5058 48.514C76.9072 48.8235 72.3126 47.8544 68.2308 45.714C64.5958 43.62 62.9798 40.8 63.3678 38.061C61.8298 37.674 60.2408 37.327 58.5748 37.07C56.9088 36.813 55.2258 36.654 53.5558 36.542C51.5108 39.023 47.6687 41.002 42.7007 41.772C38.0147 42.5272 33.2127 42.0446 28.7708 40.372C26.2114 41.4435 23.7979 42.8346 21.5878 44.512V54.331C21.8258 54.531 22.0358 54.744 22.2498 54.953C20.1728 56.8414 17.6542 58.177 14.9258 58.837V68.653C15.3682 70.7116 16.2651 72.6454 17.5508 74.313C22.151 74.0034 26.7471 74.9724 30.8307 77.113C34.4597 79.213 36.0728 82.028 35.6858 84.77C37.2338 85.157 38.8198 85.5 40.4858 85.761C42.1518 86.022 43.8278 86.177 45.4908 86.293C47.5438 83.801 51.3838 81.834 56.3498 81.056C61.0352 80.3035 65.8358 80.7861 70.2778 82.456C72.8437 81.3832 75.263 79.9891 77.4778 78.307V68.492C77.2348 68.292 77.0258 68.076 76.8108 67.866C78.8906 65.9832 81.4083 64.6504 84.1348 63.989V54.174ZM35.0118 61.429C38.7458 57.736 46.4028 55.776 53.8998 56.929C58.3438 57.617 61.8927 59.269 64.0497 61.396C60.3137 65.096 52.6588 67.052 45.1658 65.896C40.7168 65.212 37.1668 63.555 35.0118 61.429Z" fill="white"/>
<path d="M58.4697 64.7237C60.5442 64.0254 62.4459 62.8925 64.0477 61.4007C61.8907 59.2737 58.3417 57.6217 53.8977 56.9337C46.3977 55.7767 38.7427 57.7337 35.0097 61.4337C35.8975 62.2917 36.9021 63.0199 37.9937 63.5967C33.6267 61.2277 31.5997 57.5857 33.2647 54.0017C35.6827 48.8187 44.9137 45.7347 53.8987 47.1227C62.8837 48.5107 68.2037 53.8317 65.7907 59.0227C64.6437 61.4837 61.9427 63.4687 58.4697 64.7237ZM56.3537 71.2417C51.3877 72.0157 47.5477 73.9867 45.4947 76.4787C43.8317 76.3627 42.1607 76.2037 40.4897 75.9467C38.8187 75.6897 37.2327 75.3467 35.6897 74.9597C36.0767 72.2107 34.4637 69.4007 30.8347 67.3027C26.7524 65.1581 22.1556 64.1868 17.5547 64.4967C16.2696 62.8299 15.3728 60.8972 14.9297 58.8397V68.6557C15.3722 70.7143 16.269 72.6481 17.5547 74.3157C22.1549 74.0061 26.7511 74.9751 30.8347 77.1157C34.4637 79.2157 36.0767 82.0307 35.6897 84.7727C37.2377 85.1597 38.8237 85.5027 40.4897 85.7637C42.1557 86.0247 43.8317 86.1797 45.4947 86.2957C47.5477 83.8037 51.3877 81.8367 56.3537 81.0587C61.0391 80.3062 65.8398 80.7888 70.2817 82.4587C72.8476 81.3859 75.2669 79.9918 77.4817 78.3097V68.4947C75.266 70.1744 72.8468 71.5671 70.2817 72.6397C65.8397 70.9701 61.039 70.4879 56.3537 71.2407V71.2417ZM84.1327 54.1747C79.8187 55.3537 76.3877 57.5747 75.0517 60.4497C73.7157 63.3247 74.7577 66.2257 77.4767 68.4967C77.2337 68.2967 77.0247 68.0807 76.8097 67.8707C78.8895 65.9878 81.4072 64.6551 84.1337 63.9937L84.1327 54.1747ZM24.0027 52.5617C25.3387 49.6937 24.2957 46.7857 21.5867 44.5137V54.3327C21.8247 54.5327 22.0347 54.7457 22.2487 54.9547C22.9722 54.2687 23.5663 53.4581 24.0027 52.5617Z" fill="#F2F5FC"/>
<path d="M45.4959 87.2227H45.432C43.481 87.0867 41.8659 86.9147 40.3499 86.6817C38.8159 86.4427 37.2179 86.1137 35.4619 85.6747C35.2399 85.6191 35.0464 85.4833 34.9186 85.2935C34.7909 85.1037 34.7379 84.8732 34.77 84.6467C35.116 82.1937 33.5119 79.7467 30.3699 77.9217C26.4406 75.8683 22.0202 74.9411 17.5969 75.2427C17.4463 75.2467 17.2969 75.2152 17.1607 75.1508C17.0245 75.0863 16.9053 74.9907 16.8129 74.8717C15.4439 73.0946 14.4902 71.0335 14.0219 68.8397C14.0097 68.7798 14.0036 68.7188 14.0039 68.6577V58.8417C14.004 58.6386 14.0708 58.4413 14.194 58.2799C14.3173 58.1186 14.4901 58.0022 14.6859 57.9487C16.939 57.3867 19.0504 56.362 20.8859 54.9397C20.7421 54.7728 20.6627 54.56 20.6619 54.3397V44.5207C20.6618 44.3796 20.6941 44.2403 20.7561 44.1136C20.8182 43.9869 20.9084 43.8761 21.02 43.7897C23.2922 42.064 25.7735 40.6327 28.4049 39.5297C28.6304 39.4331 28.885 39.4299 29.1129 39.5207C33.4015 41.1286 38.0352 41.5908 42.557 40.8617C47.105 40.1557 50.8569 38.3687 52.8399 35.9617C52.934 35.849 53.0533 35.76 53.1881 35.7018C53.3228 35.6436 53.4694 35.6179 53.6159 35.6267C55.5639 35.7577 57.1829 35.9267 58.716 36.1637C60.229 36.3967 61.8249 36.7267 63.5949 37.1717C63.8167 37.2274 64.0101 37.3633 64.1376 37.5531C64.2652 37.7429 64.3181 37.9732 64.286 38.1997C63.937 40.6557 65.5439 43.1047 68.6939 44.9207C72.6215 46.9748 77.0409 47.9024 81.463 47.6007C81.6143 47.5944 81.7649 47.6249 81.9018 47.6897C82.0387 47.7545 82.1578 47.8516 82.2489 47.9727C83.6165 49.7502 84.571 51.8101 85.0429 54.0027C85.0555 54.0632 85.062 54.1249 85.062 54.1867V64.0057C85.0618 64.2085 84.9951 64.4057 84.8721 64.567C84.7491 64.7284 84.5765 64.8449 84.3809 64.8987C82.1298 65.4612 80.019 66.4826 78.1809 67.8987C78.3272 68.0667 78.4078 68.2819 78.408 68.5047V78.3197C78.408 78.461 78.3756 78.6004 78.3134 78.7273C78.2511 78.8542 78.1607 78.9651 78.049 79.0517C75.7731 80.7822 73.2865 82.2164 70.6489 83.3197C70.5373 83.3683 70.4171 83.3941 70.2954 83.3956C70.1736 83.3972 70.0528 83.3744 69.9399 83.3287C65.6516 81.7229 61.0194 81.2594 56.4979 81.9837C51.9449 82.6967 48.1979 84.4837 46.2109 86.8947C46.1232 86.9986 46.0137 87.0819 45.8901 87.1385C45.7665 87.1952 45.6319 87.224 45.4959 87.2227ZM36.6679 84.0567C38.0749 84.3907 39.3789 84.6507 40.6329 84.8467C41.9749 85.0527 43.4049 85.2107 45.0989 85.3367C47.4269 82.7707 51.4399 80.8887 56.2109 80.1367C60.9306 79.3877 65.7628 79.8393 70.2619 81.4497C72.4876 80.4895 74.5971 79.2797 76.5499 77.8437V68.8997C76.4579 68.8137 76.3679 68.7257 76.2799 68.6377L76.1639 68.5247C76.0758 68.4384 76.0057 68.3355 75.9579 68.2218C75.9101 68.1081 75.8854 67.986 75.8854 67.8627C75.8854 67.7393 75.9101 67.6173 75.9579 67.5036C76.0057 67.3899 76.0758 67.2869 76.1639 67.2007C78.17 65.3569 80.5853 64.0161 83.2109 63.2887V54.2597C82.8242 52.5262 82.0886 50.8897 81.049 49.4497C76.4383 49.6787 71.8512 48.661 67.77 46.5037C64.265 44.4837 62.3449 41.7037 62.3879 38.7607C60.9649 38.4197 59.6879 38.1667 58.4359 37.9737C57.0809 37.7647 55.6469 37.6097 53.9559 37.4867C51.6259 40.0557 47.612 41.9367 42.846 42.6757C38.1266 43.4273 33.294 42.9768 28.7949 41.3657C26.5737 42.3254 24.468 43.5331 22.518 44.9657V53.9137C22.631 54.0207 22.7409 54.1277 22.8499 54.2357L22.903 54.2877C22.9906 54.3738 23.0603 54.4765 23.1078 54.5898C23.1553 54.7031 23.1798 54.8248 23.1798 54.9477C23.1798 55.0706 23.1553 55.1922 23.1078 55.3055C23.0603 55.4189 22.9906 55.5216 22.903 55.6077C20.8996 57.4576 18.4831 58.802 15.8549 59.5287V68.5567C16.2387 70.2902 16.9727 71.9271 18.0119 73.3667C22.6242 73.1389 27.2129 74.1562 31.2969 76.3117C34.7919 78.3417 36.7089 81.1267 36.6679 84.0567ZM49.4509 67.1467C47.9689 67.1476 46.4889 67.0353 45.0239 66.8107C40.5329 66.1167 36.7469 64.4387 34.3609 62.0847C34.2739 61.9984 34.2049 61.8957 34.1577 61.7826C34.1106 61.6695 34.0863 61.5482 34.0863 61.4257C34.0863 61.3031 34.1106 61.1818 34.1577 61.0687C34.2049 60.9556 34.2739 60.8529 34.3609 60.7667C38.3729 56.7987 46.4659 54.8447 54.0419 56.0147C58.5299 56.7087 62.315 58.3847 64.7 60.7367C64.7873 60.8227 64.8567 60.9253 64.9041 61.0385C64.9514 61.1516 64.9758 61.273 64.9758 61.3957C64.9758 61.5183 64.9514 61.6397 64.9041 61.7529C64.8567 61.866 64.7873 61.9686 64.7 62.0547C61.465 65.2567 55.5789 67.1507 49.4519 67.1507L49.4509 67.1467ZM36.3959 61.4247C39.0062 63.3646 42.0772 64.5903 45.3059 64.9807C51.8939 65.9987 58.8339 64.5317 62.6639 61.3977C60.0539 59.4606 56.9846 58.2362 53.7579 57.8447C47.1709 56.8317 40.2259 58.2957 36.3959 61.4287V61.4247Z" fill="#005BEA"/>
<path d="M47.9814 43.7108C50.243 44.2595 52.3309 45.3662 54.0544 46.9298C53.8754 47.0998 53.7025 47.2758 53.5035 47.4468V55.5948C55.3402 56.9866 57.3446 58.1419 59.4695 59.0338C63.1555 57.6448 67.1409 57.2445 71.0295 57.8728C75.1525 58.5168 78.3385 60.1468 80.0385 62.2158C81.4215 62.1158 82.8094 61.9878 84.1954 61.7748C85.5814 61.5618 86.8955 61.2748 88.1805 60.9578C87.8585 58.6788 89.1975 56.3428 92.2095 54.5998C95.5979 52.8237 99.4113 52.0187 103.228 52.2738C104.294 50.8902 105.038 49.2867 105.406 47.5798V39.4318C103.142 38.885 101.052 37.7765 99.3285 36.2088C99.5055 36.0348 99.6804 35.8628 99.8774 35.6928V27.5448C98.042 26.1541 96.039 24.9997 93.9155 24.1088C90.2302 25.4936 86.2476 25.8938 82.3605 25.2698C78.2395 24.6298 75.0485 22.9908 73.3505 20.9258C71.9665 21.0198 70.5745 21.1538 69.1895 21.3668C67.8045 21.5798 66.4895 21.8668 65.2095 22.1838C65.5315 24.4628 64.1895 26.7988 61.1755 28.5418C57.7878 30.3178 53.9747 31.1214 50.1584 30.8638C49.0904 32.248 48.3462 33.8541 47.9805 35.5638L47.9814 43.7108ZM80.3165 45.2868C74.0975 46.2528 67.7455 44.6258 64.6425 41.5588C67.007 39.4927 69.9468 38.1992 73.0674 37.8518C79.2894 36.8898 85.6425 38.5168 88.7405 41.5838C86.3755 43.6475 83.4361 44.9389 80.3165 45.2848V45.2868Z" fill="#1B69FF"/>
<g style="mix-blend-mode:overlay" opacity="0.3">
<path d="M63.1995 39.5768C61.1935 35.2768 65.6184 30.8539 73.0674 29.7029C80.5164 28.5519 88.1854 31.1099 90.1874 35.4149C91.5704 38.3869 89.8874 41.4068 86.2654 43.3818C87.1701 42.8998 88.0032 42.294 88.7405 41.5818C85.6405 38.5148 79.2894 36.8869 73.0674 37.8499C69.9468 38.1973 67.007 39.4908 64.6425 41.5569C65.9733 42.7943 67.5513 43.7357 69.2725 44.3188C66.3915 43.2728 64.1535 41.6278 63.1995 39.5768ZM59.4684 50.8868C57.3435 49.995 55.3392 48.8396 53.5024 47.4478V55.5959C55.3392 56.9876 57.3435 58.143 59.4684 59.0349C63.1545 57.6459 67.1398 57.2456 71.0284 57.8738C75.1514 58.5178 78.3375 60.1479 80.0375 62.2169C81.4205 62.1169 82.8085 61.9888 84.1945 61.7758C85.5805 61.5628 86.8944 61.2759 88.1794 60.9589C87.8574 58.6799 89.1964 56.3439 92.2084 54.6009C95.5969 52.8248 99.4103 52.0198 103.227 52.2748C104.293 50.8912 105.037 49.2878 105.405 47.5808V39.4329C105.038 41.1391 104.294 42.7415 103.227 44.1228C99.4095 43.8668 95.5953 44.674 92.2084 46.4548C89.1954 48.1988 87.8574 50.5308 88.1794 52.8058C86.8944 53.1238 85.5795 53.4129 84.1945 53.6269C82.8095 53.8409 81.4215 53.9698 80.0375 54.0718C78.3375 52.0028 75.1514 50.3649 71.0284 49.7219C67.1407 49.099 63.1579 49.5002 59.4725 50.8858L59.4684 50.8868ZM47.9805 43.7119C50.242 44.2605 52.3299 45.3673 54.0535 46.9308C53.8745 47.1008 53.7014 47.2768 53.5024 47.4478C55.7564 45.5638 56.6225 43.1549 55.5135 40.7679C54.4045 38.3809 51.5594 36.5398 47.9814 35.5678L47.9805 43.7119ZM99.3295 36.2119C99.5065 36.0379 99.6815 35.8659 99.8785 35.6959V27.5479C97.6315 29.4319 96.7645 31.8478 97.8785 34.2268C98.2405 34.9691 98.7322 35.6406 99.3304 36.2098L99.3295 36.2119Z" fill="black"/>
</g>
<path d="M80.0386 63.1429C79.9019 63.1429 79.7668 63.1126 79.6432 63.0541C79.5196 62.9957 79.4105 62.9106 79.3237 62.8049C77.7067 60.8379 74.6307 59.3729 70.8867 58.7889C67.1625 58.1867 63.3456 58.5658 59.8127 59.8889C59.6997 59.9346 59.5786 59.9574 59.4567 59.9559C59.3348 59.9543 59.2145 59.9285 59.1027 59.8799C56.9061 58.9573 54.8342 57.7622 52.9357 56.3228C52.8242 56.2361 52.7339 56.1251 52.6717 55.9983C52.6095 55.8715 52.577 55.7321 52.5767 55.5909V47.4428C52.5763 47.2766 52.6213 47.1135 52.7067 46.9709C51.2232 45.8589 49.5334 45.053 47.7357 44.5999C47.5402 44.5462 47.3676 44.4299 47.2446 44.2688C47.1216 44.1076 47.0549 43.9106 47.0547 43.7079V35.5598C47.0551 35.4988 47.061 35.4379 47.0726 35.3779C47.465 33.5334 48.2664 31.8004 49.4177 30.3069C49.5073 30.1848 49.6259 30.0871 49.7628 30.0225C49.8997 29.9579 50.0505 29.9285 50.2017 29.9369C53.8415 30.1865 57.4795 29.4251 60.7137 27.7369C63.2657 26.2609 64.5707 24.2829 64.2927 22.3109C64.2608 22.0846 64.3138 21.8545 64.4413 21.665C64.5689 21.4754 64.762 21.3396 64.9836 21.2838C66.4756 20.9088 67.7686 20.6429 69.0516 20.4489C70.3136 20.2549 71.7006 20.1079 73.2886 19.9999C73.4356 19.9907 73.5827 20.0164 73.7179 20.0748C73.8531 20.1332 73.9725 20.2226 74.0667 20.3358C75.6867 22.3068 78.7667 23.7718 82.5037 24.3528C86.2271 24.9503 90.042 24.5691 93.5737 23.2469C93.8016 23.1565 94.0561 23.1597 94.2817 23.2559C96.4768 24.1776 98.5473 25.3716 100.445 26.8098C100.557 26.8964 100.647 27.0075 100.71 27.1346C100.772 27.2616 100.805 27.4013 100.805 27.5429V35.6909C100.805 35.8567 100.76 36.0194 100.675 36.1619C102.158 37.2786 103.85 38.0859 105.651 38.5359C105.847 38.5894 106.02 38.7059 106.143 38.8675C106.266 39.0291 106.333 39.2267 106.333 39.4299V47.5779C106.332 47.64 106.326 47.7019 106.314 47.7629C105.918 49.6041 105.118 51.334 103.97 52.8268C103.876 52.9448 103.757 53.0396 103.621 53.1038C103.485 53.168 103.336 53.1998 103.186 53.1969C99.5452 52.9467 95.9064 53.7081 92.6716 55.3969C90.1216 56.8719 88.8177 58.8508 89.0967 60.8228C89.1287 61.0496 89.0756 61.2801 88.9476 61.4699C88.8196 61.6598 88.6259 61.7955 88.4037 61.8509C86.9527 62.2109 85.6227 62.4828 84.3397 62.6848C83.1007 62.8759 81.7556 63.0179 80.1036 63.1349L80.0386 63.1429ZM67.4156 56.6709C68.6735 56.6701 69.9296 56.7664 71.1727 56.9589C75.1347 57.5779 78.4727 59.1349 80.4327 61.2589C81.8247 61.1519 82.9857 61.0239 84.0557 60.8589C85.0557 60.7019 86.0987 60.4979 87.2087 60.2389C87.2297 57.7899 88.8437 55.4788 91.7487 53.7968C95.1382 52.0098 98.9427 51.158 102.771 51.3289C103.591 50.1733 104.174 48.8659 104.484 47.4829V40.1249C102.32 39.5113 100.333 38.3949 98.6837 36.8669C98.5957 36.7808 98.5258 36.6781 98.4781 36.5646C98.4304 36.4512 98.4058 36.3294 98.4058 36.2064C98.4058 36.0833 98.4304 35.9615 98.4781 35.8481C98.5258 35.7347 98.5957 35.6319 98.6837 35.5459C98.7757 35.4549 98.8657 35.3669 98.9547 35.2819V28.0019C97.3802 26.8531 95.6843 25.8806 93.8976 25.1019C90.156 26.4276 86.1425 26.7971 82.2217 26.1769C78.2617 25.5619 74.9217 24.0039 72.9587 21.8769C71.6137 21.9769 70.4226 22.1089 69.3326 22.2769C68.3266 22.4289 67.3107 22.6279 66.1857 22.8949C66.1667 25.3439 64.5507 27.6559 61.6417 29.3389C58.2542 31.1283 54.4497 31.9791 50.6227 31.8029C49.7997 32.9579 49.2172 34.2664 48.9097 35.6509V43.0118C51.0717 43.625 53.0587 44.7392 54.7097 46.2639C54.7981 46.351 54.8682 46.4551 54.9156 46.5698C54.963 46.6846 54.9869 46.8077 54.9858 46.9319C54.9847 47.0561 54.9586 47.1788 54.9091 47.2927C54.8596 47.4066 54.7877 47.5093 54.6976 47.5949L54.5516 47.7349C54.5136 47.7729 54.4746 47.8109 54.4346 47.8479V55.1279C56.0108 56.2763 57.7079 57.2488 59.4957 58.0279C62.0348 57.1112 64.7162 56.6518 67.4156 56.6709ZM76.7527 46.4849C71.6317 46.4849 66.7067 44.8999 63.9907 42.2169C63.9033 42.1307 63.8338 42.028 63.7864 41.9148C63.7391 41.8016 63.7147 41.6801 63.7147 41.5573C63.7147 41.4346 63.7391 41.3131 63.7864 41.1999C63.8338 41.0867 63.9033 40.984 63.9907 40.8979C66.4931 38.6947 69.6109 37.3118 72.9236 36.9359C79.2606 35.9579 86.0286 37.5978 89.3896 40.9258C89.477 41.0119 89.5464 41.1145 89.5938 41.2276C89.6412 41.3408 89.6655 41.4622 89.6655 41.5849C89.6655 41.7075 89.6412 41.8289 89.5938 41.9421C89.5464 42.0552 89.477 42.1578 89.3896 42.2439C86.8873 44.4452 83.7703 45.8266 80.4587 46.2018C79.2324 46.391 77.9934 46.4857 76.7527 46.4849ZM66.0436 41.5598C69.2226 44.0508 74.8437 45.2009 80.1747 44.3719C82.7576 44.0549 85.2199 43.0956 87.3367 41.5819C84.1637 39.0909 78.5487 37.9409 73.2067 38.7659C70.6233 39.0837 68.1608 40.0443 66.0447 41.5598H66.0436Z" fill="#005BEA"/>
</g>
<defs>
<clipPath id="clip0_443_2670">
<rect width="121" height="125" fill="white"/>
</clipPath>
</defs>
</svg>
