<svg width="87" height="73" viewBox="0 0 87 73" fill="none" xmlns="http://www.w3.org/2000/svg">
<g clip-path="url(#clip0_710_9)">
<path fill-rule="evenodd" clip-rule="evenodd" d="M26.8736 69.9728C23.3316 72.0208 20.1106 72.2138 17.7926 70.8728L17.7286 70.8668L4.52859 63.2148C3.78363 62.7711 3.12808 62.1922 2.59561 61.5078C0.534606 58.7448 0.470562 54.5648 1.05056 51.3078C2.39861 44.6791 5.9374 38.6966 11.0976 34.3228L11.6776 33.8778C11.8066 33.1618 11.8716 32.4938 11.9996 31.7848C13.7386 21.5948 20.8236 10.1748 29.9056 4.92583C33.4476 2.86483 38.0216 1.47981 41.9496 3.21281L42.4006 3.39983L45.1006 4.99083C47.6126 2.79083 50.9616 0.707815 54.3756 0.764815C55.2142 0.776207 56.0437 0.940224 56.8236 1.24882L57.2096 1.40983L62.9426 4.74583L63.5866 4.62382C64.9237 4.36885 66.3053 4.48719 67.5796 4.96583L68.0306 5.15883L81.2996 12.8168C83.8116 14.0668 85.4216 17.0298 85.4216 21.3448C85.4216 29.5498 79.6896 39.5278 72.5396 43.6238L26.8736 69.9728Z" fill="#F2F5FC"/>
<path fill-rule="evenodd" clip-rule="evenodd" d="M38.0808 3.16797C35.3196 3.29139 32.6361 4.1208 30.2868 5.57697C21.7868 10.504 14.5718 21.332 12.7038 31.908C12.6398 32.608 12.5108 33.253 12.4458 33.949C12.4284 34.1492 12.3363 34.3356 12.1878 34.471L11.6078 34.916C6.554 39.1408 3.0991 44.9687 1.8178 51.43C1.4948 53.324 0.917817 58.045 3.23382 61.053C3.68367 61.6658 4.25357 62.1806 4.90881 62.566L18.1088 70.205C20.2988 71.474 23.2618 71.158 26.4818 69.316L72.1478 42.96C79.0398 38.992 84.6478 29.292 84.6478 21.338C84.6478 17.512 83.2958 14.646 80.9768 13.486L67.3228 5.65396C66.1685 5.23417 64.9223 5.13399 63.7158 5.36398L63.1358 5.47998C62.9599 5.52143 62.7747 5.49158 62.6208 5.39697L56.5018 1.93198C55.8254 1.66218 55.1041 1.52239 54.3758 1.51996C50.7048 1.44896 47.3548 4.01997 45.6158 5.55197C45.5046 5.65552 45.3625 5.71972 45.2113 5.73471C45.0601 5.7497 44.9082 5.71468 44.7788 5.63498L41.6228 3.88898C40.5052 3.40352 39.2983 3.15756 38.0798 3.16696L38.0808 3.16797ZM21.1408 72.492C19.8319 72.5088 18.5424 72.1752 17.4058 71.526L4.13683 63.861C3.307 63.3808 2.58391 62.7363 2.01183 61.967C-0.629168 58.476 -0.0492162 53.246 0.336784 51.167C1.68613 44.3494 5.32405 38.1974 10.6478 33.73L10.9698 33.466C11.0338 32.848 11.1628 32.266 11.2278 31.65C13.1598 20.662 20.6958 9.40396 29.5198 4.26996C32.1608 2.69896 37.4428 0.392963 42.2728 2.51196L42.7238 2.71198L45.0418 4.05798C47.0418 2.38998 50.5158 0.000976562 54.2528 0.000976562C54.3168 0.000976562 54.3168 0.00695801 54.3818 0.00695801C55.3295 0.016824 56.2676 0.19808 57.1508 0.541962L57.5368 0.715973L63.0758 3.94196L63.4618 3.87796C64.9498 3.59148 66.4882 3.72338 67.9058 4.25897L68.3568 4.45895L81.6888 12.159C84.5238 13.559 86.1978 16.912 86.1978 21.344C86.1978 29.782 80.2718 40.068 72.9298 44.28L27.2638 70.636C25.4195 71.7771 23.3083 72.4169 21.1408 72.492Z" fill="#2979E4"/>
<path fill-rule="evenodd" clip-rule="evenodd" d="M26.8741 69.973C19.7891 74.073 13.9932 70.74 13.9932 62.534C13.9932 55.082 18.7601 46.174 24.9421 41.534C26.1021 30.456 33.8312 17.967 43.1702 12.582C49.2892 9.014 54.7642 9.39501 58.1132 12.898C59.2334 11.8577 60.4649 10.9438 61.7852 10.173C67.4522 6.914 72.2182 8.35702 73.9582 13.201C80.3982 10.264 85.4232 13.672 85.4232 21.342C85.4232 29.547 79.6911 39.525 72.5411 43.621L26.8741 69.973Z" fill="white"/>
<path fill-rule="evenodd" clip-rule="evenodd" d="M51.3497 10.8519C48.5873 10.9467 45.8988 11.7687 43.5557 13.2349C34.5387 18.4349 26.8737 30.6349 25.7137 41.6069C25.7073 41.7146 25.6746 41.819 25.6185 41.9111C25.5623 42.0031 25.4845 42.08 25.3917 42.135C19.3367 46.682 14.7637 55.4549 14.7637 62.5349C14.7637 66.2249 15.9877 68.95 18.1127 70.213C20.3677 71.475 23.2657 71.1589 26.4867 69.3129L72.1527 42.9569C79.0447 38.9899 84.6527 29.2889 84.6527 21.3349C84.6527 17.7859 83.5527 15.1129 81.4967 13.7919C79.6287 12.5809 77.0527 12.6129 74.2827 13.8829C74.077 13.9687 73.846 13.9709 73.6387 13.889C73.5459 13.8473 73.4633 13.7859 73.3966 13.709C73.3299 13.6322 73.2808 13.5417 73.2527 13.4439C72.9853 12.5624 72.522 11.7527 71.8973 11.0756C71.2727 10.3984 70.5029 9.87141 69.6457 9.53394C67.5847 8.77394 64.9457 9.23393 62.1747 10.8219C60.9008 11.5656 59.7126 12.4472 58.6317 13.4509C58.5622 13.5173 58.4801 13.5692 58.3902 13.6032C58.3003 13.6373 58.2045 13.653 58.1085 13.6494C58.0124 13.6457 57.918 13.6229 57.831 13.5821C57.7439 13.5413 57.666 13.4834 57.6017 13.4119C56.7918 12.5788 55.8192 11.9213 54.7443 11.4802C53.6694 11.0391 52.5153 10.8239 51.3537 10.8479L51.3497 10.8519ZM21.1417 72.4909C19.8329 72.5077 18.5433 72.1742 17.4067 71.5249C14.7017 69.9789 13.2197 66.7849 13.2197 62.5329C13.2197 54.9979 17.8567 46.0509 24.2337 41.1239C25.5217 29.7939 33.4437 17.292 42.7837 11.924C48.7737 8.48496 54.4417 8.47195 58.1777 11.859C59.1719 10.9756 60.2508 10.1925 61.3987 9.52094C64.5547 7.69894 67.6457 7.20295 70.1587 8.12095C71.0987 8.47934 71.9552 9.02666 72.6754 9.7291C73.3955 10.4315 73.964 11.2742 74.3457 12.2049C77.3727 11.0329 80.2067 11.142 82.3317 12.527C84.8437 14.137 86.1967 17.2669 86.1967 21.3449C86.1967 29.7829 80.2707 40.0689 72.9287 44.2809L27.2607 70.631C25.4177 71.7731 23.3085 72.4142 21.1417 72.4909Z" fill="#2979E4"/>
<path fill-rule="evenodd" clip-rule="evenodd" d="M24.9424 42.2839C24.8073 42.284 24.6744 42.2496 24.5564 42.1839L11.2884 34.5319C11.127 34.4197 11.0119 34.2527 10.9644 34.0619C10.917 33.8712 10.9404 33.6697 11.0304 33.4949C11.131 33.3221 11.2957 33.196 11.4888 33.1441C11.6819 33.0922 11.8877 33.1188 12.0613 33.2179L25.3293 40.8759C25.4184 40.9221 25.4975 40.9855 25.5619 41.0623C25.6264 41.1392 25.675 41.2281 25.7049 41.3238C25.7348 41.4196 25.7455 41.5203 25.7363 41.6202C25.7271 41.7201 25.6983 41.8172 25.6514 41.9059C25.5695 42.0185 25.4632 42.111 25.3404 42.1765C25.2176 42.242 25.0815 42.2787 24.9424 42.2839Z" fill="#2979E4"/>
<path fill-rule="evenodd" clip-rule="evenodd" d="M58.305 13.338C58.1703 13.3353 58.0381 13.301 57.919 13.2379L44.78 5.63794C44.6 5.54289 44.4651 5.38039 44.4047 5.18601C44.3444 4.99162 44.3635 4.78123 44.458 4.60096C44.5061 4.51382 44.5713 4.43727 44.6497 4.37589C44.7281 4.31451 44.818 4.26954 44.9142 4.24369C45.0103 4.21783 45.1106 4.21162 45.2092 4.22541C45.3078 4.2392 45.4026 4.27271 45.488 4.32395L58.627 11.924C58.8072 12.0188 58.9423 12.1813 59.0027 12.3758C59.0631 12.5703 59.0437 12.7807 58.949 12.9609C58.8853 13.0758 58.7919 13.1713 58.6786 13.2377C58.5653 13.304 58.4363 13.3386 58.305 13.338Z" fill="#2979E4"/>
<path fill-rule="evenodd" clip-rule="evenodd" d="M70.4794 9.84079C70.3635 9.84768 70.2491 9.81212 70.1574 9.74079L62.6214 5.39279C62.4416 5.29755 62.3069 5.13501 62.2465 4.94071C62.1862 4.7464 62.2052 4.53613 62.2995 4.35581C62.403 4.18614 62.5682 4.0632 62.7605 4.01285C62.9527 3.9625 63.157 3.98864 63.3304 4.08579L70.8665 8.42679C70.9554 8.47327 71.0342 8.53684 71.0985 8.61383C71.1629 8.69083 71.2114 8.77976 71.2413 8.87552C71.2712 8.97128 71.2819 9.07199 71.2729 9.17191C71.2638 9.27182 71.2351 9.36898 71.1884 9.4578C71.1072 9.57136 71.0011 9.66486 70.8782 9.73123C70.7553 9.7976 70.619 9.83508 70.4794 9.84079Z" fill="#2979E4"/>
</g>
<defs>
<clipPath id="clip0_710_9">
<rect width="86.195" height="72.492" fill="white"/>
</clipPath>
</defs>
</svg>
