<svg width="69" height="81" viewBox="0 0 69 81" fill="none" xmlns="http://www.w3.org/2000/svg">
<g clip-path="url(#clip0_710_26)">
<path fill-rule="evenodd" clip-rule="evenodd" d="M58.4828 0.770994L66.4658 5.382C66.5102 5.4006 66.553 5.42266 66.5938 5.448C66.9224 5.67367 67.1879 5.9795 67.3651 6.3365C67.5424 6.6935 67.6256 7.08984 67.6068 7.48799V11.888V11.883V43.783C67.5249 44.9178 67.1779 46.0176 66.5938 46.994C66.0099 48.0529 65.1652 48.9451 64.1398 49.586L12.0558 79.655C11.7058 79.9096 11.2942 80.0662 10.8635 80.1086C10.4328 80.1509 9.99865 80.0775 9.60579 79.896C9.57079 79.875 9.52979 79.85 9.49879 79.829L1.50978 75.218C1.21733 74.981 0.983878 74.6793 0.827713 74.3368C0.671548 73.9943 0.596967 73.6202 0.609817 73.244V36.944C0.705767 35.7771 1.06764 34.6476 1.66774 33.6423C2.26784 32.6369 3.09022 31.7823 4.07179 31.144L56.1558 1.06999C56.492 0.838805 56.8785 0.691095 57.2832 0.639097C57.6878 0.587098 58.0991 0.632312 58.4828 0.770994Z" fill="white"/>
<path fill-rule="evenodd" clip-rule="evenodd" d="M57.673 1.20504C57.235 1.23183 56.8111 1.36946 56.441 1.60503L4.36694 31.665C3.47035 32.2532 2.71936 33.0377 2.17084 33.959C1.62231 34.8804 1.29068 35.9145 1.20099 36.983L1.20593 73.25C1.19119 73.5324 1.24317 73.8142 1.35767 74.0728C1.47216 74.3313 1.646 74.5592 1.86499 74.738L9.79193 79.313C10.103 79.4665 10.4503 79.5314 10.7958 79.5008C11.1414 79.4701 11.4718 79.3449 11.751 79.139L63.835 49.07C64.7663 48.48 65.5347 47.6658 66.0699 46.702C66.6053 45.8081 66.9242 44.8012 67.001 43.762L67.006 11.974C67.0015 11.9469 66.9999 11.9195 67.001 11.892V7.49204C67.0182 7.19845 66.9617 6.90521 66.8367 6.63903C66.7116 6.37285 66.522 6.14219 66.285 5.96804L58.215 1.31603C58.043 1.2453 57.8589 1.20895 57.673 1.20904V1.20504ZM10.509 80.739C10.0857 80.7421 9.66912 80.6327 9.30194 80.422C9.28594 80.412 9.16395 80.335 9.15295 80.33L1.20593 75.74C0.828661 75.4524 0.523756 75.0807 0.31543 74.6545C0.107104 74.2283 0.00115682 73.7594 0.00598145 73.285L0.000976562 36.946C0.0956602 35.6747 0.483933 34.4426 1.13531 33.3466C1.7867 32.2507 2.6834 31.3208 3.75494 30.63L55.855 0.550041C56.2719 0.271636 56.749 0.0963371 57.2469 0.0386119C57.7449 -0.0191132 58.2494 0.0423887 58.7189 0.21804C58.7408 0.224486 58.7615 0.234631 58.78 0.248039L66.7679 4.85905C67.2166 5.12595 67.5862 5.50743 67.8387 5.96435C68.0913 6.42126 68.2177 6.93714 68.205 7.45904V11.811C68.2092 11.8365 68.2109 11.8623 68.21 11.888L68.205 43.788C68.1243 45.0294 67.749 46.2337 67.11 47.301C66.4761 48.4519 65.557 49.4206 64.441 50.114L12.352 80.183C11.797 80.5267 11.1614 80.7184 10.509 80.739Z" fill="#2979E4"/>
<path fill-rule="evenodd" clip-rule="evenodd" d="M8.59247 41.5563L0.604492 36.9463V41.3543L8.59247 45.9653V41.5563Z" fill="white"/>
<path fill-rule="evenodd" clip-rule="evenodd" d="M1.20691 41.0061L7.98792 44.9211V41.9041L1.20691 37.9891V41.0061ZM8.59192 46.5631C8.48711 46.5625 8.38401 46.5361 8.29187 46.4861L0.302917 41.8761C0.212427 41.8221 0.137304 41.7457 0.0847778 41.6543C0.0322518 41.5629 0.00409242 41.4595 0.00292969 41.3541V36.9461C0.00341313 36.8406 0.0312698 36.737 0.0838623 36.6455C0.136455 36.554 0.211965 36.4777 0.302917 36.4241C0.394129 36.3715 0.497583 36.3438 0.602905 36.3438C0.708227 36.3438 0.811682 36.3715 0.902893 36.4241L8.89093 41.0351C8.98235 41.0879 9.05817 41.1639 9.11084 41.2554C9.16351 41.3468 9.19116 41.4506 9.19092 41.5561V45.9641C9.19116 46.0697 9.16351 46.1734 9.11084 46.2649C9.05817 46.3564 8.98235 46.4324 8.89093 46.4851C8.79996 46.5372 8.69674 46.5642 8.59192 46.5631Z" fill="#2979E4"/>
<path fill-rule="evenodd" clip-rule="evenodd" d="M66.4705 5.38397L58.4825 0.772961C58.0975 0.636254 57.6858 0.592177 57.2806 0.644299C56.8755 0.696421 56.4883 0.843278 56.1505 1.07296L4.06647 31.147C3.08401 31.7843 2.26098 32.6387 1.66077 33.6442C1.06055 34.6498 0.699187 35.7797 0.604492 36.947L8.59247 41.557C8.67208 40.4234 9.01889 39.3248 9.60449 38.351C10.1871 37.2924 11.0304 36.4002 12.0545 35.759L64.1385 5.68396C64.4584 5.47064 64.8204 5.32871 65.2 5.2678C65.5796 5.20689 65.9679 5.22843 66.3385 5.33096L66.4705 5.38397Z" fill="#F2F5FC"/>
<path fill-rule="evenodd" clip-rule="evenodd" d="M1.23738 36.6191L8.11141 40.5851C8.29168 39.6916 8.61987 38.8345 9.08241 38.0491C9.7165 36.9009 10.6339 35.9343 11.7474 35.2411L63.8364 5.16606C64.0207 5.0608 64.2122 4.96859 64.4094 4.89008L58.1854 1.29007C57.8897 1.21012 57.5801 1.19654 57.2786 1.25031C56.9771 1.30407 56.6912 1.42386 56.4414 1.60107L4.36739 31.6611C3.52304 32.2166 2.80707 32.946 2.26729 33.8005C1.72751 34.655 1.37636 35.615 1.23738 36.6161V36.6191ZM8.59139 42.1601C8.48622 42.1575 8.38328 42.1293 8.2914 42.0781L0.302385 37.4671C0.204819 37.4118 0.124882 37.3301 0.0717943 37.2314C0.0187068 37.1327 -0.00535103 37.0209 0.00239731 36.9091C0.102331 35.6432 0.49306 34.4176 1.14418 33.3274C1.7953 32.2373 2.68928 31.3122 3.75643 30.6241L55.8504 0.549073C56.2707 0.26232 56.755 0.0834064 57.2608 0.0281224C57.7665 -0.0271615 58.2781 0.0428824 58.7504 0.232071L66.7694 4.85806C66.9028 4.93468 67.0016 5.05957 67.0455 5.20696C67.0894 5.35434 67.075 5.51296 67.0054 5.65007C66.9365 5.78783 66.8177 5.89417 66.6732 5.94748C66.5287 6.00079 66.3692 5.99707 66.2274 5.93707L66.1044 5.88107C65.8181 5.81949 65.5222 5.81673 65.2348 5.87294C64.9474 5.92915 64.6744 6.04316 64.4324 6.20807L12.3484 36.2731C11.4176 36.8627 10.652 37.6793 10.1234 38.6461C9.58309 39.54 9.26229 40.5492 9.1874 41.5911C9.18359 41.6944 9.15278 41.7949 9.09804 41.8827C9.0433 41.9704 8.96653 42.0422 8.87538 42.0911C8.78766 42.1356 8.69083 42.1593 8.59242 42.1601H8.59139Z" fill="#2979E4"/>
<path fill-rule="evenodd" clip-rule="evenodd" d="M8.58667 45.965L0.598633 41.354C0.598633 51.9807 0.600304 62.6123 0.603638 73.249C0.590787 73.6252 0.665368 73.9993 0.821533 74.3418C0.977698 74.6843 1.21121 74.986 1.50366 75.223L9.49268 79.834C9.19973 79.5971 8.96554 79.2957 8.80853 78.9532C8.65153 78.6107 8.57593 78.2365 8.58765 77.86C8.59031 67.228 8.59 56.5963 8.58667 45.965Z" fill="#F2F5FC"/>
<path fill-rule="evenodd" clip-rule="evenodd" d="M1.20276 42.3919L1.20777 73.2489C1.19303 73.5313 1.24501 73.8131 1.3595 74.0716C1.47399 74.3302 1.64777 74.5581 1.86677 74.7369L8.02973 78.2939C8.01473 78.1559 7.99878 78.0229 7.99378 77.8999L7.98377 46.3059L1.20276 42.3919ZM9.50275 80.4319C9.39799 80.4309 9.29504 80.4045 9.20276 80.3549L1.21479 75.7399C0.837516 75.4523 0.53255 75.0806 0.324223 74.6544C0.115897 74.2282 0.00995061 73.7593 0.0147752 73.2849L0.00977036 41.3539C0.00935062 41.2482 0.0368613 41.1442 0.0895433 41.0526C0.142225 40.9609 0.218196 40.8848 0.309758 40.8319C0.401165 40.7798 0.504543 40.7524 0.609746 40.7524C0.714949 40.7524 0.818327 40.7798 0.909734 40.8319L8.89277 45.4429C8.98488 45.4949 9.0613 45.5707 9.11408 45.6623C9.16686 45.754 9.19404 45.8582 9.19275 45.9639L9.19776 77.8589C9.18268 78.1419 9.23509 78.4244 9.35071 78.6832C9.46634 78.9419 9.64185 79.1694 9.86274 79.3469C9.98608 79.4384 10.0697 79.5737 10.0963 79.7249C10.1229 79.8761 10.0905 80.0318 10.0057 80.1599C9.95023 80.2438 9.87475 80.3126 9.78608 80.36C9.6974 80.4075 9.59833 80.4322 9.49775 80.4319H9.50275Z" fill="#2979E4"/>
<path fill-rule="evenodd" clip-rule="evenodd" d="M66.5928 46.9982C67.1769 46.0218 67.5239 44.922 67.6058 43.7872L49.3338 38.3872L40.7638 50.8192C40.0718 51.8635 39.1606 52.7445 38.0938 53.4012C37.7071 53.6613 37.2714 53.8398 36.8133 53.9258C36.3553 54.0118 35.8845 54.0034 35.4298 53.9012L26.8598 51.3652L8.59281 77.8602C8.57268 78.2586 8.65518 78.6555 8.83237 79.0128C9.00957 79.3702 9.27555 79.6761 9.60484 79.9012C9.9977 80.0827 10.4319 80.1561 10.8626 80.1138C11.2933 80.0714 11.7048 79.9148 12.0548 79.6602L64.1388 49.5912C65.1643 48.95 66.009 48.0575 66.5928 46.9982Z" fill="white"/>
<path fill-rule="evenodd" clip-rule="evenodd" d="M9.20131 78.0269C9.20304 78.2912 9.26738 78.5514 9.38905 78.786C9.51073 79.0207 9.68629 79.2232 9.90132 79.3769C10.2034 79.5006 10.5324 79.5435 10.8561 79.5014C11.1798 79.4594 11.4869 79.3337 11.7473 79.1369L63.8313 49.0679C64.7626 48.4779 65.531 47.6637 66.0663 46.6999C66.5168 45.9368 66.8188 45.0953 66.9563 44.2199L49.5793 39.0899L41.2543 51.1589C40.5117 52.2781 39.5344 53.2223 38.3903 53.9259C37.9334 54.2278 37.4193 54.4322 36.8798 54.5263C36.3404 54.6204 35.7874 54.6022 35.2553 54.4729L27.1043 52.0649L9.2043 78.0279L9.20131 78.0269ZM10.5013 80.7369C10.078 80.7399 9.66152 80.6305 9.29433 80.4199C8.87663 80.1453 8.53673 79.7677 8.30745 79.3235C8.07817 78.8792 7.96721 78.3835 7.9853 77.8839C7.97668 77.7535 8.01185 77.624 8.08528 77.5159L26.3523 51.0219C26.4262 50.9184 26.5301 50.8402 26.65 50.798C26.7699 50.7558 26.8999 50.7516 27.0223 50.7859L35.5923 53.3229C35.9679 53.4018 36.3557 53.4036 36.732 53.3279C37.1083 53.2523 37.4654 53.1009 37.7813 52.8829C38.7716 52.2734 39.6161 51.4542 40.2553 50.4829L48.8263 38.0519C48.8979 37.9476 49.0007 37.8685 49.12 37.8262C49.2393 37.7838 49.3689 37.7802 49.4903 37.8159L67.7623 43.2159C67.8904 43.2539 68.0022 43.3335 68.0799 43.4422C68.1576 43.5509 68.1968 43.6824 68.1913 43.8159C68.1098 45.0452 67.739 46.238 67.1093 47.2969C66.4754 48.4478 65.5564 49.4165 64.4403 50.1099L12.3513 80.1789C11.797 80.5238 11.1618 80.7169 10.5093 80.7389L10.5013 80.7369Z" fill="#2979E4"/>
<path fill-rule="evenodd" clip-rule="evenodd" d="M8.58594 45.9673V73.4673L8.59094 73.4573V77.8653L26.858 51.3703L24.337 50.6233L8.58594 45.9673Z" fill="white"/>
<path fill-rule="evenodd" clip-rule="evenodd" d="M9.18536 73.3749C9.18963 73.4 9.19131 73.4254 9.19037 73.4509V75.9309L25.8904 51.7109L9.18341 46.7709V73.3779L9.18536 73.3749ZM8.59241 78.4629C8.53148 78.463 8.47095 78.4528 8.41339 78.4329C8.29074 78.3952 8.18337 78.3193 8.10706 78.2162C8.03075 78.113 7.98951 77.9882 7.98938 77.8599V73.5309C7.98938 73.5099 7.98438 73.4849 7.98438 73.4589V45.9589C7.98492 45.8643 8.00742 45.7712 8.05011 45.6869C8.0928 45.6025 8.15455 45.5293 8.23041 45.4729C8.30464 45.4168 8.39115 45.3792 8.48279 45.3632C8.57443 45.3472 8.66855 45.3533 8.75739 45.3809L27.0344 50.7809C27.1256 50.8079 27.209 50.8564 27.2776 50.9223C27.3462 50.9883 27.3979 51.0697 27.4284 51.1599C27.4614 51.2492 27.472 51.3453 27.4595 51.4398C27.4469 51.5342 27.4115 51.6242 27.3564 51.7019L9.08942 78.1919C9.03527 78.2744 8.96158 78.3424 8.87488 78.3897C8.78818 78.4369 8.69115 78.4621 8.59241 78.4629Z" fill="#2979E4"/>
<path fill-rule="evenodd" clip-rule="evenodd" d="M67.6051 43.7862V11.8862L51.8551 34.7292L49.3291 38.3912L67.6051 43.7862Z" fill="white"/>
<path fill-rule="evenodd" clip-rule="evenodd" d="M50.3005 38.0493L67.0005 42.9833L67.0055 13.8193L50.2984 38.0483L50.3005 38.0493ZM67.6054 44.3903C67.5466 44.3893 67.4881 44.3805 67.4315 44.3643L49.1645 38.9693C49.0733 38.9411 48.9899 38.8923 48.9206 38.8268C48.8512 38.7613 48.7978 38.6807 48.7644 38.5913C48.7338 38.5015 48.7243 38.4059 48.7368 38.3119C48.7493 38.2178 48.7834 38.128 48.8365 38.0493L67.1125 11.5493C67.1833 11.4425 67.2871 11.3617 67.408 11.3193C67.5289 11.2768 67.6604 11.2751 67.7824 11.3143C67.9053 11.3518 68.0129 11.4276 68.0894 11.5308C68.1659 11.6339 68.2072 11.7589 68.2074 11.8873L68.2025 43.7873C68.203 43.8805 68.1814 43.9726 68.1397 44.056C68.0981 44.1394 68.0373 44.2118 67.9624 44.2673C67.8601 44.3455 67.7353 44.3886 67.6065 44.3903H67.6054Z" fill="#2979E4"/>
<path fill-rule="evenodd" clip-rule="evenodd" d="M64.1388 5.68302L12.0547 35.758C11.0308 36.3995 10.1876 37.2916 9.6048 38.35C9.01892 39.3237 8.67209 40.4224 8.59277 41.556V45.964C35.2458 53.844 9.32875 46.184 35.4297 53.901C35.8845 54.0032 36.3552 54.0116 36.8133 53.9256C37.2713 53.8396 37.707 53.6611 38.0938 53.401C39.1606 52.7444 40.0717 51.8633 40.7638 50.819C68.2348 10.977 41.2858 50.056 67.6058 11.887V7.48702C67.6246 7.08887 67.5414 6.69252 67.3641 6.33552C67.1868 5.97852 66.9213 5.6727 66.5928 5.44703C66.1994 5.26566 65.765 5.19194 65.3339 5.23341C64.9027 5.27487 64.4903 5.43002 64.1388 5.68302Z" fill="white"/>
<path fill-rule="evenodd" clip-rule="evenodd" d="M9.1922 45.5149L35.6052 53.3239C35.9808 53.4029 36.3686 53.4046 36.7449 53.3289C37.1213 53.2533 37.4782 53.1019 37.7942 52.8839C38.7844 52.2745 39.629 51.4552 40.2682 50.4839C53.3852 31.4609 54.0962 30.4319 54.1222 30.3969L54.1682 30.4279C54.4032 29.9829 54.9302 29.2209 55.8962 27.8139L67.0042 11.7139V7.49493C67.0215 7.20134 66.965 6.9081 66.8399 6.64192C66.7148 6.37574 66.5252 6.14508 66.2882 5.97093C65.9856 5.84987 65.6571 5.80835 65.3339 5.85037C65.0108 5.89238 64.7038 6.01652 64.4422 6.21092L12.3532 36.2799C11.4241 36.8713 10.6592 37.6875 10.1292 38.6529C9.59075 39.544 9.27003 40.5496 9.19318 41.5879V45.5159L9.1922 45.5149ZM36.1522 54.6019C35.8509 54.6014 35.5514 54.5583 35.2622 54.4739L8.42017 46.5429C8.29652 46.5047 8.18828 46.428 8.11115 46.3241C8.03401 46.2202 7.99202 46.0943 7.99121 45.9649V41.5569C8.07226 40.3176 8.44727 39.1155 9.08521 38.0499C9.72112 36.9002 10.6401 35.9319 11.7552 35.2369L63.8392 5.16792V5.16293C64.2807 4.8547 64.7967 4.67034 65.3336 4.62901C65.8705 4.58768 66.4087 4.6909 66.8922 4.92793C67.3097 5.20216 67.6497 5.57899 67.8798 6.02234C68.1099 6.46568 68.2223 6.96069 68.2062 7.45993V11.8939C68.2067 12.0152 68.172 12.134 68.1062 12.2359C55.8272 30.0419 55.1432 31.0359 55.1172 31.0699L55.0662 31.0399C54.8212 31.4999 54.2662 32.3079 53.2252 33.8169L41.2642 51.1629C40.5216 52.2821 39.5443 53.2263 38.4002 53.9299C37.723 54.3494 36.9465 54.5813 36.1502 54.6019H36.1522Z" fill="#2979E4"/>
<path fill-rule="evenodd" clip-rule="evenodd" d="M67.6058 11.8912V7.49121L39.8578 47.7272C39.4021 48.4193 38.7995 49.0025 38.0928 49.4352C37.8378 49.6077 37.55 49.7258 37.2474 49.7822C36.9448 49.8386 36.6338 49.8322 36.3338 49.7632L8.5918 41.5632V45.9712C32.6568 53.0842 14.3608 47.6792 35.4288 53.9082C35.8835 54.0104 36.3543 54.0188 36.8123 53.9328C37.2704 53.8468 37.7061 53.6683 38.0928 53.4082C39.1596 52.7515 40.0707 51.8705 40.7628 50.8262C68.2308 10.9812 41.2858 50.0602 67.6058 11.8912Z" fill="#F2F5FC"/>
<path fill-rule="evenodd" clip-rule="evenodd" d="M9.1922 45.5152L35.6052 53.3242C35.9808 53.4031 36.3686 53.4048 36.7449 53.3292C37.1213 53.2535 37.4782 53.1021 37.7942 52.8842C38.7844 52.2747 39.629 51.4555 40.2682 50.4842C53.3852 31.4612 54.0962 30.4322 54.1222 30.3972L54.1682 30.4282C54.4032 29.9832 54.9302 29.2212 55.8962 27.8142L67.0042 11.7142V9.42316L40.3562 48.0732C39.8499 48.8382 39.1814 49.4824 38.3982 49.9602C38.0727 50.1732 37.7068 50.3171 37.3234 50.3829C36.94 50.4488 36.5472 50.4353 36.1692 50.3432L9.1922 42.3642V45.5142V45.5152ZM36.1522 54.6022C35.8509 54.6016 35.5514 54.5585 35.2622 54.4742L8.42017 46.5432C8.29652 46.5049 8.18828 46.4283 8.11115 46.3243C8.03401 46.2204 7.99202 46.0946 7.99121 45.9652V41.5572C7.99179 41.4636 8.01422 41.3714 8.05676 41.2881C8.0993 41.2048 8.16077 41.1325 8.23621 41.0772C8.31027 41.0208 8.39645 40.9824 8.48792 40.965C8.57938 40.9476 8.6736 40.9518 8.76318 40.9772L36.5112 49.1772C36.7319 49.2213 36.9593 49.2204 37.1797 49.1747C37.4002 49.129 37.6092 49.0394 37.7942 48.9112C38.4243 48.5241 38.9606 48.0018 39.3642 47.3822L67.1112 7.14116C67.1846 7.03586 67.2894 6.95644 67.4106 6.91423C67.5318 6.87203 67.6633 6.8692 67.7862 6.90616C67.9087 6.94493 68.0156 7.02202 68.091 7.12607C68.1664 7.23013 68.2065 7.35565 68.2052 7.48417V11.8842C68.2058 12.0054 68.171 12.1243 68.1052 12.2262C55.8262 30.0322 55.1422 31.0262 55.1162 31.0602L55.0652 31.0302C54.8202 31.4902 54.2652 32.2982 53.2242 33.8072L41.2632 51.1532C40.5206 52.2724 39.5433 53.2166 38.3992 53.9202C37.7233 54.343 36.9471 54.5783 36.1502 54.6022H36.1522Z" fill="#2979E4"/>
<path fill-rule="evenodd" clip-rule="evenodd" d="M9.35449 38.8152L1.36652 34.1992C0.927763 35.0533 0.668419 35.9881 0.604492 36.9462L8.59247 41.5562C8.65767 40.6003 8.91697 39.6676 9.35449 38.8152Z" fill="#F2F5FC"/>
<path fill-rule="evenodd" clip-rule="evenodd" d="M1.23715 36.6132L8.10519 40.5842C8.20975 40.0613 8.36894 39.5508 8.58016 39.0612L1.64114 35.0532C1.4398 35.5534 1.30535 36.0779 1.24118 36.6132H1.23715ZM8.59115 42.1592C8.48598 42.1566 8.38304 42.1284 8.29116 42.0772L0.302149 37.4662C0.205064 37.4104 0.125551 37.3286 0.0725352 37.23C0.0195191 37.1314 -0.00487345 37.0199 0.00216162 36.9082C0.0691778 35.8702 0.349333 34.8571 0.82516 33.9322C0.861349 33.8579 0.912855 33.7922 0.976283 33.7393C1.03971 33.6864 1.1136 33.6475 1.19314 33.6252C1.27088 33.6005 1.35295 33.5923 1.43405 33.6011C1.51514 33.6098 1.59349 33.6354 1.66415 33.6762L9.65219 38.2922C9.78369 38.368 9.88152 38.4909 9.92605 38.636C9.97059 38.7811 9.95851 38.9377 9.89218 39.0742C9.48773 39.8561 9.24873 40.7129 9.19015 41.5912C9.18634 41.6945 9.15553 41.7951 9.10079 41.8828C9.04606 41.9705 8.96928 42.0424 8.87814 42.0912C8.78951 42.1362 8.6916 42.1599 8.59219 42.1602L8.59115 42.1592Z" fill="#2979E4"/>
</g>
<defs>
<clipPath id="clip0_710_26">
<rect width="68.219" height="80.739" fill="white"/>
</clipPath>
</defs>
</svg>
