<svg width="70" height="86" viewBox="0 0 70 86" fill="none" xmlns="http://www.w3.org/2000/svg">
<g clip-path="url(#clip0_710_57)">
<path fill-rule="evenodd" clip-rule="evenodd" d="M68.1625 52.8588L34.0025 33.1418C33.816 33.0594 33.6113 33.0266 33.4083 33.0468C33.2054 33.067 33.0111 33.1393 32.8445 33.2568L2.26349 50.9158C1.77915 51.2215 1.38061 51.6455 1.10547 52.1478L35.2655 71.8598C35.5356 71.3709 35.9135 70.95 36.3705 70.6288L67.0045 52.9688C67.1705 52.8497 67.3652 52.7767 67.5686 52.7574C67.772 52.7381 67.977 52.7731 68.1625 52.8588Z" fill="white"/>
<path fill-rule="evenodd" clip-rule="evenodd" d="M2.00101 51.9488L35.056 71.0398C35.3357 70.6761 35.6736 70.3612 36.056 70.1078L66.426 52.5798L33.687 33.6798C33.587 33.6328 33.477 33.6218 33.108 33.8118L2.57504 51.4478C2.35998 51.5871 2.1651 51.7553 1.996 51.9478L2.00101 51.9488ZM35.267 72.4818C35.1564 72.4788 35.0482 72.4497 34.951 72.3968L0.790007 52.6858C0.638149 52.6045 0.52459 52.4665 0.474028 52.3018C0.456406 52.135 0.493222 51.967 0.579009 51.8228C0.89054 51.227 1.36544 50.7324 1.94803 50.3968L32.529 32.7218C32.7836 32.5546 33.0763 32.4544 33.3799 32.4304C33.6836 32.4065 33.9884 32.4596 34.266 32.5848L68.479 52.3238C68.6108 52.4093 68.7055 52.5411 68.7446 52.6932C68.7837 52.8452 68.7642 53.0064 68.69 53.1448C68.6211 53.2854 68.4994 53.393 68.3514 53.4444C68.2035 53.4957 68.0412 53.4865 67.9 53.4188C67.742 53.3398 67.638 53.3348 67.269 53.5188L36.687 71.1648C36.2967 71.4119 35.9859 71.7664 35.792 72.1858C35.7336 72.2729 35.6556 72.345 35.5642 72.3964C35.4729 72.4478 35.3717 72.4771 35.267 72.4818Z" fill="#2979E4"/>
<path fill-rule="evenodd" clip-rule="evenodd" d="M68.6356 53.9222C68.6632 53.7186 68.6336 53.5113 68.5501 53.3236C68.4665 53.1358 68.3324 52.975 68.1627 52.8592C67.9778 52.771 67.7724 52.7347 67.5684 52.7541C67.3645 52.7735 67.1697 52.8478 67.0047 52.9692L36.3707 70.6292C35.9037 70.9374 35.5246 71.3616 35.2707 71.8602C34.9534 72.346 34.7715 72.9076 34.7437 73.4872V83.9352C34.7253 84.1446 34.7646 84.3549 34.8576 84.5434C34.9505 84.732 35.0934 84.8913 35.2707 85.0042C35.4466 85.0895 35.6428 85.1238 35.8372 85.1033C36.0317 85.0828 36.2165 85.0083 36.3707 84.8882L67.0047 67.2342C67.4797 66.9159 67.8742 66.4916 68.1573 65.9947C68.4403 65.4979 68.6041 64.9421 68.6356 64.3712V53.9222Z" fill="white"/>
<path fill-rule="evenodd" clip-rule="evenodd" d="M67.7453 53.3641C67.5948 53.373 67.4494 53.422 67.3243 53.5061L36.6913 71.1651C36.3074 71.4128 35.998 71.7602 35.7963 72.1701C35.5448 72.567 35.3995 73.0219 35.3743 73.4911V83.9391C35.3743 84.2081 35.4273 84.4081 35.5323 84.4711C35.6373 84.5341 35.7953 84.5181 36.1113 84.3611L66.6922 66.7021C67.0694 66.4352 67.383 66.0884 67.6105 65.6863C67.838 65.2842 67.9738 64.8368 68.0083 64.3761V53.9221C68.0083 53.6061 67.9563 53.4431 67.8503 53.3951C67.7983 53.3741 67.7983 53.3641 67.7443 53.3641H67.7453ZM35.6902 85.7401C35.4316 85.7419 35.1772 85.6745 34.9532 85.5451C34.6807 85.3787 34.4584 85.1414 34.3101 84.8585C34.1618 84.5757 34.0931 84.2579 34.1113 83.9391V73.4911C34.1338 72.8062 34.3333 72.1389 34.6902 71.5541C35.034 70.9551 35.5226 70.4521 36.1113 70.0911L66.6922 52.4311C66.9535 52.2548 67.2572 52.1516 67.5718 52.1322C67.8863 52.1129 68.2004 52.1781 68.4813 52.3211C68.7388 52.4979 68.9466 52.7379 69.0847 53.018C69.2229 53.2982 69.2868 53.6091 69.2703 53.9211V64.3741C69.2422 65.0547 69.0507 65.7186 68.7118 66.3096C68.3729 66.9005 67.8966 67.4012 67.3233 67.7691L36.6872 85.4301C36.3894 85.6247 36.0429 85.7317 35.6872 85.7391L35.6902 85.7401Z" fill="#2979E4"/>
<path fill-rule="evenodd" clip-rule="evenodd" d="M63.7939 64.2282L66.7419 62.5222V59.1162L63.7939 60.8222V64.2282Z" fill="#F2F5FC"/>
<path fill-rule="evenodd" clip-rule="evenodd" d="M64.4259 61.1798V63.1588L66.1629 62.1688V60.1878L64.4259 61.1778V61.1798ZM63.7939 64.8488C63.6834 64.8455 63.5752 64.8164 63.4779 64.7638C63.395 64.7013 63.3279 64.6201 63.2822 64.5268C63.2365 64.4335 63.2135 64.3307 63.2149 64.2268V60.8208C63.2134 60.7169 63.2364 60.6141 63.2821 60.5208C63.3278 60.4275 63.3949 60.3463 63.4779 60.2838L66.4259 58.5838C66.5219 58.528 66.6309 58.4985 66.7419 58.4985C66.8529 58.4985 66.962 58.528 67.0579 58.5838C67.1553 58.6337 67.2367 58.7101 67.2926 58.8043C67.3485 58.8984 67.3767 59.0064 67.3739 59.1158V62.5218C67.3774 62.6321 67.3496 62.741 67.2937 62.8361C67.2377 62.9311 67.156 63.0084 67.0579 63.0588L64.1099 64.7638C64.0127 64.8165 63.9045 64.8456 63.7939 64.8488Z" fill="#2979E4"/>
<path fill-rule="evenodd" clip-rule="evenodd" d="M35.2662 71.86L1.10616 52.1479V52.153C0.794456 52.6382 0.629835 53.2032 0.63216 53.78V64.228C0.600028 64.4327 0.627673 64.6424 0.71175 64.8318C0.795827 65.0213 0.932764 65.1824 1.10616 65.2959L35.2662 85.0079C35.0947 84.8893 34.9562 84.7289 34.864 84.5418C34.7718 84.3547 34.7288 84.1472 34.7392 83.9389V73.491C34.781 72.9141 34.9619 72.3558 35.2662 71.864V71.86Z" fill="white"/>
<path fill-rule="evenodd" clip-rule="evenodd" d="M1.36882 53.0222C1.28686 53.2768 1.2339 53.5398 1.21086 53.8062V64.2282C1.26386 64.6062 1.31683 64.6852 1.47483 64.7852L34.1078 83.6552V73.4922C34.1452 73.0179 34.2517 72.5517 34.4239 72.1082L1.36882 53.0222ZM35.2688 85.6222C35.1585 85.6236 35.0496 85.5964 34.9529 85.5432L0.79185 65.8312C0.528386 65.6655 0.315501 65.4306 0.176371 65.1521C0.0372417 64.8737 -0.0227941 64.5624 0.00284848 64.2522V53.7802C0.000366236 53.1023 0.182529 52.4364 0.529826 51.8542C0.576635 51.7788 0.637974 51.7135 0.710246 51.662C0.782518 51.6105 0.864302 51.5738 0.950847 51.5542C1.11032 51.5104 1.28065 51.5312 1.42485 51.6122L35.5328 71.3232C35.6054 71.3598 35.6699 71.4106 35.7226 71.4726C35.7752 71.5345 35.815 71.6063 35.8395 71.6838C35.864 71.7614 35.8727 71.843 35.8652 71.9239C35.8577 72.0049 35.8341 72.0835 35.7958 72.1552C35.5429 72.5672 35.3977 73.0363 35.3738 73.5192V83.9402C35.3738 84.3252 35.4788 84.3982 35.5848 84.4982C35.7152 84.5899 35.8082 84.7254 35.847 84.8799C35.8857 85.0345 35.8675 85.1979 35.7958 85.3402C35.7315 85.4211 35.6513 85.4881 35.5602 85.5369C35.469 85.5858 35.3689 85.6155 35.2659 85.6242L35.2688 85.6222Z" fill="#2979E4"/>
<path fill-rule="evenodd" clip-rule="evenodd" d="M58.8994 67.0549L61.8474 65.3548V61.9438L58.8994 63.6488V67.0549Z" fill="#F2F5FC"/>
<path fill-rule="evenodd" clip-rule="evenodd" d="M59.5296 64.007V65.9861L61.2666 64.996V63.017L59.5296 64.007ZM58.8976 67.676C58.7868 67.6757 58.678 67.6468 58.5816 67.592C58.4911 67.533 58.4154 67.4538 58.3606 67.3606C58.3058 67.2675 58.2733 67.1629 58.2656 67.055V63.649C58.274 63.5414 58.3068 63.4371 58.3616 63.344C58.4163 63.251 58.4916 63.1716 58.5816 63.112L61.5816 61.412C61.6684 61.3575 61.7687 61.3286 61.8711 61.3286C61.9736 61.3286 62.0739 61.3575 62.1606 61.412C62.258 61.462 62.3393 61.5385 62.3952 61.6326C62.4511 61.7267 62.4793 61.8346 62.4766 61.944V65.355C62.4794 65.4651 62.4513 65.5738 62.3954 65.6687C62.3396 65.7637 62.2583 65.841 62.1606 65.892L59.2126 67.592C59.1168 67.6462 59.0077 67.6751 58.8976 67.676Z" fill="#2979E4"/>
<path fill-rule="evenodd" clip-rule="evenodd" d="M68.1625 36.8049L34.0025 17.0989C33.817 17.0131 33.6121 16.978 33.4086 16.9974C33.2052 17.0167 33.0105 17.0897 32.8445 17.2089L2.26349 34.8689C1.77795 35.1732 1.37908 35.5975 1.10547 36.1009L35.2655 55.8119C35.5359 55.3232 35.9137 54.9023 36.3705 54.5809L67.0045 36.9219C67.1704 36.8029 67.3647 36.7295 67.5679 36.7089C67.7711 36.6884 67.9761 36.7215 68.1625 36.8049Z" fill="white"/>
<path fill-rule="evenodd" clip-rule="evenodd" d="M2.00107 35.8998L35.0561 54.9908C35.336 54.6273 35.6739 54.3125 36.0561 54.0588L66.4261 36.5258L33.6871 17.6258C33.5871 17.5778 33.4771 17.5678 33.1081 17.7518L2.5751 35.3998C2.36013 35.5392 2.16528 35.7074 1.99606 35.8998H2.00107ZM35.2671 56.4328C35.1563 56.4323 35.0475 56.4034 34.9511 56.3488L0.790067 36.6368C0.639103 36.5544 0.525888 36.4168 0.474088 36.2528C0.45632 36.0859 0.493145 35.9179 0.579068 35.7738C0.891814 35.1789 1.36642 34.6845 1.94809 34.3478L32.5291 16.6728C32.7833 16.5048 33.0761 16.404 33.3799 16.3801C33.6837 16.3561 33.9886 16.4097 34.2661 16.5358L68.4751 36.2688C68.6066 36.3556 68.7011 36.4883 68.7401 36.641C68.7792 36.7937 68.7599 36.9555 68.6861 37.0948C68.6159 37.2342 68.4942 37.3409 68.3466 37.392C68.1991 37.4432 68.0375 37.4349 67.8961 37.3688C67.7381 37.2958 67.6341 37.2848 67.2651 37.4738L36.684 55.1168C36.2949 55.3654 35.9846 55.7195 35.7891 56.1378C35.7308 56.2242 35.6532 56.2958 35.5624 56.347C35.4716 56.3982 35.3712 56.4276 35.2671 56.4328Z" fill="#2979E4"/>
<path fill-rule="evenodd" clip-rule="evenodd" d="M68.6356 37.8789C68.6626 37.6737 68.6327 37.4651 68.5493 37.2757C68.4659 37.0863 68.3322 36.9235 68.1627 36.8049C67.9769 36.719 67.7715 36.6845 67.5678 36.7049C67.3642 36.7253 67.1697 36.7999 67.0047 36.9209L36.3707 54.5799C35.904 54.8884 35.525 55.3125 35.2707 55.8109C34.9542 56.2989 34.7724 56.8619 34.7437 57.4429V67.8909C34.7253 68.1002 34.7646 68.3106 34.8576 68.4991C34.9505 68.6876 35.0934 68.847 35.2707 68.9599C35.446 69.0462 35.6421 69.0815 35.8366 69.0619C36.031 69.0423 36.2161 68.9685 36.3707 68.8489L67.0047 51.1839C67.4782 50.8657 67.874 50.4449 68.1627 49.9529C68.4646 49.4633 68.628 48.901 68.6356 48.3259V37.8789Z" fill="white"/>
<path fill-rule="evenodd" clip-rule="evenodd" d="M67.7454 37.3151C67.5945 37.3218 67.4485 37.371 67.3244 37.4571L36.6914 55.1161C36.3074 55.3637 35.998 55.7111 35.7964 56.1211C35.5442 56.5177 35.3989 56.9728 35.3744 57.4421V67.8901C35.3744 68.1581 35.4274 68.3581 35.5324 68.4211C35.6374 68.4841 35.7954 68.4691 36.1114 68.3111L66.6924 50.6511C67.078 50.3894 67.4016 50.0464 67.6404 49.6461C67.8777 49.2461 68.0047 48.7902 68.0084 48.3251V37.8751C68.0084 37.6071 67.9564 37.4011 67.8504 37.3381C67.7984 37.3221 67.7984 37.3121 67.7444 37.3121L67.7454 37.3151ZM35.6904 69.6921C35.4313 69.6922 35.1769 69.6231 34.9534 69.4921C34.6805 69.3263 34.458 69.0893 34.3096 68.8065C34.1613 68.5237 34.0928 68.2059 34.1114 67.8871V57.4431C34.1345 56.7568 34.3339 56.088 34.6904 55.5011C35.0359 54.9049 35.5243 54.4039 36.1114 54.0431L66.6924 36.3841C66.9536 36.2081 67.2569 36.1047 67.5712 36.0843C67.8856 36.0639 68.1996 36.1273 68.4814 36.2681C68.7392 36.4472 68.9471 36.6892 69.0852 36.9712C69.2232 37.2531 69.287 37.5656 69.2704 37.8791V48.3271C69.2482 49.0119 69.049 49.6792 68.6924 50.2641C68.3669 50.8582 67.8959 51.3599 67.3234 51.7221L36.6904 69.3811C36.3919 69.577 36.0443 69.6847 35.6874 69.6921H35.6904Z" fill="#2979E4"/>
<path fill-rule="evenodd" clip-rule="evenodd" d="M63.7939 48.1798L66.7419 46.4799V43.0688L63.7939 44.7738V48.1798Z" fill="#F2F5FC"/>
<path fill-rule="evenodd" clip-rule="evenodd" d="M64.4259 45.1338V47.1078L66.1629 46.1238V44.1448L64.4259 45.1338ZM63.7939 48.8028C63.6835 48.7996 63.5753 48.7708 63.4779 48.7188C63.395 48.6562 63.3279 48.575 63.2822 48.4817C63.2365 48.3884 63.2135 48.2857 63.2149 48.1818V44.7738C63.2135 44.6699 63.2365 44.5671 63.2822 44.4738C63.3279 44.3805 63.395 44.2993 63.4779 44.2368L66.4259 42.5368C66.5215 42.4798 66.6307 42.4497 66.7419 42.4497C66.8532 42.4497 66.9623 42.4798 67.0579 42.5368C67.1557 42.5862 67.2374 42.6625 67.2934 42.7567C67.3494 42.851 67.3773 42.9592 67.3739 43.0688V46.4798C67.376 46.5891 67.3475 46.6968 67.2917 46.7908C67.2359 46.8848 67.1549 46.9613 67.0579 47.0118L64.1099 48.7168C64.0125 48.7689 63.9043 48.7977 63.7939 48.8008V48.8028Z" fill="#2979E4"/>
<path fill-rule="evenodd" clip-rule="evenodd" d="M35.2663 55.8111L1.1063 36.1001C0.795953 36.5859 0.63145 37.1506 0.632305 37.7271V48.1801C0.59997 48.385 0.627503 48.5949 0.71159 48.7845C0.795676 48.9742 0.932736 49.1355 1.1063 49.2491L35.2663 68.9611C35.0949 68.8424 34.9565 68.6819 34.8643 68.4949C34.7721 68.3078 34.7291 68.1004 34.7393 67.8921V57.4431C34.7821 56.8648 34.9628 56.3052 35.2663 55.8111Z" fill="white"/>
<path fill-rule="evenodd" clip-rule="evenodd" d="M1.36882 36.9738C1.28679 37.2283 1.23382 37.4913 1.21086 37.7578V48.1798C1.26386 48.5648 1.31683 48.6378 1.47483 48.7378L34.1078 67.6078V57.4428C34.1459 56.9686 34.2524 56.5025 34.4239 56.0588L1.36882 36.9738ZM35.2688 69.5808C35.1581 69.5803 35.0493 69.5514 34.9529 69.4968L0.79185 49.7848C0.528386 49.6191 0.315501 49.3842 0.176371 49.1057C0.0372417 48.8273 -0.0227941 48.516 0.00284848 48.2058V37.7268C0.00033584 37.0501 0.182526 36.3856 0.529826 35.8048C0.575749 35.7287 0.636794 35.6627 0.709208 35.6111C0.781622 35.5595 0.863885 35.5234 0.950847 35.5048C1.02983 35.4813 1.11286 35.4747 1.19456 35.4856C1.27625 35.4964 1.35476 35.5244 1.42485 35.5678L35.5328 55.2748C35.6053 55.3113 35.6699 55.362 35.7225 55.4239C35.7752 55.4857 35.8149 55.5575 35.8394 55.6349C35.8639 55.7123 35.8727 55.7939 35.8652 55.8748C35.8577 55.9556 35.8341 56.0342 35.7958 56.1058C35.5429 56.5175 35.3978 56.9862 35.3738 57.4688V67.8918C35.3572 67.9959 35.3679 68.1025 35.4049 68.2012C35.4419 68.2999 35.5039 68.3873 35.5848 68.4548C35.7153 68.5452 35.8086 68.6798 35.8474 68.8337C35.8862 68.9876 35.8679 69.1504 35.7958 69.2918C35.7316 69.3733 35.6516 69.441 35.5605 69.4906C35.4694 69.5403 35.3691 69.571 35.2659 69.5808H35.2688Z" fill="#2979E4"/>
<path fill-rule="evenodd" clip-rule="evenodd" d="M58.8994 51.0041L61.8474 49.3041V45.8931L58.8994 47.6041V51.0041Z" fill="#F2F5FC"/>
<path fill-rule="evenodd" clip-rule="evenodd" d="M59.5296 47.9589V49.9399L61.2666 48.9499V46.9708L59.5296 47.9609V47.9589ZM58.8976 51.6269C58.7868 51.6265 58.678 51.5976 58.5816 51.5429C58.4916 51.4833 58.4163 51.4039 58.3616 51.3109C58.3068 51.2178 58.274 51.1135 58.2656 51.0059V47.5998C58.2739 47.4922 58.3066 47.3878 58.3614 47.2947C58.4162 47.2016 58.4915 47.1223 58.5816 47.0629L61.5816 45.3629C61.6684 45.3086 61.7687 45.2798 61.8711 45.2798C61.9735 45.2798 62.0738 45.3086 62.1606 45.3629C62.2575 45.4132 62.3383 45.4896 62.3942 45.5834C62.45 45.6772 62.4785 45.7847 62.4766 45.8939V49.3048C62.4794 49.4149 62.4513 49.5236 62.3954 49.6186C62.3396 49.7135 62.2583 49.7908 62.1606 49.8419L59.2126 51.5418C59.1169 51.5964 59.0078 51.6256 58.8976 51.6269Z" fill="#2979E4"/>
<path fill-rule="evenodd" clip-rule="evenodd" d="M68.1625 20.4411L34.0025 0.724102C33.8159 0.641706 33.6112 0.609081 33.4082 0.629412C33.2052 0.649742 33.011 0.722334 32.8445 0.840103L2.26349 18.4961C1.77907 18.8017 1.3805 19.2257 1.10547 19.7281L35.2655 39.4401C35.5357 38.951 35.9135 38.5297 36.3705 38.2081L67.0045 20.5491C67.1706 20.4302 67.3655 20.3575 67.5689 20.3386C67.7724 20.3196 67.9772 20.355 68.1625 20.4411Z" fill="#F2F5FC"/>
<path fill-rule="evenodd" clip-rule="evenodd" d="M2.00131 19.5301L35.0563 38.6211C35.3361 38.2576 35.674 37.9427 36.0563 37.6891L66.4263 20.1621L33.6873 1.26212C33.5873 1.21511 33.4773 1.20412 33.1083 1.39312L2.57534 19.0301C2.36038 19.1695 2.16552 19.3377 1.9963 19.5301H2.00131ZM35.2673 40.0641C35.1565 40.0636 35.0477 40.0347 34.9513 39.9801L0.79031 20.2681C0.63824 20.1871 0.524599 20.0489 0.474331 19.8841C0.455963 19.7189 0.492869 19.5522 0.579311 19.4101C0.890284 18.8124 1.36518 18.3156 1.94833 17.9781L32.5293 0.308116C32.7829 0.138501 33.0758 0.0368296 33.3799 0.0128417C33.684 -0.0111463 33.9893 0.0433514 34.2663 0.171115L68.4753 19.9041C68.6068 19.9897 68.7015 20.1215 68.7406 20.2736C68.7796 20.4256 68.7603 20.5867 68.6863 20.7251C68.6145 20.863 68.4927 20.9682 68.3458 21.0191C68.1989 21.0701 68.0381 21.0629 67.8963 20.9991C67.7383 20.9251 67.6344 20.9151 67.2654 21.0991L36.6843 38.7481C36.2964 38.9977 35.9864 39.3511 35.7893 39.7681C35.7312 39.8548 35.6537 39.9267 35.5629 39.978C35.4721 40.0294 35.3715 40.0589 35.2673 40.0641Z" fill="#2979E4"/>
<path fill-rule="evenodd" clip-rule="evenodd" d="M68.6356 21.5092C68.6632 21.3047 68.6337 21.0966 68.5502 20.9079C68.4667 20.7192 68.3325 20.5573 68.1627 20.4402C67.9774 20.3534 67.7723 20.3178 67.5687 20.3372C67.365 20.3565 67.1702 20.4301 67.0046 20.5502L36.3707 38.2092C35.9036 38.5177 35.5245 38.9422 35.2706 39.4412V39.4462C34.9532 39.9319 34.7712 40.4936 34.7436 41.0732V51.5212C34.7253 51.7304 34.7647 51.9406 34.8577 52.1289C34.9506 52.3173 35.0934 52.4765 35.2706 52.5892C35.4463 52.6741 35.6421 52.7087 35.8363 52.6891C36.0305 52.6695 36.2155 52.5965 36.3707 52.4782L67.0046 34.8192C67.4781 34.4984 67.8738 34.0757 68.1627 33.5822C68.4646 33.0926 68.628 32.5303 68.6356 31.9552V21.5092Z" fill="white"/>
<path fill-rule="evenodd" clip-rule="evenodd" d="M67.7454 20.9462C67.5944 20.9524 67.4483 21.0017 67.3244 21.0882L36.6914 38.7482C36.3091 38.9956 36 39.3409 35.7964 39.7482C35.5449 40.1451 35.3996 40.6 35.3744 41.0692V51.5172C35.3561 51.7083 35.4127 51.8991 35.5324 52.0492C35.6374 52.0962 35.7954 52.0962 36.1114 51.9382L66.6924 34.2792C67.0787 34.0203 67.4025 33.6788 67.6404 33.2792C67.877 32.8789 68.0039 32.4232 68.0084 31.9582V21.5102C68.0084 21.1882 67.9564 21.0252 67.8504 20.9782C67.7984 20.9572 67.7984 20.9472 67.7444 20.9472L67.7454 20.9462ZM35.6904 53.3222C35.4313 53.3223 35.1769 53.2532 34.9534 53.1222C34.6805 52.9564 34.458 52.7194 34.3096 52.4366C34.1613 52.1538 34.0928 51.836 34.1114 51.5172V41.0742C34.1338 40.3891 34.3333 39.7214 34.6904 39.1362C35.0357 38.5385 35.524 38.0358 36.1114 37.6732L66.6924 20.0142C66.954 19.8389 67.2576 19.7363 67.5719 19.7168C67.8862 19.6973 68.2001 19.7616 68.4814 19.9032C68.7391 20.0813 68.9469 20.3223 69.085 20.6035C69.2232 20.8846 69.287 21.1964 69.2704 21.5092V31.9572C69.2482 32.642 69.0491 33.3093 68.6924 33.8942C68.3686 34.4896 67.8972 34.9916 67.3234 35.3522L36.6904 53.0112C36.3919 53.2071 36.0443 53.3148 35.6874 53.3222H35.6904Z" fill="#2979E4"/>
<path fill-rule="evenodd" clip-rule="evenodd" d="M63.7939 31.8102L66.7419 30.1102V26.7002L63.7939 28.4052V31.8102Z" fill="#F2F5FC"/>
<path fill-rule="evenodd" clip-rule="evenodd" d="M64.4259 28.763V30.742L66.1629 29.753V27.773L64.4259 28.763ZM63.7939 32.432C63.6831 32.4316 63.5743 32.4027 63.4779 32.348C63.395 32.2854 63.3279 32.2042 63.2822 32.1109C63.2365 32.0176 63.2135 31.9148 63.2149 31.811V28.405C63.2135 28.3011 63.2366 28.1984 63.2823 28.1051C63.328 28.0118 63.395 27.9306 63.4779 27.868L66.4259 26.168C66.5214 26.1108 66.6306 26.0806 66.7419 26.0806C66.8532 26.0806 66.9624 26.1108 67.0579 26.168C67.1553 26.2179 67.2367 26.2943 67.2926 26.3884C67.3485 26.4825 67.3767 26.5905 67.3739 26.7V30.11C67.3767 30.2201 67.3486 30.3287 67.2927 30.4237C67.2369 30.5186 67.1555 30.5959 67.0579 30.647L64.1099 32.347C64.0136 32.4018 63.9047 32.4317 63.7939 32.432Z" fill="#2979E4"/>
<path fill-rule="evenodd" clip-rule="evenodd" d="M35.2663 39.442L1.1063 19.73C0.7946 20.2152 0.62998 20.7803 0.632305 21.357V31.81C0.59997 32.0149 0.627503 32.2248 0.71159 32.4144C0.795676 32.6041 0.932736 32.7654 1.1063 32.879L35.2663 52.591C35.095 52.4724 34.9566 52.3121 34.8644 52.1253C34.7722 51.9384 34.7291 51.7311 34.7393 51.523V41.077C34.7817 40.5002 34.9625 39.9421 35.2663 39.45V39.442Z" fill="white"/>
<path fill-rule="evenodd" clip-rule="evenodd" d="M1.36888 20.6038C1.28697 20.8584 1.23401 21.1214 1.21092 21.3878V31.8098C1.26392 32.1888 1.3169 32.2678 1.4749 32.3678L34.1079 51.2378V41.0738C34.1459 40.5993 34.2523 40.1328 34.4239 39.6888L1.36888 20.6038ZM35.2689 53.2118C35.1581 53.2113 35.0493 53.1824 34.9529 53.1278L0.788924 33.4188C0.52546 33.2531 0.312514 33.0182 0.173384 32.7397C0.0342547 32.4613 -0.0257201 32.15 -7.74688e-05 31.8398V21.3618C-0.0025398 20.6835 0.179615 20.0174 0.5269 19.4348C0.573666 19.3594 0.634981 19.294 0.707259 19.2425C0.779537 19.191 0.861355 19.1544 0.947921 19.1348C1.02703 19.1123 1.10991 19.1062 1.19145 19.117C1.27299 19.1279 1.35145 19.1554 1.42192 19.1978L35.5299 38.9098C35.6026 38.9454 35.6674 38.9954 35.7203 39.0567C35.7732 39.1181 35.8132 39.1895 35.8378 39.2667C35.8623 39.3438 35.871 39.4252 35.8633 39.5058C35.8556 39.5864 35.8317 39.6647 35.7929 39.7358C35.54 40.1475 35.3949 40.6162 35.3709 41.0988V51.5188C35.3541 51.6229 35.3648 51.7295 35.4018 51.8283C35.4388 51.927 35.5009 52.0144 35.5819 52.0818C35.7122 52.1723 35.8054 52.3069 35.8442 52.4608C35.8829 52.6146 35.8647 52.7773 35.7929 52.9188C35.7294 53.0008 35.65 53.069 35.5594 53.1193C35.4688 53.1697 35.369 53.2012 35.2659 53.2118H35.2689Z" fill="#2979E4"/>
<path fill-rule="evenodd" clip-rule="evenodd" d="M58.8994 34.6408L61.8474 32.9358V29.5308L58.8994 31.2308V34.6408Z" fill="#F2F5FC"/>
<path fill-rule="evenodd" clip-rule="evenodd" d="M59.5296 31.5902V33.5692L61.2666 32.5802V30.6052L59.5296 31.5902ZM58.8976 35.2582C58.7868 35.2579 58.678 35.2289 58.5816 35.1742C58.4917 35.1157 58.4165 35.0373 58.3617 34.945C58.3069 34.8528 58.274 34.7492 58.2656 34.6422V31.2312C58.2732 31.124 58.3058 31.0202 58.3607 30.9278C58.4155 30.8354 58.4912 30.7572 58.5816 30.6992L61.5816 28.9942C61.6684 28.9399 61.7687 28.9111 61.8711 28.9111C61.9735 28.9111 62.0738 28.9399 62.1606 28.9942C62.2583 29.0452 62.3396 29.1226 62.3954 29.2175C62.4513 29.3124 62.4794 29.4211 62.4766 29.5312V32.9362C62.4794 33.0463 62.4513 33.155 62.3954 33.2499C62.3396 33.3448 62.2583 33.4222 62.1606 33.4732L59.2126 35.1732C59.1169 35.2277 59.0078 35.2569 58.8976 35.2582Z" fill="#2979E4"/>
<path fill-rule="evenodd" clip-rule="evenodd" d="M37.739 45.1898C37.6312 45.1907 37.5252 45.1622 37.4324 45.1074C37.3395 45.0526 37.2634 44.9736 37.212 44.8788C37.1379 44.7369 37.1184 44.5726 37.1573 44.4172C37.1962 44.2618 37.2907 44.1261 37.423 44.0358L55.845 33.4038C55.987 33.3239 56.1547 33.3028 56.3121 33.345C56.4695 33.3873 56.6041 33.4895 56.687 33.6298C56.761 33.7725 56.7803 33.9373 56.7415 34.0932C56.7027 34.2491 56.6083 34.3856 56.476 34.4768L38.054 45.1038C37.9581 45.1591 37.8496 45.1887 37.739 45.1898Z" fill="#2979E4"/>
<path fill-rule="evenodd" clip-rule="evenodd" d="M37.7386 61.5592C37.6309 61.5603 37.5249 61.532 37.4321 61.4773C37.3392 61.4227 37.263 61.3439 37.2116 61.2492C37.1378 61.1073 37.1184 60.9433 37.1573 60.7881C37.1962 60.633 37.2906 60.4974 37.4226 60.4072L55.8446 49.7802C55.9856 49.6979 56.1535 49.675 56.3114 49.7165C56.4692 49.7579 56.6042 49.8603 56.6866 50.0012C56.7608 50.1438 56.7803 50.3086 56.7415 50.4646C56.7026 50.6206 56.608 50.757 56.4756 50.8482L38.0536 61.4752C37.9575 61.5296 37.8491 61.5585 37.7386 61.5592Z" fill="#2979E4"/>
<path fill-rule="evenodd" clip-rule="evenodd" d="M37.739 77.6062C37.6313 77.6071 37.5254 77.5788 37.4325 77.5242C37.3397 77.4696 37.2635 77.3908 37.212 77.2962C37.1379 77.1542 37.1184 76.9899 37.1573 76.8345C37.1962 76.6791 37.2907 76.5435 37.423 76.4532L55.845 65.8212C55.9875 65.7408 56.1559 65.72 56.3136 65.7633C56.4713 65.8066 56.6055 65.9104 56.687 66.0522C56.7609 66.194 56.7802 66.358 56.7413 66.5132C56.7024 66.6684 56.608 66.8039 56.476 66.8941L38.054 77.5211C37.958 77.5759 37.8495 77.6052 37.739 77.6062Z" fill="#2979E4"/>
</g>
<defs>
<clipPath id="clip0_710_57">
<rect width="69.268" height="85.74" fill="white"/>
</clipPath>
</defs>
</svg>
