<svg width="93" height="125" viewBox="0 0 93 125" fill="none" xmlns="http://www.w3.org/2000/svg">
<path fill-rule="evenodd" clip-rule="evenodd" d="M42.12 26.2919C22.859 37.6839 7.46992 62.5728 5.56192 85.4718C5.28492 88.7348 4.71593 95.5248 7.39193 98.1128C9.4159 99.5041 11.5169 100.78 13.685 101.934C13.1952 100.816 12.9087 99.6193 12.839 98.4007C11.279 79.4667 21.886 57.7958 33.078 44.7118C42.545 33.6408 57.178 23.0738 70.393 25.2858L67.656 23.7098C60.722 19.7938 52.1179 20.6629 42.1189 26.2919H42.12ZM16.563 104.96C16.4473 104.959 16.3334 104.931 16.2309 104.877C15.9039 104.684 15.3679 104.377 14.7099 104.009C11.8723 102.527 9.12815 100.872 6.49295 99.0538C3.35195 96.0288 3.94296 89.0948 4.25296 85.3618C6.21596 62.0698 21.843 36.7538 41.453 25.1688V25.1588C51.888 19.2918 60.935 18.4228 68.289 22.5818L76.949 27.5818C77.0241 27.6228 77.09 27.6786 77.143 27.7458C77.1959 27.8131 77.2347 27.8903 77.257 27.9729C77.2792 28.0555 77.2845 28.1418 77.2725 28.2265C77.2605 28.3113 77.2313 28.3926 77.1869 28.4658C77.1024 28.6147 76.9627 28.7243 76.798 28.7709C76.6333 28.8175 76.4569 28.7973 76.3069 28.7148C62.3449 21.0148 44.8259 32.9778 34.0589 45.5578C23.0319 58.4318 12.5969 79.7318 14.1349 98.2958C14.3569 100.983 15.2029 102.67 16.9049 103.759C17.0236 103.834 17.1146 103.946 17.1642 104.078C17.2139 104.21 17.2195 104.354 17.1803 104.489C17.1411 104.624 17.0592 104.743 16.9468 104.828C16.8344 104.912 16.6976 104.958 16.5569 104.959L16.563 104.96Z" fill="#1B69FF"/>
<path fill-rule="evenodd" clip-rule="evenodd" d="M50.4306 30.7208C60.6666 24.8208 69.9306 24.2678 76.6306 28.1438C83.3436 32.0198 87.4906 40.3258 87.4906 52.1438C87.4906 53.2998 87.4355 54.5438 87.3575 55.7378C87.0131 59.3309 85.8313 62.7932 83.9066 65.8468C82.1391 68.9002 79.6454 71.4701 76.6466 73.3287L65.0336 80.0288C63.4754 83.1675 61.5605 86.116 59.3266 88.8158C56.8353 91.9116 53.8173 94.5436 50.4116 96.5908C47.7435 98.2672 44.6494 99.1406 41.4986 99.1068C39.4044 99.0371 37.3966 98.2546 35.8076 96.8888L24.1956 103.589C21.3956 105.198 18.8376 105.441 16.9126 104.507C14.9876 103.573 13.7216 101.449 13.4846 98.3568C13.4126 97.2518 13.3516 96.0617 13.3516 94.9067C13.3736 83.0897 17.5206 69.9948 24.2336 58.3818C30.9326 46.7528 40.2116 36.6218 50.4306 30.7208Z" fill="#F1F4FB"/>
<path fill-rule="evenodd" clip-rule="evenodd" d="M66.9579 26.3034C62.0089 26.3034 56.5009 27.9785 50.7579 31.2855C40.9579 36.9375 31.7349 46.6755 24.7789 58.7025C17.8449 70.7245 14.0129 83.5814 14.0129 94.9024C14.0129 95.9804 14.0519 97.1534 14.1399 98.3024C14.3449 101.055 15.4229 103.052 17.1869 103.915C18.9869 104.783 21.3509 104.468 23.8619 103.015L35.4749 96.3155C35.5931 96.2475 35.7296 96.2178 35.8654 96.2307C36.0012 96.2436 36.1296 96.2984 36.2329 96.3875C37.7127 97.6593 39.5828 98.3867 41.5329 98.4494C44.5556 98.4652 47.5205 97.6214 50.0819 96.0164C53.4254 94.0086 56.3887 91.4271 58.8359 88.3904C61.0303 85.7273 62.9131 82.8222 64.4479 79.7315C64.5037 79.6161 64.5925 79.5196 64.7029 79.4544L76.3149 72.7545C79.2205 70.9478 81.6393 68.4568 83.3599 65.4995C85.2344 62.5401 86.3793 59.1779 86.7 55.6895C86.794 54.4725 86.8269 53.2455 86.8269 52.1335C86.8269 40.9465 83.1059 32.6245 76.3149 28.6925C73.464 27.0767 70.2345 26.2484 66.9579 26.2924V26.3034ZM19.3909 105.696C18.4326 105.707 17.4846 105.497 16.6209 105.081C14.4209 104.008 13.0819 101.63 12.8389 98.3955C12.7499 97.2125 12.7109 96.0065 12.7109 94.9005C12.7109 83.3595 16.6039 70.2705 23.6659 58.0495C30.7279 45.8285 40.1229 35.9244 50.1209 30.1574C60.2129 24.3294 69.7519 23.4115 76.9569 27.5815C84.1619 31.7515 88.1329 40.4815 88.1329 52.1445C88.1329 53.2895 88.0939 54.5445 87.9999 55.7835C87.6517 59.4764 86.4475 63.0372 84.4829 66.1834C82.6414 69.3291 80.0575 71.976 76.9569 73.8925L65.5319 80.4925C63.9693 83.6147 62.0545 86.5477 59.8249 89.2344C57.2822 92.3847 54.207 95.065 50.7389 97.1535C47.9527 98.8772 44.7361 99.7784 41.4599 99.7535C39.3819 99.67 37.3816 98.9413 35.7369 97.6685L24.5109 104.144C22.969 105.1 21.2032 105.635 19.3899 105.696H19.3909Z" fill="#1B69FF"/>
<path fill-rule="evenodd" clip-rule="evenodd" d="M72.0069 36.1627C66.4829 32.9717 58.8519 33.4257 50.4289 38.2867C42.0059 43.1477 34.3769 51.4867 28.8579 61.0527C23.3389 70.6187 19.9219 81.3917 19.9219 91.1247C19.9219 92.1307 19.9379 93.0327 20.0159 93.9947C20.0049 94.4743 20.1208 94.9484 20.3519 95.3688C20.583 95.7892 20.9211 96.141 21.3319 96.3888C21.8037 96.5658 22.3117 96.624 22.8113 96.5585C23.3109 96.4929 23.7868 96.3054 24.1969 96.0127L37.4629 88.3597V88.3767C38.5249 87.7637 39.5699 87.7638 40.1949 88.5098C40.7366 89.1641 41.4109 89.696 42.1733 90.0705C42.9358 90.4451 43.769 90.6538 44.6179 90.6827C46.671 90.6957 48.6843 90.1176 50.4179 89.0177C52.6317 87.6985 54.5951 85.9987 56.2178 83.9967C57.9638 81.8821 59.4108 79.5375 60.5179 77.0287C61.0457 75.5422 62.0511 74.2724 63.3769 73.4177L76.6599 65.7648C77.832 65.0389 78.808 64.0361 79.5019 62.8447C80.2518 61.6579 80.7103 60.3106 80.8399 58.9127C80.9169 57.8677 80.9339 56.9327 80.9339 55.9267C80.9379 46.1937 77.5259 39.3527 72.0069 36.1627Z" fill="white"/>
<path fill-rule="evenodd" clip-rule="evenodd" d="M64.0466 34.7697C59.9926 34.7697 55.4586 36.1407 50.7636 38.8507C42.7126 43.4957 35.1306 51.4976 29.4296 61.3796C23.7286 71.2616 20.5646 81.8226 20.5646 91.1246C20.5646 92.1146 20.6036 92.9997 20.6586 93.9447C20.6443 94.3124 20.7267 94.6774 20.8974 95.0034C21.0681 95.3294 21.3213 95.6049 21.6317 95.8026C22.0049 95.9286 22.4031 95.9622 22.7922 95.9005C23.1813 95.8389 23.5496 95.6838 23.8657 95.4486L37.1317 87.7957C37.1735 87.7769 37.2162 87.7601 37.2596 87.7456C37.7805 87.3792 38.416 87.2128 39.0497 87.2769C39.6833 87.341 40.2727 87.6313 40.7097 88.0946C41.1908 88.6803 41.7914 89.1565 42.4714 89.4912C43.1514 89.826 43.8951 90.0115 44.6526 90.0357C46.5768 90.0393 48.4615 89.4902 50.0826 88.4536C52.231 87.171 54.1381 85.5222 55.7177 83.5817C57.422 81.5133 58.835 79.2214 59.9176 76.7697C60.502 75.1527 61.6068 73.7756 63.0586 72.8546L76.3196 65.2007C77.3998 64.5286 78.301 63.6045 78.9457 62.5077C79.6352 61.4084 80.0558 60.162 80.1736 58.8696C80.2456 57.8406 80.2847 56.9166 80.2847 55.9276C80.2847 46.7526 77.2377 39.9407 71.6847 36.7277C69.3607 35.4082 66.7268 34.7326 64.0547 34.7706L64.0466 34.7697ZM22.2906 97.2456C21.8661 97.2496 21.4461 97.1569 21.0626 96.9746C20.5424 96.6846 20.1108 96.2588 19.8138 95.7426C19.5169 95.2263 19.3658 94.6392 19.3766 94.0437C19.2996 93.0647 19.2656 92.1437 19.2656 91.1237C19.2656 81.5957 22.4736 70.8016 28.2906 60.7236C34.1246 50.6476 41.8666 42.4746 50.1226 37.7236C58.4666 32.9066 66.3587 32.1497 72.3357 35.6057C78.3027 39.0567 81.5817 46.2727 81.5817 55.9287C81.5817 56.9517 81.5486 57.9026 81.4706 58.9586C81.3335 60.457 80.851 61.9033 80.0607 63.1837C79.2998 64.4618 78.2435 65.5389 76.9806 66.3247L63.6976 73.9837C62.5 74.762 61.5908 75.9119 61.1096 77.2567C59.9846 79.8359 58.5034 82.2447 56.7096 84.4127C55.0394 86.4728 53.0196 88.2228 50.7426 89.5826C48.8978 90.7409 46.7609 91.3491 44.5826 91.3357C43.646 91.3012 42.7274 91.069 41.8868 90.6543C41.0463 90.2396 40.303 89.6519 39.7056 88.9297C39.1526 88.2617 38.1796 88.7147 37.7976 88.9417C37.7586 88.9577 37.7206 88.9797 37.6866 88.9907L24.5316 96.5776C23.8558 96.9923 23.0832 97.2226 22.2906 97.2456Z" fill="#1B69FF"/>
<path fill-rule="evenodd" clip-rule="evenodd" d="M49.1642 81.5909C48.4637 81.5992 47.7868 81.3382 47.2732 80.8618C46.3392 79.9618 46.0133 78.3839 46.3943 76.5269C47.0353 73.3629 49.4742 70.3718 51.9352 69.7138C52.3996 69.5772 52.892 69.5662 53.3621 69.6818C53.8321 69.7974 54.2631 70.0355 54.6112 70.3719C55.1318 70.9387 55.5023 71.6269 55.6888 72.3736C55.8754 73.1203 55.872 73.9018 55.6792 74.6469C55.0152 77.8099 52.5792 80.8019 50.1212 81.4599C49.8093 81.5452 49.4875 81.5892 49.1642 81.5909Z" fill="#1B69FF"/>
<path fill-rule="evenodd" clip-rule="evenodd" d="M74.1313 60.6628C73.9879 60.6625 73.8488 60.615 73.7351 60.5276C73.6215 60.4403 73.5398 60.318 73.5027 60.1796C73.4656 60.0412 73.4751 59.8943 73.5298 59.7619C73.5845 59.6294 73.6814 59.5186 73.8053 59.4467L77.3443 57.4057C77.4928 57.3258 77.6667 57.3072 77.8289 57.3537C77.991 57.4001 78.1286 57.508 78.2123 57.6545C78.296 57.8009 78.3192 57.9743 78.277 58.1376C78.2348 58.3009 78.1306 58.4412 77.9864 58.5287L74.4473 60.5747C74.3516 60.6316 74.2425 60.6619 74.1313 60.6628Z" fill="#1B69FF"/>
<path fill-rule="evenodd" clip-rule="evenodd" d="M67.1955 45.3035C67.0808 45.3051 66.9679 45.2747 66.8696 45.2156C66.7948 45.1742 66.729 45.1182 66.6762 45.051C66.6234 44.9837 66.5846 44.9066 66.562 44.8242C66.5393 44.7417 66.5334 44.6556 66.5445 44.5709C66.5556 44.4861 66.5834 44.4045 66.6265 44.3306L69.1425 39.9896C69.1847 39.9149 69.2414 39.8495 69.3091 39.7969C69.3769 39.7444 69.4544 39.7059 69.5372 39.6835C69.62 39.6612 69.7063 39.6555 69.7913 39.6668C69.8763 39.6782 69.9582 39.7063 70.0322 39.7496C70.1062 39.7928 70.1709 39.8504 70.2225 39.9189C70.2741 39.9874 70.3116 40.0654 70.3327 40.1485C70.3539 40.2316 70.3583 40.3181 70.3458 40.4029C70.3332 40.4877 70.3039 40.5692 70.2596 40.6426L67.7486 44.9786C67.6946 45.0778 67.6144 45.1605 67.517 45.2177C67.4196 45.275 67.3085 45.3046 67.1955 45.3035Z" fill="#1B69FF"/>
<path fill-rule="evenodd" clip-rule="evenodd" d="M50.4301 46.9506C50.3453 46.9513 50.2611 46.935 50.1826 46.9026C50.1041 46.8703 50.033 46.8226 49.9732 46.7623C49.9135 46.702 49.8664 46.6303 49.8348 46.5516C49.8032 46.4728 49.7877 46.3885 49.7892 46.3036V42.2117C49.7889 42.0405 49.8559 41.876 49.9758 41.7538C50.0957 41.6317 50.259 41.5615 50.4301 41.5586C50.5167 41.5576 50.6026 41.5737 50.683 41.606C50.7633 41.6383 50.8363 41.6862 50.898 41.7469C50.9598 41.8076 51.0089 41.8799 51.0426 41.9596C51.0762 42.0394 51.0937 42.1251 51.0941 42.2117V46.3036C51.0936 46.3899 51.076 46.4752 51.0422 46.5546C51.0084 46.634 50.9592 46.7058 50.8974 46.766C50.8357 46.8262 50.7626 46.8736 50.6823 46.9053C50.6021 46.937 50.5164 46.9523 50.4301 46.9506Z" fill="#1B69FF"/>
<path fill-rule="evenodd" clip-rule="evenodd" d="M33.6637 64.642C33.5476 64.6388 33.4339 64.6083 33.3317 64.553L30.8377 63.1039C30.7636 63.0619 30.6985 63.0055 30.6464 62.9381C30.5942 62.8706 30.556 62.7936 30.5338 62.7112C30.5117 62.6289 30.5061 62.5431 30.5174 62.4586C30.5287 62.3741 30.5567 62.2927 30.5997 62.2191C30.6409 62.1448 30.6966 62.0795 30.7635 62.0272C30.8304 61.9749 30.9071 61.9366 30.9891 61.9145C31.0711 61.8924 31.1566 61.8869 31.2407 61.8985C31.3249 61.9101 31.4058 61.9385 31.4787 61.982L33.9898 63.43C34.0645 63.4715 34.1302 63.5275 34.183 63.5947C34.2358 63.6619 34.2747 63.7389 34.2974 63.8214C34.32 63.9038 34.3259 63.99 34.3148 64.0748C34.3037 64.1595 34.2758 64.2412 34.2327 64.315C34.1734 64.4133 34.09 64.4949 33.9905 64.5521C33.891 64.6093 33.7785 64.6402 33.6637 64.642Z" fill="#1B69FF"/>
<path fill-rule="evenodd" clip-rule="evenodd" d="M23.1697 90.0461C23.0579 90.0473 22.948 90.018 22.8517 89.9614C22.7553 89.9049 22.6762 89.8232 22.6227 89.7251C22.5363 89.5756 22.5127 89.3979 22.5571 89.2311C22.6015 89.0642 22.7104 88.9218 22.8597 88.8351L26.3987 86.7881C26.4724 86.7462 26.5537 86.7194 26.6379 86.709C26.7221 86.6986 26.8075 86.7049 26.8893 86.7275C26.971 86.7502 27.0475 86.7888 27.1143 86.841C27.1811 86.8933 27.237 86.9582 27.2787 87.0321C27.3225 87.1054 27.3511 87.1867 27.3628 87.2713C27.3746 87.3559 27.3692 87.442 27.347 87.5245C27.3248 87.607 27.2862 87.6842 27.2336 87.7514C27.1809 87.8187 27.1153 87.8747 27.0406 87.9161L23.5016 89.9621C23.3991 90.0159 23.2854 90.0447 23.1697 90.0461Z" fill="#1B69FF"/>
<path fill-rule="evenodd" clip-rule="evenodd" d="M54.487 71.847C54.3411 71.8472 54.1997 71.7967 54.087 71.7041C54.0192 71.6513 53.9627 71.5855 53.9204 71.5107C53.8781 71.4359 53.851 71.3535 53.8407 71.2682C53.8303 71.1829 53.837 71.0963 53.8602 71.0135C53.8834 70.9308 53.9228 70.8535 53.976 70.786L72.981 47.2621C73.0336 47.1923 73.0997 47.1339 73.1754 47.0902C73.251 47.0465 73.3347 47.0185 73.4213 47.0078C73.508 46.9971 73.5959 47.004 73.6799 47.0281C73.7639 47.0521 73.8422 47.0928 73.9101 47.1477C73.978 47.2026 74.0342 47.2706 74.0753 47.3476C74.1164 47.4247 74.1416 47.5093 74.1494 47.5963C74.1571 47.6833 74.1472 47.7709 74.1203 47.854C74.0935 47.9371 74.0502 48.014 73.993 48.0801L54.987 71.6041C54.9278 71.6801 54.8519 71.7414 54.7652 71.7836C54.6786 71.8257 54.5834 71.8474 54.487 71.847Z" fill="#1B69FF"/>
</svg>
