<svg width="102" height="125" viewBox="0 0 102 125" fill="none" xmlns="http://www.w3.org/2000/svg">
<path d="M9.48511 106.432V59.0846L2.66016 55.1436V102.492C2.66016 102.57 2.66016 102.632 2.66016 102.709C2.70816 105.38 3.68421 108.399 6.09021 109.889C6.13121 109.915 6.17211 109.939 6.21411 109.964L13.0402 113.904L9.48511 106.432Z" fill="#F2F5FC"/>
<path d="M14.556 115.544L5.74707 110.455C3.46107 109.039 2.061 106.148 2 102.721V53.9937L10.1521 58.6996V106.281L14.556 115.544ZM3.32507 56.2936V102.694C3.37907 105.668 4.54404 108.147 6.44104 109.322L6.552 109.389L11.5271 112.261L8.82703 106.579V59.4667L3.32507 56.2936Z" fill="#1B69FF"/>
<path d="M62.2869 15.2232C65.5319 13.3492 68.4719 13.1772 70.5939 14.4102L63.7688 10.4692C61.6468 9.23621 58.7298 9.36916 55.4838 11.2422L14.2578 35.0592L21.0839 38.9992L62.2869 15.2232Z" fill="#1B69FF"/>
<path d="M21.0856 39.7719L12.9336 35.0659L55.1536 10.6739C58.4796 8.75391 61.6535 8.48088 64.1025 9.90188L70.9026 13.8249L70.9326 13.8419L70.2676 14.9889L70.2416 14.9739C68.2416 13.8269 65.5416 14.1209 62.6246 15.8019L21.0856 39.7719ZM15.5856 35.0659L21.0856 38.2409L61.9565 14.6539C63.4322 13.7556 65.0853 13.1882 66.8016 12.9909L63.4386 11.0499C61.4196 9.87689 58.7136 10.1499 55.8167 11.8229L15.5856 35.0659Z" fill="#1B69FF"/>
<path d="M9.48425 59.0859L21.0782 39.004L14.2522 35.064C13.5039 35.4939 12.7885 35.9789 12.1122 36.515C12.0742 36.545 12.0392 36.5809 12.0022 36.6149C7.41186 40.4688 4.25914 45.7613 3.05615 51.6329C2.81081 52.7898 2.67696 53.9675 2.65625 55.15L9.48425 59.0859Z" fill="#1B69FF"/>
<path d="M9.7301 59.9897L2 55.5267V55.1448C2.01796 53.9194 2.155 52.6986 2.40906 51.4998C3.65082 45.4784 6.88475 40.051 11.5891 36.0928C11.6421 36.0448 11.6731 36.0157 11.7061 35.9927C12.4075 35.4384 13.1492 34.9371 13.925 34.4927L14.2561 34.3018L21.988 38.7657L9.7301 59.9897ZM3.33008 54.7637L9.24402 58.1788L20.175 39.2457L14.259 35.8307C13.6572 36.1936 13.079 36.5945 12.5281 37.0308C12.4801 37.0758 12.45 37.1017 12.42 37.1257C7.95575 40.8837 4.88776 46.0362 3.71106 51.7518C3.50449 52.7441 3.37644 53.7512 3.33008 54.7637Z" fill="#1B69FF"/>
<path d="M62.2849 15.2228L21.085 39.0008C15.525 42.2108 10.8769 49.4188 9.75391 56.0808L73.71 19.1718C72.553 13.8228 67.8739 11.9968 62.2849 15.2228Z" fill="white"/>
<path d="M8.86328 57.3589L9.09729 55.9709C10.2683 49.0279 15.1692 41.6489 20.7502 38.4269L61.9503 14.6489C64.9983 12.8899 67.9673 12.4909 70.3073 13.5289C71.3726 14.0549 72.296 14.829 72.9999 15.7861C73.7038 16.7432 74.1676 17.8553 74.3523 19.0289L74.4523 19.5019L8.86328 57.3589ZM67.5203 14.2879C65.7836 14.3571 64.0949 14.8772 62.6202 15.7969L21.4203 39.5749C16.5293 42.3979 12.1892 48.6219 10.7032 54.7689L72.9532 18.8449C72.7734 17.9641 72.3937 17.1364 71.8434 16.4255C71.2931 15.7147 70.5869 15.1397 69.7793 14.7449C69.0662 14.4351 68.2957 14.2793 67.5183 14.2879H67.5203Z" fill="#1B69FF"/>
<path d="M9.48438 106.434C9.50537 113.834 14.8694 116.844 21.2844 113.144L62.4965 89.3499C68.9375 85.6309 74.0074 76.6158 73.9874 69.2148V21.8558C73.9889 20.9542 73.8953 20.0549 73.7084 19.1729L9.75244 56.0818C9.58023 57.0726 9.49219 58.0762 9.48938 59.0818L9.48438 106.434Z" fill="white"/>
<path d="M16.0663 115.397C14.859 115.41 13.6698 115.103 12.6202 114.506C10.1802 113.106 8.83131 110.235 8.82031 106.434V59.084C8.82315 58.0409 8.91411 56.9999 9.09229 55.972L9.14429 55.663L9.41528 55.507L74.1593 18.1431L74.3513 19.033C74.5475 19.9605 74.646 20.906 74.6453 21.8541V69.212C74.6673 76.854 69.3633 86.1461 62.8223 89.9221L21.6102 113.716C19.9408 114.751 18.0294 115.331 16.0663 115.397ZM10.1472 106.431C10.1562 109.739 11.2702 112.198 13.2822 113.357C15.3172 114.528 18.0393 114.248 20.9473 112.569L62.1593 88.775C68.3323 85.21 73.3382 76.436 73.3182 69.215V21.856C73.3176 21.3096 73.2819 20.7639 73.2113 20.222L10.3513 56.498C10.2165 57.3525 10.1479 58.2161 10.1462 59.0811L10.1472 106.431Z" fill="#1B69FF"/>
<path d="M33.0257 80.1867L32.0457 80.1017L33.0217 78.8957C33.1356 78.7793 33.2137 78.6325 33.2467 78.473C33.2796 78.3135 33.2661 78.1478 33.2077 77.9957C33.1137 77.8617 32.9437 77.8577 32.7687 77.9587C32.6724 78.0165 32.587 78.091 32.5167 78.1787L31.5407 79.3927V78.1007C31.5407 77.7797 31.3157 77.6437 31.0407 77.8007C30.8943 77.897 30.7726 78.0266 30.6857 78.1788C30.5989 78.331 30.5492 78.5017 30.5407 78.6767V79.9687L29.5617 79.8837C29.4727 79.8831 29.3854 79.9077 29.3098 79.9547C29.108 80.083 28.954 80.2742 28.8717 80.4987C28.7327 80.8527 28.8177 81.1647 29.0557 81.1887L30.0357 81.2667L29.0598 82.4807C28.9472 82.598 28.8704 82.745 28.8387 82.9045C28.807 83.064 28.8215 83.2293 28.8807 83.3807C28.9727 83.5137 29.1467 83.5157 29.3217 83.4157C29.4187 83.357 29.5038 83.2808 29.5727 83.1907L30.5487 81.9847V83.2767C30.5487 83.5977 30.7737 83.7247 31.0487 83.5637C31.1948 83.4689 31.3163 83.3408 31.4033 83.1899C31.4902 83.039 31.54 82.8696 31.5487 82.6957V81.4037L32.5277 81.4807C32.6165 81.4871 32.7051 81.4643 32.7797 81.4157C32.9801 81.286 33.1338 81.0958 33.2187 80.8727C33.3547 80.5117 33.2707 80.2067 33.0257 80.1867Z" fill="#1B69FF"/>
<path d="M40.0264 76.1466L39.0533 76.0566L40.0225 74.8566C40.1362 74.7401 40.2142 74.5934 40.2472 74.4339C40.2801 74.2744 40.2666 74.1087 40.2084 73.9566C40.1144 73.8226 39.9444 73.8177 39.7684 73.9197C39.6722 73.9777 39.5869 74.0522 39.5163 74.1396L38.5404 75.3536V74.0616C38.5404 73.7406 38.3154 73.6046 38.0404 73.7616C37.894 73.858 37.7723 73.9875 37.6854 74.1397C37.5985 74.292 37.5489 74.4625 37.5404 74.6376V75.9296L36.5614 75.8436C36.4724 75.8429 36.385 75.8675 36.3094 75.9146C36.1076 76.0433 35.9536 76.2348 35.8715 76.4596C35.7325 76.8126 35.8174 77.1256 36.0624 77.1446L37.0354 77.2266L36.0664 78.4366C35.9522 78.5529 35.8739 78.6996 35.8409 78.8592C35.8079 79.0188 35.8216 79.1846 35.8804 79.3366C35.9352 79.3979 36.0115 79.4356 36.0934 79.4421C36.1753 79.4486 36.2566 79.4234 36.3204 79.3716C36.4178 79.3135 36.503 79.2371 36.5714 79.1466L37.5474 77.9396V79.2316C37.5474 79.5526 37.7724 79.6806 38.0474 79.5196C38.1935 79.4249 38.315 79.2968 38.402 79.1459C38.4889 78.9949 38.5387 78.8256 38.5474 78.6516V77.3596L39.5273 77.4376C39.6161 77.4428 39.7043 77.4201 39.7794 77.3726C39.9799 77.2431 40.1337 77.0528 40.2184 76.8296C40.3564 76.4706 40.2704 76.1666 40.0264 76.1466Z" fill="#1B69FF"/>
<path d="M65.2756 54.8955L24.7656 78.2845L24.7997 90.3135L65.3097 66.9245L65.2756 54.8955ZM25.5757 88.9745L25.5466 78.7275L64.4996 56.2375L64.5287 66.4845L25.5757 88.9745Z" fill="#1B69FF"/>
<path d="M47.0293 72.1035L46.0494 72.0175L47.0253 70.8115C47.138 70.6943 47.2147 70.5473 47.2466 70.3878C47.2785 70.2284 47.2643 70.0631 47.2054 69.9115C47.1104 69.7765 46.9403 69.7735 46.7653 69.8745C46.6689 69.9323 46.5836 70.0069 46.5134 70.0946L45.5444 71.3045V70.0125C45.5444 69.6915 45.3124 69.5595 45.0334 69.7205C44.8869 69.8169 44.7653 69.9464 44.6784 70.0987C44.5915 70.2509 44.5419 70.4214 44.5334 70.5965V71.8886L43.5533 71.8025C43.4653 71.8007 43.3789 71.8247 43.3044 71.8715C43.103 71.9987 42.9498 72.1894 42.8693 72.4135C42.7303 72.7675 42.8083 73.0836 43.0533 73.1026L44.0323 73.1806L43.0563 74.3946C42.9422 74.5109 42.8645 74.658 42.8327 74.8179C42.8009 74.9777 42.8165 75.1433 42.8774 75.2945C42.9684 75.4265 43.1373 75.4345 43.3113 75.3335C43.4093 75.2754 43.4949 75.1987 43.5633 75.1076L44.5394 73.9016V75.1936C44.5394 75.5146 44.7644 75.6425 45.0394 75.4815C45.1867 75.3865 45.3096 75.2579 45.3979 75.1064C45.4862 74.9549 45.5373 74.7846 45.5473 74.6095V73.3175L46.5193 73.3996C46.608 73.4054 46.6962 73.383 46.7713 73.3355C46.9727 73.207 47.1269 73.0164 47.2104 72.7926C47.3514 72.4316 47.2663 72.1265 47.0293 72.1035Z" fill="#1B69FF"/>
<path d="M54.0234 68.0635L53.0444 67.9775L54.0205 66.7715C54.1331 66.6542 54.2097 66.5072 54.2414 66.3477C54.2732 66.1882 54.2586 66.023 54.1995 65.8715C54.1045 65.7365 53.9345 65.7335 53.7615 65.8325C53.6668 65.8895 53.5831 65.963 53.5144 66.0495L52.5384 67.2635V65.9715C52.5384 65.6505 52.3065 65.5185 52.0265 65.6795C51.8808 65.7767 51.7598 65.9064 51.673 66.0585C51.5862 66.2105 51.5361 66.3807 51.5265 66.5555V67.8475L50.5475 67.7625C50.4602 67.7601 50.3741 67.7837 50.3004 67.8305C50.0993 67.9589 49.9458 68.1496 49.8634 68.3735C49.7254 68.7275 49.8095 69.0395 50.0475 69.0635L51.0275 69.1415L50.0514 70.3555C49.9386 70.4727 49.8618 70.6198 49.8301 70.7793C49.7983 70.9388 49.813 71.1041 49.8724 71.2555C49.9634 71.3885 50.1314 71.3955 50.3064 71.2945C50.4042 71.2366 50.4896 71.1597 50.5575 71.0685L51.5334 69.8625V71.1545C51.5334 71.4755 51.7654 71.5995 52.0334 71.4415C52.1806 71.3464 52.3032 71.2178 52.3913 71.0662C52.4795 70.9147 52.5305 70.7445 52.5404 70.5695V69.2775L53.5205 69.3555C53.6091 69.3632 53.6977 69.3403 53.7715 69.2905C53.9707 69.1632 54.1226 68.9738 54.2035 68.7515C54.3465 68.3915 54.2614 68.0865 54.0234 68.0635Z" fill="#1B69FF"/>
<path d="M61.0199 64.0226L60.0409 63.9366L61.0168 62.7306C61.1293 62.6132 61.2063 62.4665 61.2392 62.3073C61.2721 62.1482 61.2595 61.9829 61.2029 61.8306C61.1089 61.6956 60.9378 61.6916 60.7628 61.7936C60.6664 61.8514 60.5811 61.9259 60.5108 62.0136L59.5348 63.2276V61.9356C59.5348 61.6146 59.3098 61.4787 59.0348 61.6357C58.8871 61.7323 58.7642 61.8623 58.676 62.0151C58.5878 62.168 58.5367 62.3394 58.5268 62.5156V63.8077L57.5538 63.7176C57.4647 63.7176 57.3775 63.7425 57.3019 63.7896C57.1003 63.9182 56.9464 64.1093 56.8639 64.3337C56.7249 64.6877 56.8098 64.9997 57.0478 65.0237L58.0278 65.1017L57.0519 66.3157C56.9393 66.4329 56.8625 66.58 56.8308 66.7395C56.7991 66.899 56.8136 67.0642 56.8728 67.2156C56.9638 67.3476 57.1398 67.3516 57.3138 67.2506C57.4109 67.1921 57.496 67.1158 57.5648 67.0256L58.5338 65.8257V67.1166C58.5338 67.4376 58.7658 67.5616 59.0448 67.4006C59.1909 67.3058 59.3125 67.1777 59.3994 67.0268C59.4863 66.8759 59.5361 66.7066 59.5448 66.5326V65.2406L60.5238 65.3186C60.6126 65.3249 60.7011 65.3021 60.7759 65.2536C60.9763 65.124 61.13 64.9337 61.2148 64.7106C61.3458 64.3516 61.2689 64.0426 61.0199 64.0226Z" fill="#1B69FF"/>
<path d="M85.7894 90.5275L85.8065 96.4064L74.0405 89.5684L74.0234 83.6895L85.7894 90.5275Z" fill="white"/>
<path d="M86.4714 97.5616L73.3774 89.9517L73.3555 82.5356L86.4554 90.1456L86.4714 97.5616ZM74.7014 89.1876L85.1394 95.2537L85.1274 90.9106L74.6904 84.8456L74.7014 89.1876Z" fill="#1B69FF"/>
<path d="M74.0408 89.5698L85.8068 96.4078L79.9857 99.7689L68.2188 92.9308L74.0408 89.5698Z" fill="white"/>
<path d="M79.9835 100.535L66.8945 92.9287L74.0405 88.8037L87.1276 96.4097L79.9835 100.535ZM69.5415 92.9347L79.9855 99.0047L84.4855 96.4047L74.0415 90.3347L69.5415 92.9347Z" fill="#1B69FF"/>
<path d="M73.8828 77.6006L85.9598 84.2876C88.0248 85.4876 87.2438 88.8626 85.8148 90.4756C85.8042 90.4908 85.7954 90.5072 85.7888 90.5246L74.0228 83.6866C74.1048 83.7376 74.8218 78.1496 73.8828 77.6006Z" fill="white"/>
<path d="M86.0454 91.4449L85.4535 91.1009L73.6885 84.2639L74.0205 83.6889L73.7665 83.0779C73.6796 83.1135 73.6016 83.1678 73.538 83.2369C73.4744 83.3061 73.4267 83.3883 73.3984 83.4778C73.5834 82.7688 73.9164 78.7249 73.4814 78.1259C73.5001 78.1476 73.5225 78.1659 73.5475 78.1799L74.2014 77.0269L86.2865 83.7179C86.7043 83.9636 87.0602 84.3019 87.3268 84.7067C87.5934 85.1115 87.7637 85.572 87.8245 86.0529C87.9194 86.9116 87.8385 87.7807 87.587 88.6072C87.3355 89.4338 86.9186 90.2006 86.3615 90.8609L86.0454 91.4449ZM74.7455 83.3448L85.6115 89.6589C86.3068 88.6689 86.626 87.4632 86.5115 86.2589C86.4813 85.9725 86.3852 85.697 86.2306 85.4541C86.076 85.2112 85.8671 85.0075 85.6205 84.8589L74.9855 78.9709C75.0747 80.4335 74.9951 81.9015 74.7484 83.3459L74.7455 83.3448Z" fill="#1B69FF"/>
<path d="M66.1094 94.0306C65.8794 93.8976 98.7864 69.0866 98.9844 69.2016L87.2184 62.3636C86.7122 62.1463 86.1593 62.0605 85.611 62.1142C85.0628 62.1679 84.5369 62.3592 84.0825 62.6706L61.3505 75.7936C57.6755 77.9156 53.8605 80.3566 53.7155 85.1196C53.7155 85.1866 53.7155 85.2536 53.7155 85.3196V104.681C53.6672 105.225 53.7605 105.772 53.9864 106.27C54.2123 106.767 54.563 107.198 55.0045 107.52L66.7704 114.358C65.9554 113.885 65.5985 98.4576 65.5065 93.6066L66.1094 94.0306Z" fill="#1B69FF"/>
<path d="M66.4356 114.932H66.4266L54.6696 108.1C54.1201 107.727 53.6802 107.214 53.3953 106.615C53.1105 106.015 52.9912 105.35 53.0496 104.689V85.2607C53.0496 85.2087 53.0496 85.1607 53.0496 85.1037C53.2006 80.1367 56.9036 77.5947 61.0156 75.2207L83.7465 62.0967C84.3015 61.7266 84.9419 61.5042 85.6069 61.4506C86.2718 61.3971 86.9395 61.5141 87.5466 61.7907L87.8765 61.9817L99.3116 68.6267L98.6456 69.7737C98.7385 69.8284 98.8435 69.859 98.9512 69.8629C99.059 69.8667 99.1661 69.8436 99.2626 69.7957C97.8626 70.5867 67.6446 93.4027 66.6036 94.4547C66.6655 94.3853 66.7115 94.3033 66.7385 94.2144C66.7654 94.1254 66.7726 94.0317 66.7596 93.9397L66.1725 94.0177C66.3925 105.261 66.8205 113.064 67.2725 113.944C67.2311 113.876 67.1725 113.82 67.1026 113.783L66.4356 114.932ZM86.0826 62.7427C85.4929 62.7671 84.9187 62.939 84.4125 63.2427L61.6796 76.3677C57.7606 78.6307 54.5056 80.8527 54.3796 85.1397V104.681C54.3401 105.108 54.4069 105.539 54.5743 105.934C54.7416 106.329 55.0042 106.677 55.3386 106.946L65.7576 113.001C65.4186 110.701 65.0715 105.53 64.8445 93.6197L64.8196 92.3137L66.0696 93.1917C67.1816 92.2647 70.7116 89.4997 82.1906 80.8397C86.4266 77.6397 90.4115 74.6547 93.4125 72.4237C95.6125 70.7867 96.9286 69.8107 97.7416 69.2457L88.7236 64.0047C87.7316 63.4277 87.1926 63.1157 86.9016 62.9047L86.8856 62.9317C86.6393 62.7987 86.3623 62.7335 86.0826 62.7427Z" fill="#1B69FF"/>
<path d="M69.8264 84.5337L95.8503 69.5086C98.2853 68.1026 100.268 69.2326 100.276 72.0406V91.4016C100.207 92.9255 99.7779 94.4112 99.0231 95.7367C98.2683 97.0623 97.2097 98.1898 95.9343 99.0266L69.9104 114.052C67.4754 115.458 65.4924 114.328 65.4844 111.52V92.1596C65.5531 90.6356 65.9825 89.1497 66.7373 87.8239C67.4921 86.4982 68.5509 85.3705 69.8264 84.5337ZM79.9703 93.8896V99.7686L85.8093 96.4076L85.7924 90.5287C86.4114 89.4349 86.7546 88.2068 86.7924 86.9506C86.7854 84.4636 85.0244 83.4696 82.8604 84.7196C81.7221 85.4576 80.7747 86.4546 80.0958 87.6291C79.4169 88.8035 79.0258 90.122 78.9543 91.4766C78.9143 91.9312 78.9859 92.3887 79.163 92.8092C79.34 93.2298 79.6172 93.6006 79.9703 93.8896Z" fill="white"/>
<path d="M67.9294 115.321C67.4104 115.326 66.8994 115.194 66.4484 114.936C65.896 114.565 65.4532 114.052 65.1667 113.451C64.8801 112.85 64.7602 112.184 64.8194 111.52V92.1594C64.8854 90.5184 65.3443 88.9173 66.1574 87.4904C66.9706 86.0635 68.1142 84.8526 69.4924 83.9594L95.5174 68.9345C96.0408 68.505 96.6823 68.2447 97.357 68.188C98.0317 68.1313 98.7078 68.281 99.2955 68.6171C99.8832 68.9533 100.355 69.46 100.648 70.0703C100.941 70.6806 101.042 71.3655 100.937 72.0344V91.4014C100.872 93.0425 100.413 94.6438 99.5992 96.0707C98.7859 97.4977 97.6419 98.7085 96.2634 99.6014L70.2394 114.621C69.5439 115.053 68.7474 115.294 67.9294 115.321ZM70.1553 85.1074C68.9792 85.8837 68.003 86.9268 67.3062 88.1517C66.6094 89.3766 66.2117 90.7488 66.1455 92.1564V111.521C66.0385 111.955 66.0759 112.412 66.252 112.822C66.4282 113.233 66.7335 113.575 67.1215 113.796C67.5096 114.018 67.9593 114.106 68.4023 114.049C68.8453 113.992 69.2575 113.791 69.5764 113.478L95.6004 98.4534C96.7766 97.6772 97.7529 96.6342 98.4498 95.4092C99.1466 94.1843 99.5443 92.8121 99.6104 91.4044V72.0404C99.7174 71.6067 99.6799 71.1499 99.5037 70.7394C99.3276 70.3289 99.0223 69.987 98.6342 69.7657C98.2462 69.5444 97.7966 69.4557 97.3536 69.513C96.9106 69.5703 96.4983 69.7706 96.1794 70.0834L70.1553 85.1074ZM79.3044 100.915V94.2055C78.9558 93.8453 78.6855 93.417 78.5104 92.9473C78.3354 92.4777 78.2595 91.9769 78.2874 91.4764C78.3554 90.0042 78.7758 88.5698 79.5133 87.2938C80.2507 86.0177 81.2836 84.9374 82.5253 84.1434C83.0224 83.7925 83.6046 83.5814 84.2111 83.5322C84.8176 83.4829 85.4263 83.5973 85.9735 83.8635C86.4737 84.1978 86.8749 84.6604 87.1351 85.2029C87.3953 85.7455 87.5048 86.348 87.4523 86.9475C87.4182 88.2567 87.0755 89.5394 86.4523 90.6914L86.4694 96.7914L79.3044 100.915ZM84.6224 84.8435C84.1137 84.8671 83.6198 85.0217 83.1884 85.2924C82.1481 85.9684 81.2821 86.8805 80.6608 87.9544C80.0396 89.0282 79.6807 90.2336 79.6133 91.4724C79.5775 91.82 79.6251 92.171 79.7523 92.4965C79.8794 92.8219 80.0825 93.1123 80.3444 93.3435L80.6304 93.5435V98.6234L85.1414 96.0234L85.1254 90.3604L85.2054 90.2125C85.7717 89.2157 86.0875 88.0962 86.1254 86.9504C86.1701 86.5845 86.1184 86.2133 85.9757 85.8734C85.8329 85.5335 85.6039 85.2368 85.3113 85.0125C85.1007 84.897 84.8635 84.8391 84.6234 84.8444L84.6224 84.8435Z" fill="#1B69FF"/>
<path d="M73.6233 57.6738L78.1372 55.0679C82.2752 52.6789 85.6492 54.6019 85.6632 59.3479V69.7368L81.0703 72.3999V62.0098C81.0653 60.1858 79.7472 59.4458 78.1522 60.3668L73.6383 62.9738C72.8021 63.5191 72.1066 64.2545 71.6087 65.1198C71.1108 65.9851 70.8246 66.9558 70.7733 67.9528V78.3449L66.1463 81.0078V70.6159C66.0563 63.1299 69.4853 60.0628 73.6233 57.6738Z" fill="#F2F5FC"/>
<path d="M65.4824 82.1537V70.6147C65.3824 62.7547 69.1824 59.4728 73.2904 57.0988L77.8044 54.4918C80.0264 53.2088 82.1535 53.0218 83.7915 53.9648C85.4295 54.9078 86.3174 56.8118 86.3244 59.3448V70.1208L80.4055 73.5527V62.0098C80.4342 61.7715 80.4016 61.5298 80.311 61.3076C80.2204 61.0854 80.0746 60.89 79.8874 60.7397C79.6561 60.6527 79.4066 60.6254 79.1618 60.6603C78.9171 60.6953 78.6851 60.7914 78.4874 60.9398L73.9735 63.5468C73.2395 64.0341 72.6285 64.6852 72.1888 65.4487C71.7491 66.2122 71.4926 67.0673 71.4394 67.9468V78.7238L65.4824 82.1537ZM73.9535 58.2477C70.4535 60.2717 66.7174 63.0618 66.8084 70.6068V79.8597L70.1085 77.9598V67.9528C70.1585 66.8386 70.4751 65.7527 71.032 64.7864C71.5888 63.8201 72.3695 63.0017 73.3084 62.3998L77.8235 59.7938C78.2197 59.5213 78.6813 59.3592 79.1609 59.324C79.6404 59.2889 80.1207 59.382 80.5525 59.5937C80.9489 59.8529 81.268 60.2143 81.4762 60.6396C81.6844 61.065 81.774 61.5387 81.7355 62.0107V71.2538L85.0014 69.3597V59.3497C84.9964 57.3117 84.3324 55.8077 83.1334 55.1177C81.9344 54.4277 80.2664 54.6078 78.4714 55.6448L73.9535 58.2477Z" fill="#1B69FF"/>
<path d="M46.3306 42.1398C46.3156 42.1398 46.3158 42.1568 46.3158 42.1398C44.5688 43.2078 42.9507 46.5398 42.7157 49.5638C42.5027 52.5868 43.7158 54.1637 45.4458 53.1467C45.4618 53.1467 45.4627 53.1318 45.4777 53.1318C47.2237 52.0638 48.8427 48.7318 49.0777 45.7078C49.2907 42.7008 48.0776 41.1017 46.3306 42.1417" fill="#1B69FF"/>
<path d="M45.2525 54.9098C45.2375 54.9268 45.2205 54.9258 45.2205 54.9428H45.2025C43.8838 55.8553 42.7933 57.0595 42.0154 58.4618C40.6631 60.7312 39.8012 63.2589 39.4854 65.8818C39.4607 66.0531 39.4431 66.2248 39.4324 66.3968L39.3945 66.8968C39.3675 67.1628 39.4855 67.2968 39.6595 67.1968L49.6094 61.1698C49.8053 60.9964 49.9272 60.7544 49.9495 60.4938C50.3225 55.6388 48.2225 53.1478 45.2495 54.9108" fill="#1B69FF"/>
</svg>
