<svg width="81" height="99" viewBox="0 0 81 99" fill="none" xmlns="http://www.w3.org/2000/svg">
<path fill-rule="evenodd" clip-rule="evenodd" d="M25.7893 91.2563C22.4936 93.1761 19.4969 93.3568 17.3386 92.0951L17.2781 92.0895L4.99056 84.9196C4.29756 84.5039 3.68765 83.9617 3.19239 83.3206C1.27399 80.7315 1.2143 76.8143 1.75467 73.7603C3.00846 67.5477 6.30169 61.9405 11.1044 57.8411L11.644 57.4245C11.7635 56.7537 11.8242 56.128 11.9438 55.4627C13.5625 45.9144 20.1552 35.2137 28.6067 30.2954C31.9032 28.3645 36.1576 27.0664 39.8151 28.69L40.236 28.865L42.753 30.3556C45.0898 28.2964 48.2084 26.3425 51.3845 26.3956C52.1658 26.4056 52.9389 26.5588 53.6656 26.8478L54.0251 26.9991L59.3595 30.1251L59.9588 30.0102C61.2027 29.7701 62.4883 29.8797 63.6744 30.3271L64.0945 30.5084L76.4434 37.6839C78.781 38.8553 80.2794 41.6312 80.2794 45.6744C80.2794 53.3639 74.9442 62.7127 68.2915 66.5515L25.7893 91.2563Z" fill="#F1F4FB"/>
<path fill-rule="evenodd" clip-rule="evenodd" d="M36.2238 28.6564C33.6545 28.7722 31.1577 29.5493 28.9718 30.9136C21.0606 35.531 14.3476 45.6773 12.6116 55.5876C12.5527 56.2387 12.4323 56.8484 12.3756 57.5002C12.3597 57.6879 12.2736 57.8626 12.1348 57.989L11.5954 58.4056C6.89289 62.3649 3.67825 67.8259 2.48631 73.8804C2.18585 75.6545 1.64708 80.0786 3.80459 82.8973C4.22284 83.4717 4.753 83.9541 5.36272 84.315L17.6503 91.4731C19.6883 92.6611 22.4483 92.3665 25.4427 90.6407L67.9392 65.943C74.3527 62.2253 79.5677 53.1355 79.5677 45.682C79.5677 42.0974 78.3092 39.411 76.1509 38.3252L63.4442 30.9857C62.3701 30.5925 61.2105 30.4986 60.0879 30.7141L59.5475 30.8226C59.3834 30.8611 59.211 30.8326 59.0678 30.7434L53.3732 27.4962C52.7441 27.243 52.0731 27.1118 51.3956 27.1097C47.9789 27.0431 44.8625 29.4516 43.2438 30.8883C43.1404 30.9856 43.0082 31.046 42.8674 31.0603C42.7266 31.0746 42.585 31.042 42.4644 30.9675L39.5275 29.332C38.4871 28.8772 37.3635 28.6468 36.2294 28.6557L36.2238 28.6564ZM20.4607 93.6163C19.2426 93.632 18.0424 93.3194 16.9847 92.711L4.63589 85.5291C3.86357 85.0794 3.19054 84.4757 2.65779 83.7551C0.200602 80.4833 0.740212 75.5824 1.09967 73.6333C2.35407 67.2461 5.73728 61.4819 10.6892 57.2952L10.989 57.0472C11.0496 56.4683 11.169 55.9242 11.2248 55.3453C13.0229 45.0493 20.0343 34.499 28.2475 29.6892C30.7054 28.2168 35.6205 26.0555 40.1156 28.0418L40.5358 28.228L42.6933 29.4896C44.5519 27.9262 47.7885 25.688 51.2666 25.688C51.3264 25.688 51.3264 25.6936 51.387 25.6936C52.2689 25.7026 53.1421 25.8724 53.9639 26.1949L54.3233 26.3572L59.4791 29.3812L59.8386 29.3209C61.2235 29.0526 62.6549 29.1763 63.9742 29.6782L64.3943 29.865L76.8013 37.0777C79.4394 38.3932 80.9976 41.5312 80.9976 45.6837C80.9976 53.591 75.4839 63.2288 68.6487 67.1761L26.152 91.8731C24.4379 92.9429 22.4761 93.5444 20.4607 93.6163Z" fill="#1B69FF"/>
<path fill-rule="evenodd" clip-rule="evenodd" d="M25.7927 91.2562C19.199 95.095 13.8047 91.9745 13.8047 84.2866C13.8047 77.3043 18.2409 68.9566 23.9945 64.6054C25.0737 54.2246 32.2667 42.5212 40.9573 37.4762C46.6511 34.1324 51.7466 34.4888 54.8629 37.7716C55.9059 36.7974 57.0519 35.9414 58.2804 35.219C63.5543 32.1659 67.9896 33.5178 69.6067 38.056C75.6003 35.3038 80.2755 38.4971 80.2755 45.6845C80.2755 53.374 74.9403 62.7228 68.2877 66.5616L25.7927 91.2562Z" fill="white"/>
<path fill-rule="evenodd" clip-rule="evenodd" d="M48.5734 35.8575C46.0029 35.9463 43.5011 36.7164 41.3207 38.0902C32.9297 42.961 25.7966 54.3919 24.7174 64.676C24.7115 64.7767 24.6812 64.8745 24.6291 64.9606C24.577 65.0468 24.5046 65.1187 24.4184 65.1702C18.7844 69.4312 14.5283 77.6522 14.5283 84.2844C14.5283 87.7431 15.6674 90.2965 17.6456 91.4789C19.7433 92.6614 22.4435 92.3659 25.4379 90.6401L67.9337 65.9424C74.3472 62.2248 79.563 53.135 79.563 45.6815C79.563 42.3551 78.5404 39.8516 76.6251 38.6137C74.8868 37.4787 72.4895 37.5049 69.9119 38.6985C69.7209 38.7791 69.5061 38.7813 69.3134 38.7048C69.2269 38.6659 69.15 38.6085 69.0879 38.5365C69.0259 38.4646 68.9801 38.3798 68.9539 38.2882C68.7051 37.462 68.2738 36.7034 67.6925 36.0689C67.1111 35.4344 66.3946 34.9405 65.5969 34.6244C63.6784 33.9116 61.2214 34.3401 58.6446 35.8314C57.4589 36.5279 56.3531 37.3539 55.3473 38.2945C55.2825 38.3567 55.2061 38.4052 55.1224 38.4371C55.0387 38.4689 54.9495 38.4835 54.8601 38.4801C54.7707 38.4766 54.6828 38.4551 54.6018 38.4168C54.5208 38.3786 54.4483 38.3243 54.3885 38.2573C53.6348 37.4768 52.7297 36.8606 51.7294 36.4474C50.7292 36.0341 49.6553 35.8325 48.5744 35.8551L48.5734 35.8575ZM20.4613 93.6157C19.2435 93.6318 18.0436 93.3191 16.9863 92.7104C14.4693 91.2618 13.0898 88.2689 13.0898 84.2852C13.0898 77.2237 17.4057 68.8412 23.3394 64.2238C24.5381 53.611 31.9129 41.8894 40.6019 36.8587C46.1762 33.6352 51.4507 33.6241 54.9273 36.7977C55.8522 35.9696 56.8563 35.2358 57.9249 34.607C60.8619 32.8994 63.7383 32.4345 66.0767 33.2915C66.9513 33.6273 67.7481 34.1401 68.4181 34.7982C69.0882 35.4563 69.6172 36.2456 69.9724 37.1176C72.7891 36.0199 75.4264 36.122 77.4045 37.4193C79.743 38.9241 81.0015 41.8608 81.0015 45.6815C81.0015 53.588 75.487 63.2267 68.6526 67.1733L26.1551 91.8702C24.4406 92.9416 22.4779 93.5433 20.4613 93.6157Z" fill="#1B69FF"/>
<path fill-rule="evenodd" clip-rule="evenodd" d="M23.9973 65.3103C23.8713 65.3095 23.7475 65.2762 23.6378 65.2137L11.289 58.0429C11.1386 57.9378 11.0313 57.7813 10.9871 57.6025C10.943 57.4237 10.9649 57.2348 11.0489 57.0711C11.143 56.9096 11.2963 56.7918 11.4758 56.7432C11.6554 56.6946 11.8467 56.7191 12.0085 56.8113L24.3575 63.9885C24.4404 64.0318 24.5138 64.0912 24.5738 64.1633C24.6337 64.2353 24.679 64.3186 24.7068 64.4083C24.7347 64.4981 24.7446 64.5925 24.736 64.6861C24.7275 64.7797 24.7007 64.8708 24.6571 64.9539C24.5812 65.0599 24.4824 65.147 24.3681 65.2088C24.2538 65.2705 24.127 65.3052 23.9973 65.3103Z" fill="#1B69FF"/>
<path fill-rule="evenodd" clip-rule="evenodd" d="M55.0457 38.1861C54.9207 38.1849 54.7978 38.1539 54.687 38.0958L42.4593 30.9742C42.292 30.8849 42.1665 30.7326 42.1104 30.5505C42.0542 30.3684 42.0718 30.1713 42.1596 30.0024C42.2044 29.9207 42.2653 29.8489 42.3383 29.7913C42.4114 29.7338 42.4951 29.6916 42.5847 29.6674C42.6743 29.6431 42.7677 29.6373 42.8595 29.6503C42.9513 29.6632 43.0398 29.6946 43.1193 29.7426L55.3462 36.8634C55.5137 36.9525 55.6393 37.1048 55.6955 37.287C55.7517 37.4691 55.7337 37.6663 55.6458 37.8353C55.586 37.9424 55.4988 38.0314 55.3933 38.0931C55.2877 38.1548 55.1677 38.1869 55.0457 38.1861Z" fill="#1B69FF"/>
<path fill-rule="evenodd" clip-rule="evenodd" d="M66.3743 34.9092C66.2671 34.9167 66.1607 34.8846 66.0753 34.8189L59.0616 30.7457C58.978 30.7041 58.9038 30.646 58.8431 30.5748C58.7823 30.5036 58.7365 30.4208 58.7083 30.3314C58.68 30.2419 58.6701 30.1477 58.6789 30.0543C58.6877 29.9608 58.7149 29.8701 58.7593 29.7876C58.8038 29.7051 58.8642 29.6325 58.9372 29.5741C59.0101 29.5156 59.0941 29.4726 59.1839 29.4476C59.2737 29.4226 59.3677 29.4161 59.4601 29.4285C59.5524 29.4408 59.6414 29.4718 59.7216 29.5196L66.7338 33.5874C66.8168 33.6306 66.8906 33.69 66.9507 33.762C67.0109 33.8341 67.0564 33.9175 67.0844 34.0073C67.1124 34.0972 67.1225 34.1917 67.114 34.2855C67.1055 34.3792 67.0787 34.4704 67.035 34.5536C66.9588 34.6594 66.8597 34.7463 66.7453 34.8079C66.6308 34.8695 66.5039 34.9042 66.3743 34.9092Z" fill="#1B69FF"/>
<path d="M69.6266 5.1778L74.0241 7.73517C74.1143 7.79859 74.1861 7.8851 74.232 7.98576C74.2779 8.08642 74.2963 8.19759 74.2853 8.3078V30.7697C74.2853 41.1893 59.0057 58.1373 58.3529 58.8556C58.2507 58.9693 58.1325 59.0672 58.002 59.1463C57.8967 59.2122 57.7773 59.2519 57.6536 59.2619C57.2312 59.288 50.6313 59.6405 46.0598 57.0253L41.6064 54.4355C40.2836 53.7474 39.18 52.6983 38.4218 51.4081C37.6635 50.118 37.2814 48.639 37.3189 47.1404V24.6753C37.347 24.368 37.4438 24.0712 37.6021 23.807C37.7604 23.5428 37.9761 23.3182 38.2329 23.1499C44.3334 19.6057 50.0193 14.5868 53.0782 10.051C53.3873 9.59242 53.8192 9.34453 54.1306 9.44115C57.184 10.4193 62.8685 8.82972 69.017 5.25384C69.1008 5.18236 69.2035 5.13686 69.3125 5.12281C69.4215 5.10876 69.5322 5.12674 69.6313 5.17463L69.6266 5.1778Z" fill="white"/>
<path d="M38.2273 23.1498C44.3279 19.6056 50.0139 14.5867 53.0728 10.0509C53.3819 9.59232 53.8137 9.34444 54.1244 9.44106C57.1778 10.4192 62.8622 8.82962 69.0107 5.25374C69.0945 5.18234 69.1969 5.13687 69.3058 5.12281C69.4146 5.10876 69.5252 5.12672 69.6242 5.17454L74.0218 7.73111C73.9235 7.68455 73.8141 7.66726 73.7063 7.6813C73.5986 7.69533 73.4971 7.7401 73.4138 7.81032C67.2621 11.3862 61.5817 12.9765 58.5259 11.9968C58.2113 11.8986 57.7818 12.1497 57.4735 12.6067C54.4162 17.1425 48.7302 22.1614 42.629 25.7064C42.3718 25.8739 42.1559 26.0984 41.9978 26.3625C41.8397 26.6267 41.7435 26.9237 41.7165 27.2309V49.6952C41.6801 51.205 42.0689 52.6944 42.838 53.9909C43.607 55.2875 44.7249 56.3384 46.0622 57.022H46.0559L41.6025 54.433C40.2798 53.7449 39.1762 52.6957 38.4179 51.4056C37.6597 50.1155 37.2775 48.6365 37.315 47.1379V24.6752C37.3431 24.3681 37.4397 24.0714 37.5977 23.8073C37.7557 23.5431 37.9709 23.3184 38.2273 23.1498Z" fill="#1B69FF"/>
<path d="M56.513 59.6513C57.1855 59.6513 57.6094 59.6275 57.6763 59.622C57.8574 59.6086 58.0327 59.5519 58.1876 59.4565C58.3483 59.3598 58.494 59.24 58.6202 59.1008C59.2778 58.3777 74.6517 41.3299 74.6502 30.7647V8.30353C74.6622 8.12894 74.6274 7.9543 74.5495 7.79785C74.4717 7.64139 74.3534 7.50887 74.2073 7.41413L69.8089 4.85676L69.7868 4.84489C69.6311 4.76889 69.4574 4.73831 69.2853 4.75664C69.1132 4.77498 68.9496 4.84149 68.8131 4.94863C62.7929 8.44847 57.1989 10.0388 54.2375 9.09159C53.9463 9.04825 53.6488 9.09743 53.3866 9.23228C53.1243 9.36714 52.9104 9.58095 52.7746 9.84398C49.744 14.3394 44.1004 19.3155 38.0479 22.8328C37.736 23.0327 37.4746 23.3031 37.2844 23.6225C37.0942 23.9418 36.9804 24.3013 36.9522 24.6726V47.1401C36.9106 48.6986 37.3054 50.2375 38.0912 51.5808C38.8771 52.9242 40.0224 54.0179 41.3962 54.7369L41.4206 54.7528L45.8741 57.3418C45.8918 57.3518 45.9102 57.3606 45.9292 57.3679C49.5151 59.3978 54.3232 59.6513 56.513 59.6513ZM69.4644 5.50144L73.8439 8.04772C73.8841 8.07148 73.9226 8.15861 73.9226 8.30196V30.7655C73.9226 41.0496 58.7319 57.893 58.0838 58.6051C58.0065 58.6913 57.9172 58.7657 57.8187 58.826C57.762 58.8626 57.6976 58.8857 57.6307 58.8934C57.3507 58.9108 50.7389 59.2798 46.2375 56.7051C46.2218 56.6959 46.2055 56.688 46.1887 56.6813L41.8092 54.1342L41.7833 54.1176C40.5167 53.4608 39.4597 52.4578 38.7336 51.2236C38.0075 49.9894 37.6418 48.5741 37.6783 47.1401V24.6742C37.7065 24.4314 37.7867 24.1976 37.9132 23.989C38.0397 23.7803 38.2097 23.6018 38.4113 23.4656C44.5512 19.9016 50.2883 14.8328 53.3731 10.2558C53.6091 9.90102 53.9064 9.75527 54.0165 9.78933C57.1627 10.7983 62.9831 9.18186 69.193 5.56955C69.3236 5.48322 69.4094 5.47055 69.44 5.49035C69.4484 5.49352 69.4565 5.49723 69.4644 5.50144Z" fill="#005BEA"/>
<path d="M58.004 39.3622L67.8791 21.9984L66.542 21.2246L58.0016 36.2631L52.7317 33.2075L51.3945 35.5336L58.004 39.3622Z" fill="#1B69FF"/>
</svg>
