<svg width="65" height="88" viewBox="0 0 65 88" fill="none" xmlns="http://www.w3.org/2000/svg">
<g clip-path="url(#clip0_443_2600)">
<mask id="mask0_443_2600" style="mask-type:luminance" maskUnits="userSpaceOnUse" x="0" y="0" width="65" height="88">
<path d="M65 0H0V88H65V0Z" fill="white"/>
</mask>
<g mask="url(#mask0_443_2600)">
<path fill-rule="evenodd" clip-rule="evenodd" d="M8.8286 87.2137L1.25676 82.8641C0.760561 82.5244 0.672293 82.0872 0.648438 81.5171V20.1827C0.698534 19.5556 0.996733 19.1707 1.52633 18.869C2.38753 18.3749 3.25588 17.8737 4.12185 17.3724C4.32701 17.2845 4.40812 17.2465 4.62521 17.3225L12.1899 21.6769C11.9752 21.5938 11.8917 21.6342 11.6866 21.7221C10.7633 22.2566 9.84248 22.7887 8.91926 23.3161C8.48747 23.6178 8.25606 24.0097 8.21312 24.5371V74.7563L56.0727 47.2426C56.2779 47.15 56.359 47.1096 56.5761 47.1927L64.1432 51.5424C63.9332 51.4664 63.845 51.4972 63.6398 51.5923L12.3951 81.0515L8.21551 78.6474V85.862C8.23698 86.4393 8.3324 86.8692 8.8286 87.2089V87.2137Z" fill="#035BE8"/>
<path fill-rule="evenodd" clip-rule="evenodd" d="M4.42136 17.9544L1.84731 19.4273C1.47277 19.6482 1.32248 19.8549 1.29386 20.235V81.5147C1.31533 82.0255 1.39882 82.1751 1.62545 82.3343L7.56317 85.7432V78.6498C7.56317 78.4194 7.68961 78.2056 7.89 78.0892C8.088 77.9728 8.33848 77.9728 8.54125 78.0892L12.3963 80.3103L62.6367 51.4212L56.3793 47.8246L8.54364 75.3169C8.33848 75.4333 8.09037 75.4333 7.89237 75.3169C7.69438 75.2005 7.56556 74.9867 7.56556 74.7563V24.5371C7.6252 23.7674 7.95679 23.1949 8.55319 22.7816L10.6859 21.5558L4.42374 17.9544H4.42136ZM8.82753 87.8622C8.71778 87.8622 8.60089 87.8337 8.5007 87.7743L0.933628 83.4247C0.148771 82.8902 0.0271064 82.2037 -0.00390625 81.5433V20.1827C0.0676613 19.318 0.442198 18.7407 1.19366 18.306L3.79395 16.8165C4.13509 16.6574 4.41181 16.5576 4.84838 16.7168L12.5132 21.1163C12.7995 21.2802 12.9164 21.6437 12.7732 21.9525C12.6301 22.2542 12.277 22.3967 11.9621 22.2827L9.24024 23.8767C9.01361 24.0406 8.88717 24.2568 8.85853 24.5846L8.86331 73.6398L55.7495 46.682C56.0358 46.5442 56.3292 46.4136 56.7992 46.5894L64.4641 50.9889C64.7575 51.1528 64.8672 51.5163 64.7241 51.8203C64.581 52.1291 64.2207 52.2717 63.913 52.1505L12.7184 81.6169C12.5204 81.7333 12.2699 81.7333 12.0719 81.6169L8.86331 79.7758V85.8691C8.88478 86.3846 8.96351 86.5295 9.19491 86.6887C9.48118 86.8859 9.5599 87.2731 9.37144 87.5629C9.24977 87.7601 9.03985 87.8646 8.82514 87.8646L8.82753 87.8622Z" fill="#035BE8"/>
<path fill-rule="evenodd" clip-rule="evenodd" d="M10.307 87.0711C9.7273 87.4013 9.20724 87.4345 8.82794 87.2136C8.4534 86.9998 8.21484 86.527 8.21484 85.8666V24.537C8.21484 24.0904 8.52974 23.5416 8.9162 23.316C9.8442 22.7886 10.7651 22.2541 11.6883 21.722C12.0795 21.5034 12.3944 21.6839 12.3944 22.1353V81.0561L63.6391 51.5969C64.0304 51.3712 64.3453 51.5589 64.3453 52.0031V55.1864C64.3453 55.6306 64.0304 56.1817 63.6391 56.4074L10.307 87.0711Z" fill="#EFF3FA"/>
<path fill-rule="evenodd" clip-rule="evenodd" d="M11.7492 22.4418L9.24195 23.8766C9.05349 23.9859 8.86503 24.3161 8.86503 24.537V85.8667C8.86503 86.2562 8.97 86.5484 9.1513 86.6577C9.32783 86.7622 9.64273 86.7028 9.9791 86.5104L63.316 55.8468C63.5045 55.7375 63.6977 55.4073 63.6977 55.1864V52.3096L12.7178 81.6168C12.5198 81.7332 12.2693 81.7332 12.0713 81.6168C11.8661 81.5004 11.7445 81.2866 11.7445 81.0562V22.4418H11.7492ZM9.36839 87.9999C9.05826 87.9999 8.76722 87.9286 8.50242 87.7742C7.90603 87.4345 7.5625 86.7337 7.5625 85.8667V24.537C7.5625 23.86 8.00384 23.095 8.59546 22.7553L11.3628 21.1661C11.7612 20.9404 12.181 20.919 12.5174 21.1162C12.8538 21.3086 13.0469 21.684 13.0469 22.1329V79.9373L63.3184 51.0315C63.7097 50.8059 64.1295 50.7892 64.4683 50.9864C64.8046 51.1788 64.9979 51.547 64.9979 51.9984V55.1816C64.9979 55.8587 64.5564 56.6236 63.9649 56.9633L10.628 87.6269C10.1962 87.8787 9.77155 87.9999 9.36839 87.9999Z" fill="#035BE8"/>
<path fill-rule="evenodd" clip-rule="evenodd" d="M54.2496 53.0957L12.3945 77.16V32.4664L54.2496 8.40674V53.0957Z" fill="white"/>
<path fill-rule="evenodd" clip-rule="evenodd" d="M13.0477 32.8421V76.0392L53.605 52.7231V9.52372L13.0477 32.8421ZM12.3965 77.8113C12.2867 77.8113 12.1746 77.7781 12.0768 77.7234C11.8716 77.607 11.75 77.3932 11.75 77.1628V32.4692C11.75 32.2387 11.8716 32.0297 12.0768 31.9085L53.9319 7.84658C54.1299 7.73018 54.3803 7.73018 54.5783 7.84658C54.7835 7.96298 54.9052 8.17203 54.9052 8.40721V53.0961C54.9052 53.3265 54.7835 53.5403 54.5783 53.6567L12.7233 77.7211C12.6231 77.7757 12.5134 77.809 12.3965 77.809V77.8113Z" fill="#035BE8"/>
<path fill-rule="evenodd" clip-rule="evenodd" d="M40.8124 25.366C40.6407 25.2401 40.5977 25.1783 40.4761 25.0096L39.6745 23.5914C39.3429 22.8764 39.486 22.178 39.7413 21.4629C40.1946 20.3844 40.7743 19.8618 41.5472 18.9781C42.697 17.6739 43.8397 16.3721 44.9824 15.0727C47.43 12.279 49.8872 9.49018 52.3324 6.70128C53.6421 5.21181 54.9446 3.72709 56.2543 2.23524L53.487 0.645996C51.6859 2.69135 49.892 4.7367 48.0956 6.78443C45.9701 9.19799 43.8493 11.6186 41.7237 14.0369C40.581 15.3411 39.4383 16.6382 38.2933 17.9424C37.6038 18.7287 37.2388 19.1183 36.8905 20.1089C36.6973 20.7693 36.609 21.3631 36.912 21.9998L37.7064 23.4133C37.8281 23.589 37.871 23.6437 38.0428 23.7767L40.8101 25.366H40.8124ZM51.798 26.6583L49.0308 25.069C48.5226 24.7056 48.4845 24.4632 48.4129 23.8694L48.2912 20.0471L51.0585 21.6411L51.1802 25.4515C51.2565 26.0525 51.2971 26.2924 51.798 26.6559V26.6583ZM17.8178 67.0285L15.0505 65.4392C14.0844 64.8286 14.4756 63.4104 14.8525 62.5695L25.256 41.0992C25.7976 40.0255 26.4822 39.1465 27.5247 38.5194L38.5533 32.141L43.4461 19.3724L46.2134 20.9617L41.3206 33.7303L30.292 40.1158C29.2543 40.7382 28.5648 41.6171 28.0233 42.6885L17.6174 64.1516C17.2357 64.9974 16.8445 66.4109 17.8154 67.0285H17.8178Z" fill="#035BE8"/>
<path fill-rule="evenodd" clip-rule="evenodd" d="M48.9719 21.1922L49.0554 23.8433C49.1222 24.3279 49.1222 24.3374 49.4085 24.5417L50.5178 25.1808L50.4128 22.0237L48.9719 21.1922ZM51.7941 27.3021C51.6772 27.3021 51.5746 27.2736 51.4673 27.219L48.7 25.625C47.939 25.0857 47.8507 24.6415 47.7601 23.9526L47.6336 20.071C47.6289 19.8405 47.7505 19.6148 47.9533 19.4937C48.1513 19.3773 48.4066 19.3773 48.6046 19.4937L51.3718 21.0829C51.5698 21.1922 51.6915 21.3965 51.7034 21.6222L51.8203 25.4397C51.8871 25.9077 51.8871 25.9291 52.1686 26.131C52.4501 26.3353 52.5217 26.7201 52.3332 27.0052C52.2116 27.1976 52.0016 27.3021 51.7917 27.3021H51.7941ZM53.6214 1.47273L55.2389 2.4087L44.487 14.6452L40.682 18.9734C40.0809 19.6386 39.5608 20.2159 39.1242 21.2445C38.8881 21.9215 38.6877 22.7126 38.9763 23.5773L38.442 23.2684C38.372 23.213 38.3171 23.156 38.2774 23.0974L37.4973 21.7291C37.2874 21.2944 37.3494 20.8715 37.4973 20.3275C37.7955 19.4866 38.0818 19.1611 38.7783 18.3748L53.6214 1.47273ZM43.7809 20.3133L39.1576 32.3739C39.1028 32.5165 39.0026 32.6258 38.8762 32.7041L27.8476 39.0825C27.0198 39.5766 26.3781 40.3154 25.8318 41.3915L15.433 62.8499C15.3161 63.1041 14.7436 64.4843 15.3948 64.8905L16.559 65.5604C16.5972 65.0592 16.7475 64.4985 17.017 63.8952L27.4325 42.4083C28.1005 41.0946 28.902 40.1871 29.9565 39.5552L40.7918 33.2909L45.4079 21.2469L43.7785 20.3109L43.7809 20.3133ZM17.8138 67.6747C17.7041 67.6747 17.592 67.6462 17.4894 67.5915L14.7221 65.9975C13.6772 65.3443 13.5126 63.9688 14.2522 62.3083L24.6676 40.8214C25.3308 39.5077 26.13 38.605 27.1916 37.9684L38.0269 31.704L40.286 25.815L37.7168 24.3422C37.4138 24.1118 37.3184 24.0001 37.1657 23.7816L36.3427 22.3254C35.9228 21.4345 36.0564 20.6601 36.2663 19.9379C36.6576 18.8262 37.0607 18.3653 37.7358 17.6004L52.9988 0.218438C53.204 -0.011991 53.5403 -0.0666287 53.8099 0.0877823L56.5772 1.68178C56.7418 1.77443 56.8587 1.94072 56.8921 2.13314C56.9255 2.32556 56.8706 2.51798 56.737 2.66051L41.6506 19.8286C41.0804 20.4605 40.6725 20.9166 40.3409 21.7101C40.1262 22.3206 40.0308 22.8218 40.2646 23.316L40.849 24.3446L42.8434 19.1421C42.9102 18.9663 43.0485 18.8285 43.2298 18.762C43.4111 18.7026 43.6115 18.7169 43.7714 18.8119L46.5386 20.4012C46.8154 20.5651 46.937 20.8953 46.8201 21.1922L41.9273 33.9608C41.8724 34.0986 41.7794 34.2197 41.6458 34.291L30.6173 40.6694C29.7942 41.1635 29.1477 41.9023 28.6014 42.9784L18.2027 64.4368C18.0381 64.8002 17.5276 66.0759 18.1645 66.4821C18.4627 66.6698 18.5557 67.0594 18.3744 67.3635C18.248 67.5606 18.0381 67.6723 17.8162 67.6723L17.8138 67.6747Z" fill="#035BE8"/>
<path fill-rule="evenodd" clip-rule="evenodd" d="M17.6144 64.1542L28.0203 42.6911C28.2971 42.1257 28.643 41.6078 29.0247 41.1683C29.4159 40.7241 29.8477 40.3654 30.289 40.1183L41.3176 33.7329L46.2104 20.9643L43.0734 24.5395C42.112 25.6346 40.9478 25.8436 40.4731 25.0122L39.6715 23.594C39.2087 22.7626 39.6047 21.1899 40.5661 20.0948C45.7953 14.144 51.0269 8.18855 56.2513 2.23779C56.4612 8.81095 56.664 15.3817 56.8692 21.9477C56.9074 23.1569 56.0676 24.682 54.9965 25.34L53.1858 26.4565C52.1147 27.1169 51.2082 26.6656 51.1748 25.4612L51.0531 21.6437L45.3253 36.498C45.0772 37.0705 44.7457 37.6311 44.3473 38.1205C43.9226 38.6384 43.436 39.066 42.9445 39.3463L31.6727 45.8624L22.1232 65.5724C21.4719 66.9193 20.2457 67.8054 19.3941 67.5417L17.9579 67.0904C17.1134 66.8267 16.9584 65.5059 17.6096 64.1542H17.6144Z" fill="#EFF3FA"/>
<path fill-rule="evenodd" clip-rule="evenodd" d="M18.2016 64.4413C17.7936 65.2775 17.8103 65.9379 17.9463 66.2515C18.0227 66.4321 18.1229 66.4653 18.1563 66.4772L19.5971 66.9285C20.0266 67.0616 20.9665 66.4772 21.5414 65.2942L31.0909 45.5889C31.1505 45.4678 31.2388 45.368 31.3509 45.3086L42.6228 38.7854C43.0474 38.5431 43.4745 38.1701 43.849 37.7069C44.2021 37.2721 44.505 36.7661 44.7317 36.2388L50.4475 21.4129C50.5644 21.1207 50.8507 20.9568 51.1656 21.0067C51.4685 21.0566 51.6952 21.3155 51.7071 21.622L51.824 25.4395C51.8359 25.7578 51.929 25.9954 52.0721 26.0761C52.2367 26.164 52.5349 26.0975 52.845 25.9051L54.6557 24.7886C55.524 24.2541 56.2516 22.9404 56.223 21.9664L55.6552 3.89563L41.0531 20.515C40.2301 21.4557 39.9438 22.748 40.242 23.2754L41.0435 24.6888C41.1032 24.8052 41.1867 24.8527 41.2964 24.8646C41.5779 24.8931 42.0908 24.6722 42.5894 24.1044L45.7264 20.5364C45.9316 20.3012 46.2847 20.2442 46.5495 20.4057C46.819 20.5696 46.9359 20.8998 46.819 21.192L41.9262 33.9606C41.8713 34.0984 41.7783 34.2195 41.6447 34.2908L30.6162 40.6692C30.2416 40.883 29.8599 41.2037 29.5164 41.5885C29.1633 41.9947 28.8437 42.4746 28.6003 42.9687L18.2016 64.439V64.4413ZM19.726 68.2351C19.5494 68.2351 19.3729 68.2137 19.2059 68.1591L17.7698 67.7077C17.3165 67.5652 16.9587 67.2302 16.7535 66.767C16.4219 66.0021 16.5269 64.9188 17.0303 63.8807L27.4338 42.4105C27.732 41.7999 28.1018 41.2393 28.5383 40.7428C28.9844 40.2368 29.4663 39.8354 29.9697 39.5503L40.7954 33.2931L44.319 24.1092L43.5675 24.962C42.8327 25.7982 41.9596 26.2329 41.1652 26.1545C40.6308 26.0999 40.1824 25.803 39.9104 25.3231L39.116 23.9096C38.5029 22.8383 38.9275 20.9735 40.0822 19.6645L55.7674 1.80752C55.9391 1.61035 56.2206 1.53908 56.4687 1.62698C56.7216 1.71962 56.8934 1.95243 56.9053 2.21611L57.5232 21.9308C57.5685 23.3656 56.6119 25.1045 55.3427 25.8909L53.5321 27.0074C52.8021 27.454 52.0459 27.53 51.4614 27.2164C50.8936 26.9076 50.5549 26.2828 50.5286 25.4846L50.5119 24.8694L45.9388 36.7305C45.6573 37.3838 45.2875 37.9943 44.8557 38.524C44.381 39.1084 43.8347 39.5859 43.2765 39.909L32.1763 46.3277L22.7151 65.85C22.0137 67.3015 20.8043 68.2375 19.7284 68.2375L19.726 68.2351Z" fill="#035BE8"/>
</g>
</g>
<defs>
<clipPath id="clip0_443_2600">
<rect width="65" height="88" fill="white"/>
</clipPath>
</defs>
</svg>
