<svg width="87" height="73" viewBox="0 0 87 73" fill="none" xmlns="http://www.w3.org/2000/svg">
<path fill-rule="evenodd" clip-rule="evenodd" d="M38.0808 3.16797C35.3196 3.29139 32.6361 4.1208 30.2868 5.57697C21.7868 10.504 14.5718 21.332 12.7038 31.908C12.6398 32.608 12.5108 33.253 12.4458 33.949C12.4284 34.1492 12.3363 34.3356 12.1878 34.471L11.6078 34.916C6.554 39.1408 3.0991 44.9687 1.8178 51.43C1.4948 53.324 0.917817 58.045 3.23382 61.053C3.68367 61.6658 4.25357 62.1806 4.90881 62.566L18.1088 70.205C20.2988 71.474 23.2618 71.158 26.4818 69.316L72.1478 42.96C79.0398 38.992 84.6478 29.292 84.6478 21.338C84.6478 17.512 83.2958 14.646 80.9768 13.486L67.3228 5.65396C66.1685 5.23417 64.9223 5.13399 63.7158 5.36398L63.1358 5.47998C62.9599 5.52143 62.7747 5.49158 62.6208 5.39697L56.5018 1.93198C55.8254 1.66218 55.1041 1.52239 54.3758 1.51996C50.7048 1.44896 47.3548 4.01997 45.6158 5.55197C45.5046 5.65552 45.3625 5.71972 45.2113 5.73471C45.0601 5.7497 44.9082 5.71468 44.7788 5.63498L41.6228 3.88898C40.5052 3.40352 39.2983 3.15756 38.0798 3.16696L38.0808 3.16797ZM21.1408 72.492C19.8319 72.5088 18.5424 72.1752 17.4058 71.526L4.13683 63.861C3.307 63.3808 2.58391 62.7363 2.01183 61.967C-0.629168 58.476 -0.0492162 53.246 0.336784 51.167C1.68613 44.3494 5.32405 38.1974 10.6478 33.73L10.9698 33.466C11.0338 32.848 11.1628 32.266 11.2278 31.65C13.1598 20.662 20.6958 9.40396 29.5198 4.26996C32.1608 2.69896 37.4428 0.392963 42.2728 2.51196L42.7238 2.71198L45.0418 4.05798C47.0418 2.38998 50.5158 0.000976562 54.2528 0.000976562C54.3168 0.000976562 54.3168 0.00695801 54.3818 0.00695801C55.3295 0.016824 56.2676 0.19808 57.1508 0.541962L57.5368 0.715973L63.0758 3.94196L63.4618 3.87796C64.9498 3.59148 66.4882 3.72338 67.9058 4.25897L68.3568 4.45895L81.6888 12.159C84.5238 13.559 86.1978 16.912 86.1978 21.344C86.1978 29.782 80.2718 40.068 72.9298 44.28L27.2638 70.636C25.4195 71.7771 23.3083 72.4169 21.1408 72.492Z" fill="#2979E4"/>
</svg>
