<svg width="58" height="107" viewBox="0 0 58 107" fill="none" xmlns="http://www.w3.org/2000/svg">
<g clip-path="url(#clip0_443_2714)">
<path d="M11.9609 103.914C11.9609 106.084 13.4732 106.962 15.3394 105.878L53.9764 83.3844C54.9592 82.7392 55.777 81.869 56.3632 80.8449C56.9494 79.8207 57.2874 78.6714 57.3498 77.4905L57.3549 13.5277C57.3549 11.363 55.84 10.4824 53.9764 11.5669L15.3394 34.0654C14.356 34.7084 13.5376 35.577 12.9513 36.6003C12.365 37.6235 12.0273 38.7723 11.966 39.9524L11.9609 103.914Z" fill="white"/>
<path d="M13.8261 107C14.4755 106.98 15.1084 106.789 15.6616 106.445L54.2987 83.9519C55.3824 83.2512 56.2838 82.2989 56.9274 81.1747C57.571 80.0504 57.9381 78.7871 57.9979 77.4904L58.003 13.5285C58.085 12.9876 58.0031 12.4343 57.768 11.9411C57.5328 11.4479 57.1555 11.0379 56.6853 10.7646C56.2151 10.4914 55.674 10.3678 55.1329 10.4099C54.5918 10.4521 54.0761 10.658 53.6531 11.0008L15.016 33.4994C13.9314 34.1977 13.0291 35.1486 12.3854 36.2721C11.7416 37.3956 11.3751 38.6587 11.3168 39.9549L11.3126 103.916C11.265 104.454 11.3619 104.994 11.5928 105.482C11.8238 105.969 12.1804 106.384 12.6252 106.684C12.9908 106.895 13.4052 107.004 13.8261 107ZM55.48 11.7585C55.6735 11.7541 55.8648 11.8013 56.0344 11.8953C56.275 12.0873 56.4625 12.3384 56.5792 12.6246C56.6958 12.9107 56.7376 13.2222 56.7006 13.5293L56.6955 77.4913C56.6302 78.5563 56.321 79.5915 55.7921 80.5157C55.2631 81.4398 54.5289 82.2277 53.6471 82.8175L15.01 105.311C14.7876 105.539 14.4965 105.686 14.1823 105.729C13.8681 105.773 13.5485 105.71 13.2737 105.55C12.9988 105.39 12.7842 105.144 12.6635 104.848C12.5427 104.552 12.5227 104.224 12.6065 103.916L12.6116 39.9532C12.6754 38.889 12.9839 37.8543 13.5126 36.9311C14.0414 36.0079 14.776 35.2214 15.6582 34.6338L54.2953 12.1344C54.6516 11.9085 55.0597 11.7791 55.48 11.7585Z" fill="#005BEA"/>
<path d="M16.9072 82.3695C16.9072 82.8855 17.2722 83.1014 17.72 82.8373L48.3337 65.0147C48.5704 64.8601 48.7676 64.6513 48.9091 64.4053C49.0507 64.1593 49.1325 63.8831 49.1482 63.5991C49.1482 63.0831 48.7832 62.8724 48.3337 63.1338L17.7191 80.9564C17.4838 81.1119 17.2879 81.3205 17.1468 81.5659C17.0056 81.8112 16.9232 82.0864 16.9062 82.3695H16.9072ZM22.5364 86.6284C22.5364 87.1504 22.8972 87.3603 23.3458 87.1014L48.3337 72.5521C48.5707 72.3982 48.7677 72.1895 48.9085 71.9432C49.0493 71.697 49.1297 71.4204 49.1431 71.1365C49.1431 70.6205 48.7832 70.4098 48.3337 70.666L23.3432 85.2153C23.1081 85.3705 22.9125 85.5792 22.7722 85.8247C22.6319 86.0702 22.5517 86.3455 22.5364 86.6284ZM28.1656 79.5846C28.18 79.302 28.2606 79.0268 28.4008 78.7816C28.5411 78.5364 28.7371 78.3283 28.9725 78.1742L48.3337 66.8974C48.7857 66.6394 49.1465 66.8518 49.1465 67.3687C49.132 67.6522 49.0507 67.9283 48.9093 68.1739C48.768 68.4194 48.5707 68.6275 48.3337 68.7809L28.9725 80.0577C28.5282 80.3157 28.1631 80.1041 28.1656 79.5846ZM16.9072 69.1833C16.9072 69.6994 17.2697 69.9127 17.7166 69.6521L48.3363 51.8303C48.5712 51.6751 48.7667 51.4663 48.9068 51.2208C49.047 50.9754 49.1279 50.7001 49.1431 50.4173C49.1431 49.8952 48.7806 49.6854 48.3303 49.9443L17.7157 67.766C17.4806 67.9222 17.2848 68.1318 17.1443 68.3779C17.0037 68.624 16.9222 68.8998 16.9062 69.1833H16.9072ZM22.5364 73.4423C22.5364 73.9643 22.8988 74.1741 23.3432 73.9136L48.3388 59.3634C48.5741 59.209 48.7698 59.0006 48.9101 58.7553C49.0503 58.51 49.131 58.2349 49.1457 57.9521C49.1457 57.4361 48.7849 57.2202 48.3329 57.4808L23.3475 72.0292C23.1116 72.1839 22.9152 72.3924 22.7741 72.6379C22.633 72.8834 22.5522 73.159 22.5364 73.4423ZM28.1656 66.3994C28.1797 66.1163 28.2602 65.8406 28.4004 65.5949C28.5407 65.3493 28.7368 65.1407 28.9725 64.9863L48.3337 53.7112C48.7832 53.4532 49.1431 53.6682 49.1465 54.18C49.1307 54.4643 49.049 54.7409 48.9078 54.9875C48.7666 55.2341 48.5699 55.4439 48.3337 55.5999L28.9725 66.8664C28.5256 67.1305 28.1656 66.918 28.1656 66.3994Z" fill="#1B69FF"/>
<path d="M43.3522 0.560771L49.1878 3.95791C49.3074 4.04211 49.4025 4.15696 49.4634 4.29061C49.5243 4.42425 49.5487 4.57185 49.5341 4.71818V34.5615C49.5341 48.4082 29.2603 70.9257 28.3937 71.8803C28.2581 72.0313 28.1012 72.1615 27.9281 72.2665C27.7883 72.3539 27.6297 72.4064 27.4657 72.4196C26.9045 72.454 18.1476 72.9227 12.0817 69.4481V69.4524L6.17186 66.0123C4.41706 65.0979 2.95297 63.704 1.94705 61.9899C0.941132 60.2758 0.434059 58.3108 0.483807 56.3197V26.4711C0.521241 26.063 0.649725 25.6687 0.859769 25.3178C1.06981 24.9669 1.35597 24.6685 1.69665 24.4449C9.79083 19.7362 17.3357 13.0674 21.3939 7.03943C21.8041 6.43053 22.3764 6.10114 22.7901 6.22929C26.8414 7.52967 34.3837 5.41653 42.5419 0.665677C42.6533 0.571016 42.7895 0.510835 42.934 0.492373C43.0785 0.47391 43.2252 0.497951 43.3565 0.561611L43.3522 0.560771Z" fill="white"/>
<path d="M1.69404 24.4451C9.78821 19.7363 17.3331 13.0676 21.3913 7.03959C21.8015 6.43068 22.3739 6.10129 22.7876 6.22944C26.8389 7.52982 34.3812 5.41668 42.5394 0.665829C42.6507 0.57107 42.7868 0.510832 42.9314 0.492367C43.0759 0.473901 43.2226 0.497995 43.3539 0.561762L49.1887 3.95893C49.058 3.89746 48.9125 3.875 48.7696 3.8942C48.6266 3.9134 48.492 3.97347 48.3818 4.0673C40.2194 8.81815 32.6822 10.9313 28.6274 9.63002C28.2146 9.49929 27.6406 9.83384 27.2321 10.441C23.1756 16.4682 15.6324 23.1369 7.53483 27.8474C7.19346 28.07 6.90698 28.3683 6.69711 28.7194C6.48724 29.0705 6.35947 29.4652 6.32365 29.8736V59.7212C6.2747 61.7274 6.79034 63.7066 7.81073 65.4296C8.83113 67.1526 10.3145 68.5489 12.0894 69.4569H12.0818L6.17268 66.0167C4.41772 65.1025 2.95353 63.7086 1.94746 61.9945C0.941381 60.2804 0.434127 58.3153 0.483796 56.3241V26.4713C0.521 26.0634 0.649131 25.6693 0.858717 25.3184C1.0683 24.9675 1.35387 24.669 1.69404 24.4451Z" fill="#1B69FF"/>
<path d="M25.9518 72.946C26.844 72.946 27.406 72.9142 27.4956 72.9073C27.7372 72.8902 27.9713 72.8146 28.1779 72.6871C28.3912 72.559 28.5846 72.3999 28.7519 72.215C29.6236 71.2543 50.0236 48.6026 50.0219 34.5634V4.72C50.0381 4.48809 49.9921 4.25607 49.8889 4.0482C49.7856 3.84032 49.6289 3.66423 49.4351 3.53831L43.5996 0.140307L43.5705 0.124821C43.3638 0.0239509 43.1332 -0.0165514 42.9048 0.00792041C42.6764 0.0323922 42.4594 0.12087 42.2783 0.263297C34.2908 4.91353 26.8687 7.0275 22.9394 5.76754C22.5528 5.70965 22.1579 5.77492 21.8099 5.95423C21.4619 6.13354 21.1781 6.41796 20.9981 6.76776C16.9766 12.7407 9.48884 19.3527 1.45778 24.0253C1.04453 24.2915 0.698369 24.651 0.44671 25.0753C0.195051 25.4997 0.0448372 25.9773 0.00786213 26.4704V56.3232C-0.0473455 58.3941 0.476251 60.4388 1.51889 62.2238C2.56154 64.0088 4.08114 65.462 5.90404 66.4175L5.93725 66.439L11.8463 69.8791C11.8696 69.8924 11.8938 69.9039 11.9188 69.9135C16.6661 72.6072 23.0468 72.946 25.9518 72.946ZM43.1363 0.996041L48.9473 4.37943C49.0001 4.41039 49.0539 4.52736 49.053 4.71743V34.5659C49.053 48.2311 28.8978 70.6119 28.0372 71.5571C27.9345 71.6715 27.8159 71.7703 27.6849 71.8503C27.6092 71.8978 27.5238 71.9272 27.4351 71.9363C27.0641 71.9595 18.291 72.4524 12.3172 69.0286C12.2963 69.0166 12.2746 69.0063 12.2523 68.9976L6.44055 65.6133C6.42861 65.6056 6.41834 65.5978 6.4064 65.591C4.72583 64.7184 3.32337 63.3856 2.35994 61.7457C1.39651 60.1058 0.911175 58.2252 0.959688 56.3198V26.4713C0.997098 26.1485 1.10351 25.8377 1.27151 25.5603C1.43952 25.283 1.66512 25.0456 1.93286 24.8647C10.0799 20.1242 17.6879 13.3987 21.7853 7.31303C22.1035 6.84087 22.4924 6.64821 22.6383 6.69293C26.8175 8.03373 34.5322 5.88537 42.7748 1.08635C42.9453 0.97111 43.0622 0.954749 43.1023 0.97969C43.1138 0.984297 43.1257 0.98977 43.1363 0.996041Z" fill="#005BEA"/>
<path d="M27.9278 45.9881L40.5817 22.7757L38.8085 21.7437L27.9261 41.8686L20.9382 37.8083L19.1641 40.8993L27.9278 45.9881Z" fill="#1B69FF"/>
</g>
<defs>
<clipPath id="clip0_443_2714">
<rect width="58" height="107" fill="white"/>
</clipPath>
</defs>
</svg>
