<svg width="129" height="125" viewBox="0 0 129 125" fill="none" xmlns="http://www.w3.org/2000/svg">
<g clip-path="url(#clip0_443_2730)">
<path fill-rule="evenodd" clip-rule="evenodd" d="M70.393 9.75793L40.67 26.9049C39.2035 27.8561 37.9845 29.1427 37.1136 30.6583C36.2428 32.1739 35.7452 33.875 35.662 35.621L35.621 109.5C35.78 111.03 35.801 111.462 36.915 112.373L38.661 113.373C38.599 113.018 38.571 112.629 38.529 112.19L38.55 38.1899C38.6448 36.1719 39.2193 34.2055 40.2256 32.4537C41.232 30.702 42.6414 29.2153 44.337 28.1169L73.28 11.423L70.394 9.75293L70.393 9.75793ZM40.921 116.434C40.7768 116.433 40.6353 116.394 40.51 116.323L35.989 113.707C34.327 112.351 34.166 111.412 34 109.576L34.028 35.5759C34.1231 33.5581 34.6976 31.5919 35.704 29.8403C36.7104 28.0888 38.1196 26.6023 39.815 25.5039L69.976 8.10388C70.1034 8.03194 70.2472 7.99414 70.3935 7.99414C70.5398 7.99414 70.6836 8.03194 70.811 8.10388L75.332 10.7129C75.4532 10.7874 75.5533 10.8918 75.6227 11.016C75.6921 11.1402 75.7285 11.2801 75.7285 11.4224C75.7285 11.5646 75.6921 11.7047 75.6227 11.8289C75.5533 11.9531 75.4532 12.0574 75.332 12.132L45.199 29.5149C43.7311 30.4637 42.5105 31.7485 41.6382 33.2631C40.7659 34.7776 40.2671 36.4781 40.183 38.2239L40.163 112.109C40.301 113.64 40.351 114.07 41.436 114.982C41.6004 115.107 41.7091 115.291 41.7389 115.495C41.7686 115.699 41.7169 115.907 41.595 116.073C41.5201 116.183 41.4197 116.273 41.3023 116.336C41.185 116.399 41.0541 116.433 40.921 116.434Z" fill="#1B69FF"/>
<path fill-rule="evenodd" clip-rule="evenodd" d="M74.9143 12.374L45.1993 29.52C43.7483 30.4785 42.5399 31.7611 41.6694 33.2666C40.7989 34.7721 40.2902 36.4592 40.1833 38.1949L40.1633 112.115C40.0992 112.644 40.1738 113.18 40.3799 113.671C40.5859 114.162 40.9162 114.591 41.3383 114.915C41.8273 115.121 42.362 115.195 42.8886 115.13C43.4152 115.064 43.9152 114.86 44.3383 114.54L88.0003 89.366C89.4457 88.4008 90.6494 87.1157 91.5179 85.6102C92.3863 84.1048 92.8964 82.4193 93.0083 80.6849L93.0293 22.853L74.9153 12.3779L74.9143 12.374ZM42.3323 116.802C41.6928 116.807 41.0636 116.641 40.5093 116.322C39.2153 115.578 38.5273 114.082 38.5273 112.114L38.5483 38.194C38.6584 36.1711 39.2441 34.2027 40.258 32.4487C41.2719 30.6948 42.6853 29.2049 44.3833 28.1L74.4963 10.717C74.6238 10.6452 74.7676 10.6074 74.9138 10.6074C75.0601 10.6074 75.2039 10.6452 75.3313 10.717L94.2513 21.666C94.3773 21.7366 94.4822 21.8392 94.5555 21.9636C94.6287 22.088 94.6677 22.2297 94.6683 22.374L94.6473 80.674C94.5346 82.6969 93.9469 84.6648 92.9319 86.4183C91.917 88.1718 90.5033 89.6616 88.8053 90.767L45.1703 115.947C44.3149 116.473 43.3372 116.768 42.3333 116.802H42.3323Z" fill="#1B69FF"/>
<path fill-rule="evenodd" clip-rule="evenodd" d="M40.4144 33.9098L38.0454 32.5427L35.8934 31.3008C35.2473 32.6377 34.8876 34.0948 34.8374 35.5787L34.8164 109.499C34.9764 111.199 35.0464 111.892 36.4024 113.004L40.9244 115.62C39.5674 114.507 39.4984 113.812 39.3384 112.114L39.3594 38.1937C39.4096 36.7079 39.769 35.249 40.4144 33.9098Z" fill="#F2F5FC"/>
<path fill-rule="evenodd" clip-rule="evenodd" d="M36.288 32.4649C35.8973 33.4704 35.6855 34.5365 35.662 35.615L35.621 109.494C35.78 111.024 35.801 111.455 36.915 112.367L38.661 113.367C38.599 113.012 38.571 112.623 38.529 112.184L38.55 38.1839C38.5961 36.8336 38.8763 35.5015 39.378 34.2469L36.29 32.459L36.288 32.4649ZM40.921 116.429C40.7768 116.428 40.6353 116.389 40.51 116.318L35.989 113.702C34.327 112.346 34.166 111.407 34 109.571L34.028 35.5709C34.0649 33.9633 34.4494 32.3829 35.155 30.938C35.2021 30.8371 35.2698 30.7472 35.3537 30.6741C35.4375 30.6009 35.5357 30.546 35.642 30.5129C35.7485 30.4769 35.8615 30.4646 35.9732 30.4767C36.0849 30.4888 36.1927 30.525 36.289 30.583L40.81 33.198C40.9897 33.2984 41.1251 33.4627 41.1894 33.6583C41.2537 33.8539 41.2421 34.0664 41.157 34.2539C40.5439 35.4879 40.2113 36.8423 40.183 38.22L40.163 112.106C40.301 113.636 40.351 114.067 41.436 114.979C41.6004 115.104 41.7091 115.288 41.7389 115.492C41.7686 115.696 41.7169 115.904 41.595 116.07C41.5205 116.181 41.4203 116.272 41.3029 116.335C41.1855 116.398 41.0544 116.432 40.921 116.434V116.429Z" fill="#1B69FF"/>
<path d="M82.0906 66.1305C81.8507 66.2977 81.6525 66.5182 81.5117 66.7745C81.3708 67.0309 81.2911 67.3163 81.2787 67.6085V81.3635L48.5966 100.947V61.8645C48.5966 61.3175 48.2326 61.0915 47.7846 61.3645C47.5447 61.5317 47.3465 61.7522 47.2057 62.0085C47.0648 62.2649 46.9851 62.5503 46.9727 62.8425V102.916C46.9727 103.464 47.3366 103.69 47.7846 103.416L82.0906 82.8585C82.3306 82.6913 82.5288 82.471 82.6696 82.2146C82.8105 81.9582 82.8902 81.6727 82.9026 81.3805V66.6345C82.9026 66.0925 82.5386 65.8655 82.0906 66.1305Z" fill="#1B69FF"/>
<path d="M90.1101 36.9986C89.9738 36.8516 89.8717 36.6764 89.8112 36.4854C89.7507 36.2944 89.7332 36.0922 89.7601 35.8936C89.8281 34.0226 88.8381 32.9427 87.3911 33.3327C87.2298 33.3889 87.055 33.3938 86.8908 33.3467C86.7266 33.2996 86.581 33.2028 86.4741 33.0696C85.6741 32.0506 84.1831 32.3526 82.9031 33.5816V23.8886C82.9031 23.3406 82.5391 23.1156 82.091 23.3886L56.4121 38.7757C56.1697 38.9349 55.9721 39.1535 55.8381 39.4107C46.6201 56.1887 47.1441 55.1907 47.0501 55.4887C46.8401 56.1617 47.0741 56.6676 47.5501 56.5606C47.7281 56.5186 47.2581 56.7776 56.4131 51.2926C56.6531 51.1254 56.8512 50.905 56.992 50.6486C57.1329 50.3922 57.2126 50.1069 57.2251 49.8146V45.8656C57.2251 45.3186 56.8611 45.0916 56.4131 45.3656C56.1731 45.5329 55.9749 45.7532 55.8341 46.0096C55.6932 46.2659 55.6135 46.5514 55.6011 46.8437V49.8017L49.746 53.3096L56.746 40.5627L81.2771 25.8626V34.5787C79.9771 34.8727 78.4901 36.3556 77.6851 38.3196C77.4791 38.8456 77.1622 39.3211 76.7561 39.7137C76.0244 40.4129 75.4382 41.25 75.0315 42.1768C74.6247 43.1036 74.4054 44.1018 74.3861 45.1137C74.3868 45.6225 74.2741 46.1249 74.0561 46.5846L74.0031 46.7106C73.0961 48.6786 73.1031 50.7106 74.0361 51.5606C74.1653 51.7028 74.2633 51.8705 74.324 52.0529C74.3846 52.2353 74.4064 52.4284 74.3881 52.6197C74.2741 54.4047 75.2281 55.6387 76.7541 55.2297C76.9151 55.1726 77.09 55.1672 77.2542 55.2144C77.4184 55.2616 77.5638 55.3588 77.6701 55.4926C78.2651 56.2486 79.2701 56.3116 80.3611 55.6586C81.2611 55.1166 81.5021 54.5916 82.0701 54.2516C82.6381 53.9116 82.8701 54.1517 83.7801 53.6097C84.5395 53.1247 85.1852 52.4813 85.673 51.7237V59.5126L82.4891 59.5796C82.3041 59.5586 82.0261 59.6496 81.6451 60.0896C81.5451 60.2026 79.7201 62.3567 78.4671 63.8287V59.5107C78.4671 58.9627 78.1031 58.7377 77.6551 59.0107C77.4151 59.1779 77.2169 59.3982 77.0761 59.6546C76.9353 59.9109 76.8555 60.1965 76.8431 60.4887V66.3707C76.8431 67.0967 77.4631 67.2056 78.0011 66.5706C79.9641 64.2706 81.9621 61.9106 82.0691 61.7846L86.1371 61.6987C86.6741 61.6877 87.2961 60.8356 87.2961 60.1076V48.9496C87.3261 48.9196 87.3561 48.8886 87.3861 48.8606C88.1199 48.1587 88.7073 47.318 89.1141 46.3875C89.5209 45.457 89.7391 44.455 89.7561 43.4396C89.7536 42.9191 89.8735 42.4053 90.1061 41.9396C91.0511 39.9316 91.0511 37.8616 90.1101 36.9986ZM81.6011 61.7566C81.5361 61.7356 81.5381 61.7376 81.6011 61.7566V61.7566Z" fill="#1B69FF"/>
<path d="M55.5526 90.2164L52.4526 92.0714C52.2127 92.2386 52.0145 92.4591 51.8737 92.7154C51.7328 92.9718 51.6531 93.2572 51.6406 93.5494C51.6406 94.0974 52.0046 94.3234 52.4526 94.0544L55.5526 92.2004C56.4684 91.5634 57.2248 90.7234 57.7625 89.746C58.3002 88.7685 58.6048 87.68 58.6526 86.5654C58.6526 84.4814 57.2636 83.6174 55.5526 84.6404L54.7406 85.1274C53.9286 85.6134 53.2686 85.2034 53.2686 84.2124C53.2911 83.6828 53.4357 83.1656 53.691 82.701C53.9464 82.2365 54.3056 81.8373 54.7406 81.5344L57.8406 79.6794C58.0806 79.5122 58.2787 79.2918 58.4196 79.0354C58.5604 78.779 58.6402 78.4936 58.6526 78.2014C58.6526 77.6544 58.2886 77.4284 57.8406 77.7014L54.7406 79.5564C53.8246 80.1933 53.0682 81.0332 52.5305 82.0107C51.9927 82.9882 51.6882 84.0768 51.6406 85.1914C51.6406 87.2744 53.0296 88.1385 54.7406 87.1155L55.5526 86.6294C56.3636 86.1424 57.0246 86.5534 57.0246 87.5444C57.0012 88.073 56.8562 88.5891 56.6009 89.0525C56.3456 89.5159 55.9869 89.9142 55.5526 90.2164Z" fill="#1B69FF"/>
<path d="M65.0917 84.5007L61.9917 86.3557C61.7517 86.5229 61.5536 86.7433 61.4127 86.9996C61.2719 87.256 61.1921 87.5415 61.1797 87.8337C61.1797 88.3817 61.5437 88.6067 61.9927 88.3337L65.0927 86.4786C66.0086 85.8419 66.765 85.0022 67.3027 84.0249C67.8405 83.0476 68.1451 81.9592 68.1927 80.8447C68.1927 78.7607 66.8047 77.8967 65.0927 78.9197L64.2807 79.4067C63.4697 79.8927 62.8087 79.4827 62.8087 78.4917C62.8313 77.9621 62.976 77.445 63.2313 76.9805C63.4866 76.516 63.8457 76.1167 64.2807 75.8137L67.3807 73.9587C67.6207 73.7915 67.8188 73.5711 67.9597 73.3147C68.1005 73.0583 68.1802 72.7729 68.1927 72.4807C68.1927 71.9337 67.8287 71.7077 67.3807 71.9807L64.2807 73.8357C63.3647 74.4726 62.6083 75.3125 62.0705 76.29C61.5328 77.2675 61.2283 78.3561 61.1807 79.4707C61.1807 81.5537 62.5697 82.4176 64.2807 81.3946L65.0927 80.9077C65.9037 80.4217 66.5647 80.8316 66.5647 81.8226C66.5419 82.3523 66.3971 82.8696 66.1416 83.3341C65.8861 83.7986 65.5268 84.1979 65.0917 84.5007Z" fill="#1B69FF"/>
<path d="M71.8432 69.3037C71.6032 69.4709 71.4051 69.6912 71.2643 69.9476C71.1234 70.204 71.0437 70.4893 71.0312 70.7816V81.9347C71.0312 82.4817 71.3952 82.7087 71.8442 82.4347L75.9543 79.9716C76.1944 79.8043 76.3926 79.5838 76.5334 79.3272C76.6743 79.0707 76.7539 78.785 76.7662 78.4926C76.7662 77.9456 76.4023 77.7196 75.9543 77.9926L72.6542 79.9697V69.8087C72.6542 69.2587 72.2882 69.0347 71.8432 69.3037Z" fill="#1B69FF"/>
</g>
<defs>
<clipPath id="clip0_443_2730">
<rect width="129" height="125" fill="white"/>
</clipPath>
</defs>
</svg>
