<svg width="36" height="75" viewBox="0 0 36 75" fill="none" xmlns="http://www.w3.org/2000/svg">
<g clip-path="url(#clip0_443_2480)">
<mask id="mask0_443_2480" style="mask-type:luminance" maskUnits="userSpaceOnUse" x="0" y="0" width="36" height="75">
<path d="M35.0917 0H0V75H35.0917V0Z" fill="white"/>
</mask>
<g mask="url(#mask0_443_2480)">
<path d="M27.9043 49.8221C30.1182 48.5275 31.9216 49.5667 31.929 52.1433L31.9587 62.3021L10.8383 74.6443L10.8086 64.4856C10.8012 61.909 12.5897 58.7714 14.8061 57.4769L27.9043 49.8221Z" fill="white"/>
<path d="M28.4241 49.562C28.4463 49.552 28.4686 49.542 28.4909 49.532C28.5502 49.5069 28.6096 49.4844 28.6665 49.4643C28.6813 49.4593 28.6962 49.4518 28.711 49.4468C28.7828 49.4218 28.857 49.3992 28.9262 49.3792C28.9683 49.3667 29.0103 49.3567 29.0524 49.3467C29.0722 49.3417 29.092 49.3366 29.1093 49.3316C29.1711 49.3191 29.2305 49.3066 29.2899 49.2966C29.3814 49.2816 29.4704 49.274 29.557 49.269C29.5743 49.269 29.5917 49.269 29.6114 49.2665C29.6906 49.264 29.7673 49.264 29.844 49.2665C29.8563 49.2665 29.8712 49.269 29.8836 49.269C29.9454 49.274 30.0048 49.2816 30.0641 49.2916C30.0815 49.2941 30.1012 49.2966 30.1186 49.3016C30.1878 49.3141 30.2546 49.3291 30.3189 49.3492C30.3214 49.3492 30.3263 49.3492 30.3288 49.3517C30.3907 49.3692 30.45 49.3917 30.5094 49.4168C30.5267 49.4243 30.544 49.4318 30.5613 49.4393C30.6108 49.4618 30.6603 49.4869 30.7098 49.5119C30.7246 49.5219 30.7419 49.5295 30.7592 49.537L22.418 44.6291C22.418 44.6291 22.4031 44.6216 22.3957 44.6166C22.3883 44.6116 22.3784 44.6091 22.3685 44.6041C22.3215 44.5765 22.272 44.554 22.2201 44.5315C22.2102 44.5264 22.2028 44.5214 22.1929 44.5189C22.1854 44.5164 22.178 44.5139 22.1681 44.5114C22.1088 44.4864 22.0494 44.4664 21.9875 44.4463C21.9851 44.4463 21.9826 44.4463 21.9801 44.4438C21.9158 44.4238 21.849 44.4088 21.7798 44.3962C21.7723 44.3962 21.7649 44.3912 21.7575 44.3912C21.7476 44.3912 21.7352 44.3912 21.7253 44.3862C21.666 44.3762 21.6066 44.3687 21.5448 44.3637C21.5349 44.3637 21.525 44.3612 21.5151 44.3612C21.5126 44.3612 21.5076 44.3612 21.5052 44.3612C21.4285 44.3562 21.3518 44.3562 21.2726 44.3612C21.2652 44.3612 21.2578 44.3612 21.2504 44.3612C21.2405 44.3612 21.2306 44.3637 21.2207 44.3637C21.1316 44.3687 21.0451 44.3762 20.9535 44.3912C20.8942 44.4012 20.8348 44.4113 20.773 44.4263C20.7532 44.4313 20.7359 44.4363 20.7161 44.4413C20.6765 44.4513 20.6394 44.4588 20.5998 44.4689C20.5973 44.4689 20.5924 44.4689 20.5874 44.4714C20.5157 44.4914 20.444 44.5139 20.3722 44.539C20.3574 44.544 20.3425 44.5515 20.3277 44.5565C20.2683 44.5765 20.2114 44.5991 20.1521 44.6241C20.1446 44.6266 20.1372 44.6291 20.1273 44.6341C20.1125 44.6391 20.0976 44.6491 20.0828 44.6542C20.021 44.6817 19.9566 44.7117 19.8923 44.7418C19.8676 44.7543 19.8429 44.7643 19.8206 44.7768C19.7365 44.8194 19.6524 44.8645 19.5658 44.9146L6.46767 52.5693C6.33904 52.6444 6.21041 52.7271 6.08425 52.8147C6.0422 52.8423 6.00262 52.8748 5.96304 52.9049C5.87893 52.9675 5.79483 53.0301 5.71072 53.0977C5.66372 53.1352 5.6192 53.1728 5.57467 53.2128C5.49799 53.2779 5.4213 53.3456 5.34709 53.4132C5.30256 53.4557 5.25556 53.4983 5.21104 53.5409C5.18383 53.5684 5.15414 53.5935 5.12693 53.621C5.05272 53.6936 4.98098 53.7687 4.91172 53.8464C4.91172 53.8464 4.90925 53.8489 4.90677 53.8514C4.83256 53.9315 4.76083 54.0116 4.68909 54.0943C4.66683 54.1218 4.64456 54.1493 4.6223 54.1769C4.57035 54.2395 4.5184 54.3046 4.46646 54.3697C4.43183 54.4123 4.39719 54.4523 4.36504 54.4949C4.33783 54.53 4.31309 54.5675 4.28588 54.6026C4.24877 54.6526 4.21167 54.7052 4.17456 54.7553C4.14983 54.7904 4.12261 54.8254 4.09788 54.8605C4.05582 54.9206 4.01625 54.9832 3.97667 55.0458C3.95193 55.0858 3.92472 55.1234 3.89998 55.1635C3.89009 55.181 3.87772 55.196 3.86782 55.2135C3.79609 55.3262 3.72682 55.4414 3.66003 55.5566C3.65509 55.5641 3.65261 55.5716 3.64767 55.5791C3.6353 55.6017 3.62293 55.6267 3.60809 55.6492C3.56109 55.7319 3.51656 55.8145 3.47203 55.8971C3.45224 55.9372 3.43246 55.9748 3.41267 56.0148C3.39288 56.0549 3.37061 56.095 3.35082 56.1375C3.33351 56.1726 3.31372 56.2076 3.2964 56.2427C3.25188 56.3378 3.20735 56.433 3.1653 56.5307C3.15788 56.5482 3.15045 56.5657 3.14303 56.5807C3.14303 56.5857 3.13809 56.5908 3.13561 56.5958C3.08367 56.716 3.03419 56.8386 2.98967 56.9588C2.98224 56.9814 2.97482 57.0039 2.96493 57.0264C2.94761 57.0715 2.93277 57.1166 2.91793 57.1592C2.89567 57.2193 2.8734 57.2794 2.85361 57.342C2.83877 57.3895 2.8264 57.4371 2.81156 57.4847C2.79424 57.5398 2.77693 57.5974 2.76209 57.6525C2.75219 57.6875 2.73982 57.7201 2.72993 57.7551C2.71261 57.8177 2.70024 57.8803 2.6854 57.9404C2.66809 58.0105 2.65077 58.0781 2.63593 58.1482C2.63098 58.1733 2.62356 58.1958 2.61861 58.2209C2.59388 58.336 2.57409 58.4487 2.55677 58.5614C2.55182 58.5839 2.54935 58.609 2.54687 58.6315C2.53945 58.6816 2.52956 58.7317 2.52461 58.7818C2.51472 58.8494 2.51224 58.917 2.50482 58.9846C2.49987 59.0322 2.49493 59.0797 2.48998 59.1273C2.47761 59.2775 2.47266 59.4278 2.47266 59.5755L2.50235 69.7343L10.8436 74.6421L10.8139 64.4834C10.8139 64.3356 10.8213 64.1854 10.8312 64.0352C10.8337 63.9876 10.8411 63.94 10.846 63.8924C10.8584 63.7747 10.8708 63.6571 10.8881 63.5394C10.8906 63.5168 10.8955 63.4918 10.898 63.4693C10.9203 63.3315 10.9475 63.1938 10.9772 63.0561C10.992 62.986 11.0093 62.9184 11.0266 62.8483C11.0514 62.7506 11.0761 62.6555 11.1033 62.5578C11.1206 62.5027 11.1355 62.4451 11.1528 62.39C11.1874 62.2824 11.222 62.1722 11.2616 62.0645C11.2765 62.0194 11.2913 61.9744 11.3086 61.9318C11.3631 61.7816 11.4224 61.6338 11.4867 61.4861C11.4942 61.4686 11.5016 61.4535 11.509 61.436C11.5659 61.3033 11.6277 61.1731 11.6921 61.0404C11.7118 61.0003 11.7316 60.9577 11.7539 60.9177C11.8157 60.795 11.8801 60.6723 11.9493 60.5521C11.9617 60.5296 11.9741 60.5045 11.9889 60.482C12.0705 60.3417 12.1546 60.204 12.2412 60.0663C12.2659 60.0262 12.2932 59.9887 12.3179 59.9486C12.3822 59.851 12.449 59.7533 12.5158 59.6582C12.5529 59.6056 12.59 59.5555 12.6271 59.5054C12.6865 59.4253 12.7458 59.3477 12.8077 59.2725C12.8596 59.2074 12.9116 59.1423 12.9635 59.0797C13.0575 58.9696 13.1515 58.8594 13.248 58.7542C13.248 58.7542 13.2505 58.7517 13.2529 58.7492C13.3519 58.644 13.4533 58.5439 13.5547 58.4437C13.5993 58.4011 13.6438 58.3586 13.6908 58.316C13.765 58.2459 13.8417 58.1808 13.9184 58.1157C13.9629 58.0781 14.0099 58.0381 14.0544 58.0005C14.1385 57.9329 14.2226 57.8703 14.3067 57.8077C14.3463 57.7776 14.3859 57.7476 14.428 57.7176C14.5541 57.6299 14.6803 57.5473 14.8114 57.4722L27.9096 49.8174C27.9937 49.7673 28.0802 49.7223 28.1643 49.6797C28.1891 49.6672 28.2138 49.6547 28.2361 49.6446C28.3004 49.6121 28.3647 49.5845 28.4266 49.557L28.4241 49.562Z" fill="#035BE8"/>
<path d="M15.7536 46.5017C15.766 46.3239 15.7833 46.1461 15.8056 45.9684C15.8105 45.9183 15.8204 45.8682 15.8254 45.8206C15.8378 45.738 15.8501 45.6528 15.8625 45.5702C15.8724 45.5126 15.8823 45.4575 15.8922 45.3999C15.907 45.3198 15.9219 45.2372 15.9392 45.1571C15.9515 45.0919 15.9664 45.0268 15.9812 44.9617C15.9936 44.9067 16.006 44.8516 16.0183 44.799C16.0356 44.7289 16.053 44.6562 16.0703 44.5861C16.0826 44.5336 16.0975 44.4785 16.1123 44.4259C16.1247 44.3833 16.1371 44.3382 16.1494 44.2957C16.1989 44.1179 16.2533 43.9376 16.3102 43.7598C16.3152 43.7473 16.3176 43.7323 16.3226 43.7198C16.3795 43.547 16.4413 43.3742 16.5056 43.2014C16.523 43.1589 16.5378 43.1138 16.5551 43.0712C16.612 42.926 16.6689 42.7808 16.7308 42.6355C16.7406 42.613 16.7481 42.5904 16.758 42.5679C16.8272 42.4077 16.899 42.2474 16.9732 42.0896C16.993 42.0471 17.0128 42.007 17.0325 41.9669C17.0944 41.8417 17.1562 41.7165 17.2205 41.5913C17.2403 41.5538 17.2601 41.5162 17.2799 41.4762C17.3615 41.3209 17.4481 41.1657 17.5347 41.0129C17.552 40.9854 17.5693 40.9553 17.5842 40.9278C17.6609 40.7951 17.7425 40.6624 17.8217 40.5322C17.8464 40.4946 17.8687 40.4545 17.8934 40.417C17.9948 40.2592 18.0987 40.1015 18.2051 39.9462C18.2224 39.9237 18.2372 39.9011 18.2545 39.8761C18.3659 39.7158 18.4797 39.5606 18.5959 39.4053C18.6108 39.3853 18.6256 39.3653 18.6429 39.3453C18.7889 39.1549 18.9398 38.9696 19.0956 38.7869C19.1154 38.7618 19.1352 38.7393 19.1574 38.7142C19.2539 38.6041 19.3504 38.4964 19.4469 38.3887C19.4518 38.3837 19.4568 38.3787 19.4617 38.3712C19.5656 38.261 19.6695 38.1508 19.7759 38.0457C19.8427 37.9781 19.9119 37.9105 19.9812 37.8454C20.001 37.8278 20.0183 37.8078 20.0356 37.7903C20.1247 37.7051 20.2162 37.6225 20.3077 37.5424C20.3324 37.5198 20.3572 37.4998 20.3819 37.4773C20.4487 37.4197 20.5155 37.3596 20.5848 37.3045C20.6194 37.2769 20.6516 37.2494 20.6862 37.2219C20.7456 37.1743 20.8074 37.1242 20.8668 37.0791C20.9039 37.0516 20.941 37.024 20.9756 36.9965C21.035 36.9514 21.0968 36.9064 21.1562 36.8638C21.1933 36.8387 21.2279 36.8112 21.265 36.7862C21.3293 36.7411 21.3961 36.696 21.4629 36.6534C21.4951 36.6334 21.5272 36.6109 21.5569 36.5908C21.6534 36.5282 21.7523 36.4681 21.8513 36.4106C21.9824 36.3329 22.111 36.2653 22.2421 36.1977C22.2792 36.1777 22.3163 36.1602 22.3534 36.1426C22.4524 36.0951 22.5489 36.05 22.6453 36.0074C22.68 35.9924 22.7146 35.9774 22.7492 35.9623C22.8408 35.9248 22.9298 35.8897 23.0213 35.8572C23.0436 35.8497 23.0659 35.8396 23.0881 35.8321C23.1994 35.7946 23.3108 35.7595 23.4196 35.7295C23.4839 35.7119 23.5482 35.6969 23.6126 35.6819C23.6422 35.6744 23.6719 35.6669 23.7016 35.6594C23.7956 35.6393 23.8871 35.6218 23.9811 35.6068C23.9836 35.6068 23.9861 35.6068 23.991 35.6068C24.0751 35.5942 24.1592 35.5842 24.2409 35.5767C24.2681 35.5742 24.2953 35.5717 24.3225 35.5717C24.3819 35.5667 24.4412 35.5642 24.5006 35.5617C24.5278 35.5617 24.5526 35.5617 24.5773 35.5617C24.6391 35.5617 24.6985 35.5617 24.7579 35.5642C24.7777 35.5642 24.7999 35.5642 24.8197 35.5642C24.842 35.5642 24.8667 35.5692 24.889 35.5692C24.983 35.5767 25.0745 35.5867 25.166 35.6018C25.1932 35.6068 25.2229 35.6118 25.2501 35.6168C25.354 35.6368 25.4579 35.6594 25.5569 35.6894C25.5618 35.6894 25.5668 35.6919 25.5717 35.6944C25.6657 35.722 25.7572 35.757 25.8488 35.7921C25.876 35.8021 25.9007 35.8146 25.9279 35.8271C26.0046 35.8622 26.0813 35.8997 26.1555 35.9398C26.1802 35.9523 26.205 35.9648 26.2297 35.9799L17.8439 31.047C17.8439 31.047 17.8216 31.0345 17.8093 31.0269C17.7969 31.0194 17.7821 31.0144 17.7697 31.0069C17.6955 30.9668 17.6213 30.9293 17.5421 30.8942C17.5273 30.8867 17.5149 30.8792 17.5001 30.8742C17.4877 30.8692 17.4753 30.8667 17.463 30.8617C17.3714 30.8241 17.2799 30.7916 17.1859 30.7615C17.181 30.7615 17.1785 30.759 17.1735 30.7565C17.0746 30.7265 16.9707 30.7039 16.8668 30.6839C16.8544 30.6839 16.8445 30.6789 16.8322 30.6764C16.8173 30.6739 16.8 30.6739 16.7827 30.6714C16.6912 30.6563 16.5996 30.6463 16.5056 30.6388C16.4908 30.6388 16.476 30.6338 16.4611 30.6338C16.4537 30.6338 16.4438 30.6338 16.4364 30.6338C16.4166 30.6338 16.3943 30.6338 16.3745 30.6338C16.3152 30.6338 16.2533 30.6313 16.194 30.6313C16.1692 30.6313 16.142 30.6313 16.1173 30.6313C16.0975 30.6313 16.0777 30.6313 16.0579 30.6313C16.0183 30.6313 15.9812 30.6363 15.9416 30.6388C15.9144 30.6388 15.8872 30.6413 15.86 30.6438C15.7784 30.6513 15.6943 30.6614 15.6102 30.6739C15.6077 30.6739 15.6028 30.6739 15.6003 30.6739C15.5088 30.6889 15.4172 30.7064 15.3232 30.7265C15.2935 30.734 15.2639 30.7415 15.2342 30.749C15.1773 30.7615 15.1179 30.7765 15.061 30.7916C15.0561 30.7916 15.0486 30.7966 15.0437 30.7966C14.9349 30.8266 14.8235 30.8617 14.7122 30.8992C14.69 30.9068 14.6677 30.9168 14.6454 30.9243C14.5564 30.9568 14.4649 30.9919 14.3733 31.0294C14.361 31.0345 14.3486 31.037 14.3362 31.0445C14.314 31.0545 14.2917 31.067 14.2694 31.0745C14.173 31.1171 14.074 31.1622 13.9775 31.2097C13.9404 31.2273 13.9033 31.2448 13.8662 31.2648C13.7376 31.3299 13.6065 31.4 13.4754 31.4777C13.3764 31.5353 13.2775 31.5954 13.181 31.658C13.1489 31.678 13.1192 31.7005 13.087 31.7206C13.0202 31.7631 12.9559 31.8082 12.8891 31.8533C12.852 31.8783 12.8174 31.9058 12.7803 31.9309C12.7184 31.9735 12.6591 32.0185 12.5997 32.0636C12.5626 32.0911 12.5255 32.1187 12.4909 32.1462C12.429 32.1938 12.3696 32.2414 12.3103 32.289C12.2756 32.3165 12.241 32.344 12.2089 32.3716C12.1396 32.4292 12.0728 32.4868 12.006 32.5444C11.9813 32.5669 11.9565 32.5869 11.9318 32.6095C11.8403 32.6896 11.7512 32.7722 11.6597 32.8574C11.6399 32.8749 11.6226 32.8924 11.6053 32.91C11.5459 32.9675 11.4865 33.0251 11.4272 33.0827C11.4173 33.0902 11.4098 33.1003 11.4024 33.1103C11.2961 33.2154 11.1922 33.3256 11.0883 33.4358C11.0833 33.4408 11.0784 33.4483 11.071 33.4533C10.9745 33.5585 10.878 33.6662 10.7815 33.7763C10.7716 33.7864 10.7642 33.7964 10.7543 33.8064C10.742 33.8189 10.7321 33.8339 10.7197 33.849C10.5663 34.0292 10.413 34.2145 10.267 34.4074C10.2621 34.4124 10.2571 34.4174 10.2546 34.4224C10.2423 34.4374 10.2324 34.4524 10.2225 34.4674C10.1062 34.6202 9.99243 34.7779 9.88111 34.9357C9.87122 34.9507 9.85885 34.9657 9.84648 34.9833C9.84153 34.9908 9.83658 34.9983 9.83164 35.0058C9.72527 35.1611 9.62137 35.3163 9.51995 35.4766C9.51006 35.4916 9.50016 35.5066 9.49027 35.5216C9.47543 35.5442 9.46306 35.5692 9.44821 35.5917C9.36658 35.722 9.28743 35.8547 9.21074 35.9874C9.19837 36.0074 9.186 36.0274 9.17364 36.05C9.16869 36.0575 9.16621 36.065 9.16127 36.075C9.07469 36.2278 8.98811 36.383 8.90648 36.5383C8.89906 36.5508 8.89163 36.5633 8.88669 36.5758C8.87432 36.6009 8.86195 36.6284 8.84711 36.6534C8.78279 36.7761 8.72095 36.9013 8.65911 37.0265C8.64674 37.0516 8.6319 37.0791 8.61953 37.1042C8.61211 37.1192 8.60469 37.1367 8.59727 37.1517C8.52306 37.3095 8.44885 37.4698 8.38206 37.63C8.38206 37.635 8.37711 37.64 8.37463 37.645C8.36721 37.6626 8.35979 37.6801 8.35237 37.6976C8.29053 37.8428 8.23363 37.9881 8.17674 38.1333C8.16684 38.1558 8.15695 38.1809 8.14706 38.2034C8.13963 38.2235 8.13221 38.2435 8.12727 38.2635C8.06295 38.4363 8.00111 38.6091 7.94421 38.7819C7.94421 38.7844 7.94174 38.7894 7.94174 38.7919C7.93926 38.8019 7.93679 38.8119 7.93184 38.8219C7.87248 38.9997 7.82053 39.18 7.77105 39.3578C7.76363 39.3803 7.75621 39.4028 7.75126 39.4254C7.74632 39.4454 7.74137 39.4679 7.73642 39.488C7.72158 39.5406 7.70921 39.5957 7.69437 39.6482C7.67705 39.7183 7.65974 39.791 7.64242 39.8611C7.63005 39.9162 7.61769 39.9713 7.60532 40.0238C7.5979 40.0614 7.588 40.099 7.58058 40.1365C7.57563 40.1641 7.57069 40.1891 7.56574 40.2166C7.54842 40.2993 7.53358 40.3794 7.51874 40.462C7.50884 40.5171 7.49895 40.5747 7.48905 40.6298C7.47421 40.7149 7.46432 40.7976 7.45195 40.8827C7.447 40.9228 7.43958 40.9603 7.43463 41.0004C7.43463 41.0104 7.43463 41.0204 7.43216 41.0304C7.4099 41.2107 7.39258 41.3885 7.38021 41.5638C7.37774 41.6014 7.37526 41.6389 7.37279 41.6765C7.3629 41.8593 7.35547 42.0396 7.35547 42.2173C7.36042 44.1805 8.04563 45.5602 9.1489 46.2087L17.5347 51.1416C16.4314 50.4931 15.7462 49.1109 15.7413 47.1502C15.7413 46.9725 15.7487 46.7922 15.7586 46.6094C15.7586 46.5718 15.7635 46.5343 15.766 46.4967L15.7536 46.5017Z" fill="#EFF3FA"/>
<path d="M21.8539 36.4108C25.2503 34.4251 28.0109 36.0176 28.0233 39.9664C28.0332 43.9153 25.2899 48.728 21.8935 50.7111C18.4996 52.6943 15.7365 51.1018 15.7266 47.1529C15.7167 43.2041 18.46 38.3939 21.8539 36.4108Z" fill="white"/>
<path d="M5.23204 34.2656L4.88281 34.874L11.2629 38.6268L11.6121 38.0184L5.23204 34.2656Z" fill="#035BE8"/>
<path d="M2.14088 59.107C2.14335 59.0694 2.1483 59.0319 2.15078 58.9943L2.16067 58.8916C2.16562 58.8416 2.17057 58.7915 2.17551 58.7414L2.21014 58.5085C2.22993 58.3908 2.24972 58.2706 2.27693 58.1504L2.29425 58.0753C2.30909 58.0127 2.32393 57.9526 2.3462 57.8575L2.36104 57.7899C2.37093 57.7473 2.38083 57.7047 2.3932 57.6622L2.42536 57.557C2.44267 57.4994 2.45999 57.4393 2.4773 57.3817L2.49214 57.3291C2.50204 57.2966 2.51193 57.264 2.52183 57.234C2.53667 57.1914 2.55151 57.1488 2.56636 57.1063L2.66283 56.8358C2.70983 56.7081 2.76178 56.5829 2.82115 56.4427L2.84588 56.3901C2.89041 56.29 2.93246 56.1898 2.97946 56.0922L3.15757 55.7341C3.20209 55.6464 3.25157 55.5638 3.31341 55.4511L3.35299 55.381C3.42225 55.2608 3.49399 55.1431 3.5682 55.0229L3.71909 54.7951C3.74878 54.75 3.77846 54.7049 3.80815 54.6599L3.8873 54.5522C3.92441 54.4996 3.96399 54.447 4.00357 54.3944L4.0852 54.2818C4.10746 54.2542 4.12973 54.2267 4.15199 54.1991L4.19157 54.1515C4.24599 54.0839 4.29794 54.0163 4.35236 53.9512L4.42162 53.8636C4.49583 53.7785 4.57004 53.6933 4.65167 53.6057C4.72589 53.5255 4.8001 53.4479 4.87678 53.3728L4.96583 53.2877C5.01283 53.2426 5.05983 53.1975 5.10683 53.155C5.18599 53.0823 5.26515 53.0122 5.36162 52.9296C5.40368 52.8945 5.44573 52.857 5.49026 52.8219C5.57683 52.7518 5.66589 52.6842 5.75494 52.6191L5.79699 52.589C5.82668 52.5665 5.85389 52.5465 5.88357 52.5264C6.01715 52.4338 6.1532 52.3462 6.28926 52.266L12.5279 48.6202L8.95589 46.5193C7.69431 45.7756 6.99426 44.2507 6.98931 42.2225C6.98931 42.0372 6.99673 41.8494 7.0091 41.629L7.01405 41.5439C7.02642 41.3611 7.04373 41.1758 7.06599 40.9955C7.06599 40.9905 7.06847 40.9629 7.07094 40.9579L7.08826 40.8377C7.10063 40.7501 7.11299 40.665 7.12784 40.5773L7.15752 40.4046C7.17236 40.3194 7.18721 40.2368 7.21194 40.1216L7.28615 39.7836C7.30347 39.7109 7.32078 39.6383 7.34057 39.5632L7.41973 39.2652C7.47168 39.0824 7.5261 38.8971 7.58794 38.7093C7.58794 38.7043 7.59784 38.6768 7.60031 38.6718C7.65968 38.494 7.72152 38.3162 7.79573 38.1209C7.79573 38.1159 7.81057 38.0808 7.81057 38.0783L7.84026 38.0057C7.89715 37.8555 7.95652 37.7077 8.02826 37.5425L8.05052 37.4899C8.12226 37.3246 8.19647 37.1619 8.2781 36.9866C8.2781 36.9816 8.29047 36.9565 8.29294 36.9515L8.33252 36.8739C8.39437 36.7462 8.45868 36.6185 8.53784 36.4632L8.56505 36.4082L8.58484 36.3706C8.66894 36.2103 8.75552 36.0526 8.85942 35.8723L8.899 35.8072C8.97816 35.672 9.05979 35.5368 9.15873 35.3765L9.21563 35.2864C9.31952 35.1236 9.42589 34.9633 9.54958 34.7831L9.58421 34.7355C9.698 34.5727 9.81426 34.4125 9.94537 34.2422L9.98247 34.1921C10.1333 33.9968 10.2867 33.8065 10.4524 33.6112C10.4549 33.6062 10.4772 33.5811 10.4796 33.5786L10.5069 33.5461C10.6033 33.4334 10.7023 33.3232 10.8185 33.1955C10.9249 33.0803 11.0313 32.9702 11.1401 32.86L11.1673 32.8324C11.2292 32.7723 11.2885 32.7122 11.3726 32.6346L11.4098 32.5996C11.5013 32.5119 11.5953 32.4268 11.6893 32.3442L11.766 32.2765C11.8352 32.2164 11.9045 32.1564 11.9738 32.0988L12.0801 32.0136C12.142 31.9635 12.2038 31.9135 12.2681 31.8659L12.3819 31.7808C12.4438 31.7332 12.5081 31.6881 12.5699 31.643L12.6837 31.5629C12.753 31.5153 12.8198 31.4703 12.8915 31.4227L12.988 31.3576C13.0894 31.2925 13.1908 31.2299 13.2947 31.1698C13.4308 31.0896 13.5668 31.017 13.7004 30.9494L13.8166 30.8918C13.9205 30.8418 14.022 30.7942 14.1432 30.7416L14.2322 30.704C14.3287 30.664 14.4252 30.6264 14.5414 30.5838L14.5909 30.5663C14.7097 30.5262 14.8259 30.4887 14.962 30.4511C15.0114 30.4386 15.0609 30.4261 15.1104 30.4136L15.244 30.381C15.3429 30.3585 15.4419 30.3409 15.5408 30.3259C15.5458 30.3259 15.5507 30.3259 15.5557 30.3259C15.6447 30.3134 15.7338 30.3009 15.8228 30.2934L15.8847 30.2884L15.9465 30.2834C15.9787 30.2809 16.0083 30.2783 16.0405 30.2758H16.1889C16.2557 30.2733 16.3225 30.2733 16.4091 30.2758H16.4858C16.5031 30.2809 16.5179 30.2809 16.5328 30.2834C16.6367 30.2909 16.7381 30.3034 16.8395 30.3184C16.8469 30.3184 16.8815 30.3234 16.889 30.3259C16.9063 30.3284 16.9211 30.3334 16.931 30.3359C17.03 30.3535 17.1289 30.376 17.2452 30.4086C17.26 30.4111 17.2749 30.4161 17.2848 30.4186C17.3911 30.4511 17.4925 30.4887 17.5865 30.5262C17.5964 30.5287 17.6261 30.5388 17.636 30.5438C17.6533 30.5513 17.6682 30.5588 17.6806 30.5663C17.7671 30.6039 17.8512 30.6464 17.9329 30.6915C17.9428 30.6965 17.97 30.709 17.9799 30.714L26.4028 35.6695C26.4052 35.6695 26.4077 35.672 26.4102 35.6745C27.6668 36.4182 28.3619 37.9406 28.3669 39.9638C28.3718 42.0923 27.5976 44.4686 26.3533 46.5419L30.9272 49.2312C30.9272 49.2312 30.9346 49.2362 30.9395 49.2387C31.7954 49.747 32.2679 50.7761 32.2728 52.1383L32.3025 62.2996C32.3025 62.4248 32.2357 62.5425 32.1294 62.6051L11.009 74.9473C10.9546 74.9799 10.8952 74.9949 10.8359 74.9949C10.821 74.9949 10.8062 74.9949 10.7913 74.9924C10.7814 74.9924 10.7715 74.9899 10.7616 74.9874C10.7567 74.9874 10.7517 74.9874 10.7468 74.9849C10.7171 74.9774 10.6899 74.9649 10.6627 74.9498L2.32146 70.0445C2.21509 69.9819 2.1483 69.8667 2.1483 69.7415L2.12109 59.5802C2.12109 59.4225 2.12851 59.2647 2.14088 59.1045V59.107ZM17.6731 31.3501L17.6484 31.335C17.6484 31.335 17.6138 31.3175 17.6088 31.315C17.5445 31.28 17.4777 31.2474 17.4109 31.2174C17.3961 31.2098 17.3812 31.2048 17.3812 31.2023C17.3738 31.1998 17.3491 31.1898 17.3392 31.1873C17.2625 31.1573 17.1858 31.1272 17.0893 31.0972C17.0869 31.0972 17.0844 31.0972 17.0819 31.0972C16.9929 31.0721 16.9013 31.0521 16.8098 31.0346L16.7777 31.027C16.7777 31.027 16.7381 31.022 16.7331 31.022C16.6515 31.0095 16.5674 30.9995 16.4833 30.992L16.419 30.987H16.3645C16.3101 30.982 16.2557 30.982 16.1988 30.982L15.8921 30.997C15.8154 31.0045 15.7387 31.0145 15.6571 31.0245C15.6546 31.0245 15.6521 31.0245 15.6521 31.0245C15.568 31.0371 15.4814 31.0546 15.3949 31.0721L15.2737 31.1022C15.2316 31.1122 15.192 31.1222 15.1327 31.1372C15.0288 31.1648 14.9273 31.1973 14.7962 31.2449C14.7938 31.2449 14.7616 31.2574 14.7567 31.2599C14.6725 31.29 14.586 31.3225 14.4994 31.3601L14.445 31.3826C14.445 31.3826 14.4079 31.4001 14.4029 31.4026C14.3114 31.4427 14.2174 31.4853 14.0987 31.5454L14.0195 31.5854C13.8958 31.648 13.7721 31.7156 13.646 31.7883C13.552 31.8434 13.4555 31.9009 13.364 31.961L13.2724 32.0211C13.2081 32.0637 13.1463 32.1063 13.082 32.1488L12.9781 32.224C12.9187 32.2665 12.8618 32.3091 12.8024 32.3517L12.6961 32.4318C12.6367 32.4769 12.5798 32.5244 12.4957 32.5895L12.4215 32.6496C12.3547 32.7047 12.2904 32.7598 12.2261 32.8174L12.1543 32.88C12.0653 32.9576 11.9787 33.0378 11.8896 33.1229L11.8624 33.1479C11.8624 33.1479 11.8352 33.173 11.8352 33.1755C11.7783 33.2306 11.719 33.2857 11.6621 33.3433L11.6373 33.3683C11.5334 33.471 11.432 33.5761 11.3158 33.7013C11.2218 33.804 11.1278 33.9092 11.0337 34.0168L10.9991 34.0569C10.9991 34.0569 10.9769 34.0844 10.9744 34.0869C10.8235 34.2622 10.6775 34.445 10.5341 34.6303L10.5118 34.6579C10.5118 34.6579 10.492 34.6854 10.4895 34.6904C10.3757 34.8406 10.2644 34.9934 10.1556 35.1486C10.1556 35.1511 10.1358 35.1762 10.1333 35.1787L10.1086 35.2162C10.0047 35.3665 9.90332 35.5192 9.80437 35.6745L9.78458 35.707L9.75984 35.7471L9.7351 35.7872C9.65595 35.9149 9.57679 36.0426 9.50258 36.1703L9.4531 36.2554C9.36652 36.4057 9.28489 36.5559 9.20573 36.7061C9.20573 36.7061 9.18347 36.7437 9.18347 36.7462L9.14637 36.8188C9.08452 36.939 9.02268 37.0617 8.96331 37.1844L8.91879 37.272C8.91879 37.272 8.90395 37.3021 8.90395 37.3046C8.82973 37.4598 8.76047 37.6151 8.69616 37.7653L8.68131 37.8029C8.68131 37.8029 8.66894 37.8354 8.66647 37.8379C8.6071 37.9782 8.55021 38.1209 8.49579 38.2636L8.46115 38.3538C8.46115 38.3538 8.44879 38.3863 8.44879 38.3888C8.38694 38.5566 8.3251 38.7244 8.27068 38.8921C8.27068 38.8946 8.25831 38.9297 8.25831 38.9322C8.20142 39.105 8.14947 39.2803 8.1 39.453C8.1 39.4555 8.08268 39.5131 8.08021 39.5181L8.06536 39.5782L8.02579 39.7335C8.00847 39.8036 7.99115 39.8712 7.97384 39.9413L7.92189 40.1792L15.6769 44.7415L15.6843 44.7114C15.7016 44.6388 15.7189 44.5637 15.7461 44.4585L15.8179 44.1931C15.8698 44.0103 15.9242 43.825 15.9836 43.6422L15.996 43.5997C16.0553 43.4219 16.1172 43.2441 16.184 43.0688L16.2359 42.9361C16.2928 42.7859 16.3522 42.6381 16.4289 42.4603L16.4462 42.4203C16.5154 42.255 16.5921 42.0923 16.6688 41.9295L16.7307 41.8043C16.7925 41.6766 16.8568 41.5489 16.9236 41.4212L16.983 41.3035C17.0671 41.1432 17.1537 40.9855 17.2427 40.8302L17.2947 40.7426C17.3738 40.6074 17.4554 40.4722 17.5396 40.3394L17.6138 40.2218C17.7177 40.059 17.824 39.8987 17.9329 39.741L17.9823 39.6709C18.0961 39.5081 18.2124 39.3479 18.3534 39.1626L18.3806 39.1275C18.5315 38.9322 18.6849 38.7419 18.8432 38.5566L18.905 38.4815C19.004 38.3688 19.1029 38.2561 19.2167 38.1309C19.3231 38.0157 19.4295 37.9056 19.5383 37.7954C19.6076 37.7253 19.6768 37.6577 19.7683 37.57L19.8054 37.5325C19.897 37.4448 19.991 37.3597 20.085 37.277L20.1617 37.2094C20.2309 37.1493 20.3002 37.0892 20.3719 37.0317L20.4783 36.9465C20.4956 36.9315 20.5129 36.919 20.5302 36.9065C20.5624 36.8814 20.5946 36.8539 20.6267 36.8288C20.6391 36.8188 20.6515 36.8088 20.6663 36.7988L20.6985 36.7737C20.7182 36.7587 20.7405 36.7412 20.7603 36.7262L20.7776 36.7111C20.7776 36.7111 20.79 36.7036 20.7949 36.6986C21.0868 36.4783 21.3861 36.2804 21.6879 36.1027C22.5785 35.5818 23.4492 35.2839 24.2556 35.2137L17.6781 31.3451L17.6731 31.3501ZM26.049 36.2779C26.049 36.2779 26.0391 36.2729 26.0342 36.2704C26.0342 36.2704 25.9971 36.2504 25.9946 36.2504C25.9303 36.2153 25.8635 36.1828 25.7967 36.1527L25.7275 36.1227C25.6557 36.0926 25.5815 36.0651 25.4949 36.0401C25.4801 36.0351 25.4652 36.0326 25.4504 36.0275C25.3663 36.005 25.2822 35.985 25.1956 35.97L25.1214 35.9574C25.0398 35.9449 24.9557 35.9349 24.8716 35.9274C24.8691 35.9274 24.8122 35.9224 24.8097 35.9224C24.8097 35.9224 24.7528 35.9224 24.7504 35.9224C24.6959 35.9224 24.6415 35.9174 24.5871 35.9199H24.5154C24.4609 35.9224 24.409 35.9249 24.3224 35.9324H24.2804C24.2037 35.9424 24.127 35.9524 24.0404 35.9649C23.9563 35.9775 23.8697 35.995 23.7831 36.0125L23.7015 36.0326C23.6421 36.0476 23.5828 36.0601 23.5209 36.0776C23.4195 36.1052 23.3156 36.1377 23.182 36.1853C23.182 36.1853 23.1474 36.1978 23.1449 36.1978C23.0608 36.2279 22.9742 36.2604 22.8877 36.2955L22.7887 36.338C22.6972 36.3781 22.6032 36.4207 22.4943 36.4733L22.4053 36.5183C22.2816 36.5809 22.1579 36.6485 22.0318 36.7212C21.9378 36.7762 21.8413 36.8338 21.7498 36.8939L21.6582 36.954C21.5939 36.9966 21.5321 37.0392 21.4678 37.0817L21.3614 37.1569C21.302 37.1994 21.2451 37.242 21.1858 37.2846L21.0794 37.3647C21.02 37.4098 20.9631 37.4573 20.9038 37.5024L20.8048 37.5825C20.738 37.6376 20.6737 37.6927 20.6094 37.7503L20.5377 37.8129C20.4486 37.8905 20.362 37.9707 20.2755 38.0533L20.2458 38.0808C20.2458 38.0808 20.221 38.1034 20.221 38.1059C20.1542 38.1685 20.0875 38.2336 20.0231 38.2987C19.9192 38.4013 19.8178 38.5065 19.704 38.6317C19.6076 38.7344 19.5136 38.842 19.422 38.9472L19.3627 39.0173C19.2118 39.1951 19.0658 39.3754 18.9026 39.5882L18.8778 39.6208C18.764 39.771 18.6527 39.9238 18.5439 40.079L18.4944 40.1466C18.3905 40.2969 18.2891 40.4496 18.1901 40.6049L18.1184 40.7176C18.0392 40.8453 17.9601 40.973 17.8859 41.1032L17.8364 41.1883C17.7498 41.3385 17.6682 41.4888 17.5865 41.639L17.5297 41.7517C17.4678 41.8719 17.406 41.9946 17.3466 42.1173L17.2872 42.2375C17.213 42.3927 17.1438 42.548 17.0646 42.7333L17.0498 42.7708C16.9904 42.9111 16.9335 43.0538 16.8791 43.194L16.8296 43.3217C16.7678 43.4895 16.7059 43.6573 16.6515 43.8275C16.6465 43.84 16.6441 43.8526 16.6391 43.8676C16.5822 44.0429 16.5303 44.2156 16.4808 44.3909L16.4041 44.6714C16.3868 44.7415 16.3695 44.8091 16.3522 44.8792L16.2755 45.2248C16.2607 45.3049 16.2458 45.3825 16.231 45.4601L16.2013 45.6254C16.1889 45.7055 16.1765 45.7882 16.1642 45.8683L16.1444 46.011C16.1221 46.1838 16.1073 46.3541 16.0949 46.5243L16.0875 46.6345C16.0776 46.8098 16.0702 46.9826 16.0702 47.1528C16.0702 47.1528 16.0702 47.1529 16.0702 47.1554C16.0702 47.2104 16.0702 47.263 16.0702 47.3181C16.0702 47.3532 16.0702 47.3857 16.0727 47.4208C16.0727 47.4408 16.0727 47.4608 16.0727 47.4809C16.0727 47.5284 16.0776 47.5735 16.0801 47.6211C16.0801 47.6261 16.0801 47.6336 16.0801 47.6411C16.0825 47.6912 16.0875 47.7438 16.0924 47.7939C16.0924 47.7939 16.0924 47.7939 16.0924 47.7964C16.1889 48.8756 16.5229 49.747 17.0671 50.3404C17.0671 50.3404 17.0696 50.343 17.072 50.3455C17.0943 50.3705 17.119 50.3955 17.1438 50.4206C17.1462 50.4231 17.1487 50.4256 17.1512 50.4281C17.1734 50.4506 17.1982 50.4732 17.2229 50.4957C17.2279 50.4982 17.2303 50.5032 17.2353 50.5057C17.2576 50.5257 17.2823 50.5483 17.3045 50.5683C17.3095 50.5733 17.3144 50.5783 17.3194 50.5808C17.3417 50.6009 17.3664 50.6184 17.3887 50.6384C17.3961 50.6434 17.401 50.6484 17.4084 50.6534C17.4307 50.671 17.453 50.6885 17.4777 50.7035C17.4851 50.7085 17.4925 50.7135 17.5 50.7211C17.5222 50.7361 17.5445 50.7511 17.5692 50.7686C17.5767 50.7736 17.5866 50.7812 17.594 50.7862C17.6162 50.8012 17.6385 50.8137 17.6632 50.8287C17.6756 50.8362 17.6855 50.8438 17.6979 50.8513C18.7517 51.4647 20.179 51.3095 21.7127 50.4131C25.0076 48.4875 27.6792 43.805 27.6668 39.9739C27.6619 38.201 27.083 36.8914 26.0367 36.2805L26.049 36.2779ZM25.9872 47.1403C24.9111 48.7654 23.5506 50.1552 22.0713 51.019C21.0448 51.62 20.0454 51.923 19.14 51.923C18.4944 51.923 17.8933 51.7702 17.3614 51.4597C17.359 51.4597 17.3565 51.4547 17.3516 51.4547C17.3516 51.4547 17.3516 51.4547 17.3491 51.4547L13.2279 49.0309L6.64299 52.8795C6.52178 52.9496 6.40305 53.0272 6.28431 53.1099L6.17052 53.1925C6.09136 53.2526 6.00973 53.3127 5.93057 53.3753C5.89347 53.4054 5.85389 53.4379 5.79947 53.483C5.72773 53.5431 5.65847 53.6057 5.58673 53.6708L13.2996 58.208C13.2996 58.208 13.3095 58.2005 13.312 58.1955C13.3343 58.1755 13.3541 58.1555 13.3763 58.1354C13.3887 58.1229 13.4011 58.1129 13.411 58.1029C13.4258 58.0903 13.4382 58.0753 13.453 58.0628C13.4852 58.0353 13.5149 58.0052 13.547 57.9777C13.8933 57.6672 14.257 57.3942 14.633 57.1764L27.7311 49.5216C28.2011 49.2462 28.6637 49.0659 29.104 48.9783L25.9847 47.1428L25.9872 47.1403ZM11.1871 74.0384L31.6124 62.1018L31.5852 52.1458C31.5827 51.0366 31.2265 50.2178 30.5833 49.8422C30.5833 49.8422 30.561 49.8296 30.5512 49.8246C30.5116 49.8021 30.472 49.7846 30.4299 49.7645L30.3904 49.747C30.3904 49.747 30.3854 49.747 30.3829 49.7445C30.3533 49.732 30.326 49.722 30.2939 49.7119C30.2692 49.7044 30.2444 49.6944 30.2197 49.6869C30.1677 49.6719 30.1158 49.6619 30.0638 49.6518L30.0168 49.6443C29.9674 49.6368 29.9154 49.6293 29.8313 49.6243C29.767 49.6193 29.6977 49.6193 29.6309 49.6243C29.6161 49.6243 29.6013 49.6243 29.5864 49.6243C29.5097 49.6318 29.4306 49.6368 29.3514 49.6493C29.2995 49.6569 29.245 49.6669 29.1906 49.6794C29.1733 49.6819 29.156 49.6869 29.1387 49.6894C29.1016 49.6994 29.0645 49.7094 29.0274 49.7195C28.963 49.737 28.8987 49.757 28.8319 49.7796C28.8171 49.7846 28.8047 49.7871 28.7899 49.7921C28.7355 49.8121 28.6835 49.8346 28.6291 49.8547L28.5969 49.8697C28.5969 49.8697 28.5747 49.8797 28.5673 49.8822C28.5079 49.9073 28.4485 49.9348 28.3817 49.9699L28.3248 49.9974C28.2927 50.0149 28.258 50.0325 28.2259 50.05C28.1814 50.075 28.1344 50.1001 28.0898 50.1251L14.9917 57.7799C14.9694 57.7924 14.9471 57.8074 14.9249 57.8224C14.8259 57.8825 14.7294 57.9451 14.633 58.0127L14.5167 58.0979C14.4375 58.1555 14.3559 58.2156 14.2768 58.2807C14.2397 58.3107 14.2001 58.3433 14.1457 58.3908C14.0739 58.4534 13.9997 58.516 13.9304 58.5811C13.8859 58.6212 13.8439 58.6613 13.8018 58.7038C13.7053 58.799 13.6064 58.8941 13.5099 58.9993C13.4159 59.0995 13.3269 59.2071 13.2378 59.3123C13.1859 59.3724 13.1364 59.435 13.0869 59.4976C13.0275 59.5727 12.9706 59.6453 12.9113 59.723C12.8742 59.7705 12.8395 59.8206 12.8049 59.8707C12.7406 59.9633 12.6763 60.056 12.6144 60.1511L12.5402 60.2638C12.4561 60.3965 12.3745 60.5293 12.2978 60.6645L12.2607 60.7321C12.1964 60.8498 12.1321 60.9649 12.0727 61.0826L12.0133 61.2003C11.9515 61.3255 11.8921 61.4532 11.8352 61.5809H11.8328C11.8253 61.596 11.8179 61.611 11.813 61.626H11.8154C11.7536 61.7687 11.6967 61.914 11.6448 62.0567L11.6002 62.1844C11.5631 62.2871 11.5285 62.3922 11.4963 62.4974C11.479 62.55 11.4642 62.6051 11.4469 62.6577C11.4196 62.7503 11.3974 62.843 11.3751 62.9331L11.3652 62.9682C11.3504 63.0232 11.338 63.0783 11.3256 63.1309C11.296 63.2636 11.2712 63.3938 11.249 63.524L11.2391 63.5917C11.2218 63.7043 11.2094 63.8145 11.1995 63.9247L11.1871 64.0599C11.1772 64.2026 11.1698 64.3429 11.1698 64.4806L11.197 74.0334L11.1871 74.0384ZM2.84836 69.5387L10.492 74.0359L10.4697 66.3686L2.82609 61.8714L2.84836 69.5412V69.5387Z" fill="#035BE8"/>
<path d="M33.6773 7.41454C33.702 7.40954 33.7268 7.40202 33.749 7.39952C33.7663 7.39701 33.7861 7.39201 33.8034 7.39201C33.8208 7.39201 33.8406 7.387 33.8579 7.387C33.8777 7.387 33.895 7.3845 33.9148 7.3845C33.9296 7.3845 33.9445 7.3845 33.9593 7.3845C33.9791 7.3845 33.9989 7.3845 34.0162 7.3895C34.0286 7.3895 34.0409 7.39201 34.0533 7.39451C34.0731 7.39702 34.0929 7.40202 34.1127 7.40703C34.1226 7.40703 34.1325 7.41204 34.1423 7.41454C34.1671 7.42206 34.1893 7.42957 34.2116 7.43958C34.2166 7.43958 34.2215 7.44209 34.224 7.44459C34.2512 7.45711 34.2784 7.46963 34.3056 7.48466L27.9037 3.71863C27.9037 3.71863 27.8988 3.71613 27.8963 3.71362C27.874 3.7011 27.8493 3.68858 27.8245 3.67857C27.8196 3.67857 27.8171 3.67606 27.8122 3.67356C27.7924 3.66605 27.7726 3.65853 27.7503 3.65102C27.7479 3.65102 27.7429 3.65102 27.7404 3.65102C27.7305 3.64852 27.7207 3.64601 27.7108 3.64351C27.6984 3.64101 27.6835 3.636 27.6712 3.63349C27.6662 3.63349 27.6588 3.63349 27.6539 3.63349C27.6415 3.63349 27.6291 3.63099 27.6168 3.62849C27.6069 3.62849 27.597 3.62598 27.5846 3.62598C27.5772 3.62598 27.5673 3.62598 27.5599 3.62598C27.545 3.62598 27.5302 3.62598 27.5153 3.62598C27.5054 3.62598 27.498 3.62598 27.4881 3.62598C27.4782 3.62598 27.4683 3.62598 27.4584 3.62849C27.4411 3.62849 27.4238 3.63099 27.404 3.63349C27.3966 3.63349 27.3867 3.63349 27.3793 3.636C27.3694 3.636 27.3595 3.64101 27.3521 3.64101C27.3273 3.64601 27.3051 3.65102 27.2803 3.65603C27.2704 3.65603 27.2605 3.65853 27.2507 3.66354C27.2457 3.66354 27.2383 3.66855 27.2309 3.67105C27.1789 3.68608 27.127 3.70361 27.0701 3.72614L19.9557 6.68087C19.9063 6.7009 19.8568 6.71843 19.8073 6.73345C19.7925 6.73846 19.7752 6.74097 19.7603 6.74597C19.7356 6.75349 19.7084 6.75849 19.6836 6.7635C19.6663 6.76601 19.649 6.76851 19.6317 6.77101C19.6119 6.77352 19.5946 6.77602 19.5748 6.77602C19.555 6.77602 19.5377 6.77853 19.5204 6.77853C19.5055 6.77853 19.4907 6.77853 19.4758 6.77853C19.4561 6.77853 19.4363 6.77853 19.419 6.77352C19.4066 6.77352 19.3917 6.77101 19.3794 6.76851C19.3596 6.76601 19.3398 6.761 19.32 6.75599C19.3101 6.75349 19.2977 6.75098 19.2878 6.74848C19.2656 6.74097 19.2408 6.73345 19.2186 6.72594C19.2136 6.72594 19.2062 6.72093 19.2013 6.72093C19.1716 6.70841 19.1444 6.69589 19.1172 6.67837L25.5191 10.4444C25.5191 10.4444 25.524 10.4469 25.5265 10.4494C25.5512 10.4619 25.576 10.4745 25.6007 10.487C25.6007 10.487 25.6007 10.487 25.6032 10.487C25.6081 10.487 25.6155 10.492 25.6205 10.4945C25.6403 10.502 25.6576 10.5095 25.6774 10.5145C25.6799 10.5145 25.6848 10.5145 25.6898 10.517C25.6996 10.5195 25.712 10.522 25.7219 10.5245C25.7343 10.527 25.7466 10.5321 25.7615 10.5346C25.7689 10.5346 25.7763 10.5346 25.7813 10.5346C25.7936 10.5346 25.806 10.5371 25.8209 10.5396C25.8308 10.5396 25.8406 10.5421 25.8505 10.5421C25.8604 10.5421 25.8679 10.5421 25.8778 10.5421C25.8926 10.5421 25.9074 10.5421 25.9223 10.5421C25.9297 10.5421 25.9396 10.5421 25.947 10.5421C25.9569 10.5421 25.9668 10.5421 25.9767 10.5396C25.994 10.5396 26.0138 10.5371 26.0336 10.5346C26.041 10.5346 26.0509 10.5346 26.0583 10.5346C26.0682 10.5346 26.0756 10.5295 26.0855 10.5295C26.1103 10.5245 26.135 10.5195 26.1622 10.512C26.1721 10.512 26.182 10.5095 26.1919 10.507C26.1969 10.507 26.2043 10.502 26.2092 10.502C26.2587 10.487 26.3082 10.472 26.3576 10.4494L33.472 7.49467C33.5264 7.47214 33.5808 7.45461 33.6328 7.43958C33.6501 7.43458 33.6649 7.42957 33.6822 7.42706L33.6773 7.41454Z" fill="white"/>
<path d="M12.811 29.6475C12.811 29.61 12.811 29.5749 12.811 29.5374C12.811 29.5073 12.811 29.4748 12.811 29.4447C12.811 29.4097 12.8036 29.3771 12.7987 29.342C12.7962 29.3145 12.7937 29.2845 12.7888 29.2569C12.7838 29.2244 12.7739 29.1943 12.764 29.1618C12.7566 29.1367 12.7517 29.1092 12.7442 29.0866C12.7343 29.0566 12.722 29.029 12.7096 28.999C12.6997 28.9765 12.6923 28.9539 12.6824 28.9339C12.6676 28.9064 12.6502 28.8813 12.6329 28.8538C12.623 28.8362 12.6131 28.8162 12.6008 28.8012C12.581 28.7736 12.5587 28.7511 12.5365 28.7286C12.5241 28.716 12.5142 28.7035 12.5018 28.691C12.4647 28.6585 12.4276 28.6284 12.3856 28.6059L5.98364 24.8398C6.02569 24.8649 6.06527 24.8924 6.0999 24.925C6.11227 24.935 6.12217 24.95 6.13454 24.9625C6.1568 24.9851 6.17906 25.0076 6.19885 25.0352C6.21122 25.0527 6.22112 25.0702 6.23101 25.0877C6.24833 25.1128 6.26564 25.1378 6.27801 25.1654C6.28791 25.1854 6.29533 25.2079 6.30522 25.2305C6.31759 25.258 6.32996 25.2856 6.33985 25.3181C6.34727 25.3406 6.35222 25.3682 6.35964 25.3907C6.36706 25.4233 6.37696 25.4533 6.38438 25.4884C6.38933 25.5159 6.3918 25.5435 6.39427 25.571C6.39922 25.6061 6.40417 25.6386 6.40664 25.6737C6.40664 25.7037 6.40664 25.7363 6.40664 25.7663C6.40664 25.8039 6.40912 25.8389 6.40664 25.8765C6.40664 25.9091 6.4017 25.9416 6.39922 25.9767C6.39675 26.0167 6.39427 26.0568 6.38933 26.0994L5.19701 35.0462C5.19701 35.0462 5.19701 35.0562 5.19701 35.0612C5.19206 35.1013 5.18959 35.1388 5.18711 35.1764C5.18464 35.2114 5.17969 35.249 5.17969 35.2841C5.17969 35.3241 5.17969 35.3592 5.17969 35.3967C5.17969 35.4293 5.17969 35.4618 5.17969 35.4944C5.18217 35.532 5.18959 35.5645 5.19206 35.5996C5.19701 35.6271 5.19948 35.6572 5.20443 35.6847C5.21185 35.7172 5.22175 35.7473 5.22917 35.7798C5.23659 35.8049 5.24153 35.8299 5.24896 35.855C5.25885 35.885 5.27369 35.9126 5.28606 35.9401C5.29596 35.9601 5.30338 35.9827 5.31327 36.0027C5.32811 36.0302 5.34543 36.0528 5.36027 36.0778C5.37264 36.0954 5.38006 36.1129 5.39243 36.1279C5.41222 36.1529 5.43448 36.173 5.45675 36.1955C5.46911 36.2055 5.47654 36.2206 5.4889 36.2306C5.52354 36.2606 5.56064 36.2882 5.60022 36.3107L12.0021 40.0767C11.9626 40.0542 11.9255 40.0266 11.8908 39.9966C11.8785 39.9866 11.871 39.9741 11.8587 39.9615C11.8364 39.939 11.8141 39.919 11.7943 39.8914C11.782 39.8764 11.7721 39.8589 11.7622 39.8413C11.7449 39.8163 11.7276 39.7938 11.7127 39.7662C11.7028 39.7462 11.6954 39.7237 11.6855 39.7036C11.6731 39.6761 11.6608 39.651 11.6484 39.621C11.641 39.5985 11.636 39.5709 11.6286 39.5459C11.6212 39.5158 11.6113 39.4858 11.6039 39.4507C11.5989 39.4232 11.5965 39.3956 11.5915 39.3656C11.5866 39.3305 11.5816 39.298 11.5767 39.2604C11.5767 39.2304 11.5767 39.1978 11.5767 39.1653C11.5767 39.1277 11.5742 39.0901 11.5767 39.0501C11.5767 39.015 11.5816 38.98 11.5841 38.9424C11.5866 38.8998 11.589 38.8573 11.5965 38.8122L12.7888 29.8654C12.7888 29.8654 12.7888 29.8554 12.7888 29.8504C12.7937 29.8128 12.7937 29.7777 12.7987 29.7402C12.8011 29.7076 12.8061 29.6726 12.8061 29.64L12.811 29.6475Z" fill="#EFF3FA"/>
<path d="M19.6268 5.50615C19.6268 5.50615 19.6367 5.48862 19.6417 5.48111C19.6837 5.40349 19.7282 5.32837 19.7752 5.25575C19.7827 5.24573 19.7901 5.23572 19.795 5.2232C19.842 5.15309 19.8915 5.08297 19.941 5.01787C19.9509 5.00535 19.9608 4.99533 19.9707 4.98281C20.0102 4.93273 20.0523 4.88516 20.0943 4.84009C20.1166 4.81505 20.1413 4.79001 20.1636 4.76497C20.2106 4.71739 20.2551 4.66981 20.3046 4.62725C20.3096 4.62224 20.317 4.61473 20.3219 4.60972C20.3788 4.55964 20.4357 4.51457 20.4926 4.46949C20.505 4.45948 20.5198 4.44946 20.5322 4.43944C20.5916 4.39688 20.6485 4.35681 20.7078 4.32426C20.7697 4.2867 20.834 4.25665 20.8958 4.22911C20.9131 4.2216 20.9305 4.21408 20.9478 4.20657C20.9849 4.19155 21.0245 4.17903 21.0616 4.16651C21.0789 4.1615 21.0962 4.15399 21.1135 4.15148C21.1333 4.14648 21.1531 4.14147 21.1729 4.13896C21.1976 4.13396 21.2223 4.12895 21.2471 4.12644C21.2619 4.12644 21.2768 4.12394 21.2916 4.12144C21.3188 4.11893 21.3485 4.11643 21.3757 4.11643C21.3881 4.11643 21.398 4.11643 21.4103 4.11643C21.4475 4.11643 21.4846 4.12144 21.5217 4.12644C21.5241 4.12644 21.5266 4.12644 21.5316 4.12644C21.5662 4.13396 21.5983 4.14147 21.6305 4.15399C21.6379 4.15649 21.6478 4.159 21.6552 4.1615C21.6899 4.17402 21.7245 4.18904 21.7567 4.20908L15.3548 0.448054C15.3548 0.448054 15.3498 0.44555 15.3473 0.443046C15.3251 0.430526 15.3003 0.418006 15.2756 0.40799C15.2682 0.405486 15.2608 0.402982 15.2533 0.400478C15.2459 0.397974 15.2385 0.39547 15.2286 0.392966C15.2187 0.390462 15.2088 0.385454 15.1989 0.38295C15.1767 0.375438 15.1544 0.37043 15.1297 0.367926C15.1272 0.367926 15.1247 0.367926 15.1198 0.367926C15.1198 0.367926 15.1198 0.367926 15.1173 0.367926C15.0876 0.362918 15.0604 0.360414 15.0307 0.35791C15.0233 0.35791 15.0159 0.35791 15.0084 0.35791C14.9961 0.35791 14.9862 0.35791 14.9738 0.35791C14.9614 0.35791 14.9466 0.35791 14.9342 0.35791C14.9194 0.35791 14.9045 0.360414 14.8922 0.362918C14.8773 0.362918 14.8625 0.362918 14.8477 0.367926C14.8402 0.367926 14.8328 0.367926 14.8254 0.367926C14.8081 0.37043 14.7908 0.375438 14.7734 0.380446C14.7537 0.385454 14.7339 0.387958 14.7141 0.392966C14.7091 0.392966 14.7017 0.392966 14.6968 0.39547C14.6844 0.397974 14.6745 0.402982 14.6621 0.40799C14.625 0.42051 14.5854 0.43303 14.5483 0.448054C14.5384 0.450558 14.5285 0.453062 14.5211 0.45807C14.5137 0.460574 14.5063 0.465582 14.4964 0.47059C14.4345 0.498135 14.3702 0.528183 14.3084 0.565743C14.249 0.600799 14.1921 0.640863 14.1328 0.680927C14.1204 0.690943 14.1055 0.700959 14.0932 0.710975C14.0363 0.753543 13.9794 0.801119 13.9225 0.8512C13.9175 0.856208 13.9101 0.86372 13.9052 0.868728C13.873 0.898776 13.8384 0.928824 13.8062 0.961376C13.7914 0.9764 13.779 0.991424 13.7642 1.00645C13.7394 1.03149 13.7172 1.05653 13.6949 1.08157C13.6801 1.0991 13.6628 1.11663 13.6454 1.13416C13.6207 1.1642 13.596 1.19425 13.5712 1.2243C13.5613 1.23682 13.5514 1.24684 13.5415 1.25936C13.5366 1.26436 13.5317 1.26937 13.5267 1.27688C13.4945 1.31945 13.4624 1.36202 13.4302 1.40709C13.4179 1.42462 13.4055 1.44465 13.3931 1.46469C13.3857 1.4747 13.3783 1.48472 13.3709 1.49724C13.3634 1.50976 13.3535 1.52228 13.3461 1.5348C13.3214 1.57486 13.2967 1.61493 13.2719 1.65749C13.2595 1.67753 13.2472 1.70006 13.2373 1.7226C13.2323 1.73261 13.2274 1.74013 13.2224 1.75014C13.2175 1.76016 13.2101 1.77017 13.2051 1.78269C13.1829 1.82276 13.1631 1.86533 13.1433 1.90789C13.1284 1.93794 13.1161 1.96799 13.1012 1.99804C13.0988 2.00555 13.0938 2.01306 13.0913 2.02057C13.0889 2.02558 13.0864 2.03309 13.0839 2.0381C13.0641 2.08317 13.0468 2.13075 13.027 2.17582C13.0122 2.21839 12.9949 2.25846 12.9825 2.30353L9.82356 11.6585C9.79883 11.7336 9.77161 11.8062 9.73946 11.8788C9.73698 11.8863 9.73451 11.8938 9.72956 11.9013C9.69988 11.969 9.66772 12.0391 9.63556 12.1042C9.63061 12.1142 9.62567 12.1267 9.61825 12.1367C9.58609 12.2018 9.54898 12.2644 9.51188 12.327C9.50446 12.3395 9.49703 12.3521 9.48961 12.3646C9.45003 12.4272 9.41046 12.4898 9.3684 12.5524C9.36346 12.5574 9.35851 12.5649 9.35604 12.5699C9.31893 12.6225 9.27935 12.6751 9.23977 12.7252C9.22493 12.7452 9.21009 12.7627 9.19277 12.7828C9.16309 12.8178 9.1334 12.8504 9.10372 12.8829C9.07651 12.913 9.05177 12.9405 9.02456 12.9681C8.98993 13.0031 8.95777 13.0357 8.92314 13.0682C8.90582 13.0832 8.89098 13.1008 8.87367 13.1158C8.81924 13.1634 8.7673 13.2084 8.7104 13.251L1.60349 18.6096C1.5367 18.6597 1.47239 18.7147 1.40807 18.7723C1.39323 18.7874 1.37592 18.7999 1.36107 18.8149C1.34623 18.8299 1.32892 18.8425 1.31407 18.8575C1.28439 18.8875 1.2547 18.9201 1.22502 18.9526C1.20523 18.9727 1.18544 18.9927 1.16813 19.0127C1.16318 19.0202 1.15576 19.0252 1.15081 19.0328C1.11123 19.0803 1.07165 19.1279 1.03455 19.1755C1.02713 19.1855 1.0197 19.1955 1.01228 19.2055C1.00239 19.2181 0.994963 19.2281 0.987542 19.2406C0.970226 19.2631 0.955384 19.2857 0.938068 19.3082C0.908384 19.3508 0.881174 19.3908 0.853963 19.4334C0.851489 19.4384 0.846542 19.4434 0.844068 19.4509C0.839121 19.4584 0.836647 19.4659 0.8317 19.4735C0.814384 19.501 0.797068 19.5285 0.779752 19.5586C0.755016 19.5987 0.732752 19.6412 0.710489 19.6838C0.708015 19.6888 0.705542 19.6963 0.700594 19.7013C0.695647 19.7088 0.693173 19.7163 0.6907 19.7239C0.675857 19.7514 0.661015 19.7815 0.646173 19.8115C0.626384 19.8541 0.606594 19.8991 0.586805 19.9417C0.586805 19.9467 0.581857 19.9517 0.579384 19.9567C0.57691 19.9642 0.574436 19.9718 0.569489 19.9793C0.55712 20.0118 0.542278 20.0419 0.52991 20.0744C0.512594 20.122 0.495278 20.1721 0.477962 20.2197C0.460647 20.2722 0.445804 20.3223 0.430962 20.3749C0.426015 20.3974 0.421068 20.42 0.41612 20.44C0.411173 20.46 0.406225 20.4801 0.401278 20.5001C0.396331 20.5176 0.391383 20.5352 0.38891 20.5502C0.381489 20.5852 0.376541 20.6203 0.371594 20.6579C0.366646 20.6879 0.361699 20.7154 0.356752 20.7455C0.356752 20.753 0.354278 20.763 0.351804 20.7705C0.344383 20.8256 0.34191 20.8782 0.339436 20.9308C0.339436 20.9433 0.336962 20.9583 0.336962 20.9709C0.334488 21.0435 0.336962 21.1161 0.339436 21.1837C0.339436 21.2037 0.344383 21.2213 0.346857 21.2413C0.351804 21.2889 0.359225 21.3364 0.366646 21.384C0.371594 21.4066 0.376541 21.4291 0.383962 21.4516C0.393857 21.4917 0.406225 21.5292 0.418594 21.5668C0.426015 21.5893 0.43591 21.6119 0.445804 21.6319C0.460647 21.667 0.477962 21.6995 0.497752 21.7296C0.51012 21.7496 0.520015 21.7671 0.532384 21.7847C0.554647 21.8172 0.579384 21.8448 0.606594 21.8723C0.618963 21.8848 0.631331 21.8998 0.6437 21.9124C0.685752 21.9499 0.732752 21.985 0.782226 22.0125L7.18414 25.7785C7.13219 25.751 7.08766 25.7159 7.04561 25.6784C7.03077 25.6659 7.02087 25.6508 7.0085 25.6383C6.98129 25.6108 6.95656 25.5807 6.93429 25.5507C6.92192 25.5332 6.90956 25.5131 6.89966 25.4956C6.87987 25.463 6.86256 25.4305 6.84771 25.3954C6.83782 25.3754 6.82792 25.3529 6.8205 25.3303C6.80566 25.2928 6.79577 25.2552 6.78587 25.2151C6.78092 25.1926 6.7735 25.1701 6.76856 25.1475C6.75866 25.1025 6.75371 25.0549 6.74877 25.0048C6.74877 24.9848 6.74382 24.9673 6.74135 24.9472C6.7364 24.8771 6.73392 24.807 6.73887 24.7344C6.73887 24.7219 6.74135 24.7068 6.74135 24.6943C6.74382 24.6342 6.75124 24.5716 6.75866 24.509C6.76361 24.4815 6.76856 24.4514 6.7735 24.4214C6.7834 24.3688 6.79082 24.3162 6.80319 24.2636C6.80814 24.2436 6.81308 24.2236 6.81803 24.201C6.83535 24.1284 6.85514 24.0533 6.87987 23.9807C6.90708 23.9005 6.93677 23.8204 6.96892 23.7403C6.9714 23.7328 6.97387 23.7253 6.97882 23.7178C7.01098 23.6401 7.04808 23.5625 7.08766 23.4849C7.09014 23.4774 7.09508 23.4699 7.09756 23.4623C7.13714 23.3847 7.17919 23.3096 7.22619 23.237C7.23114 23.2295 7.23361 23.222 7.23856 23.2144C7.28308 23.1443 7.33008 23.0742 7.37956 23.0066C7.38698 22.9941 7.39687 22.9841 7.40429 22.9716C7.45377 22.9039 7.50572 22.8413 7.56014 22.7787C7.57745 22.7587 7.59724 22.7387 7.61703 22.7187C7.66156 22.6711 7.70608 22.626 7.75061 22.5809C7.76545 22.5659 7.78029 22.5509 7.79761 22.5384C7.85945 22.4808 7.92377 22.4257 7.99303 22.3756L15.1 17.017C15.1544 16.9745 15.2088 16.9294 15.2632 16.8818C15.2805 16.8668 15.2954 16.8518 15.3127 16.8342C15.3374 16.8117 15.3597 16.7917 15.3844 16.7691C15.3943 16.7591 15.4042 16.7466 15.4166 16.7341C15.4438 16.7065 15.4685 16.6765 15.4958 16.6489C15.5131 16.6314 15.5304 16.6139 15.5452 16.5939C15.5576 16.5788 15.57 16.5638 15.5823 16.5463C15.5972 16.5287 15.612 16.5087 15.6293 16.4887C15.6417 16.4737 15.6541 16.4611 15.664 16.4461C15.6912 16.4111 15.7184 16.3735 15.7456 16.3359C15.7505 16.3309 15.7555 16.3234 15.758 16.3184C15.758 16.3184 15.7604 16.3134 15.7629 16.3134C15.7926 16.2708 15.8198 16.2283 15.847 16.1857C15.8569 16.1682 15.8693 16.1506 15.8792 16.1331C15.8866 16.1206 15.894 16.1081 15.9014 16.0981C15.9089 16.0855 15.9163 16.073 15.9237 16.0605C15.9484 16.0204 15.9707 15.9779 15.993 15.9353C15.9979 15.9253 16.0029 15.9153 16.0078 15.9053C16.0128 15.8952 16.0177 15.8827 16.0251 15.8727C16.035 15.8502 16.0474 15.8301 16.0573 15.8076C16.0771 15.765 16.0969 15.7225 16.1142 15.6799C16.1142 15.6749 16.1167 15.6724 16.1191 15.6674C16.1216 15.6599 16.1241 15.6523 16.1265 15.6473C16.1414 15.6148 16.1538 15.5797 16.1661 15.5472C16.181 15.5071 16.1958 15.4671 16.2082 15.427L19.3671 6.07206C19.3992 5.9744 19.4363 5.88175 19.4759 5.7891C19.4784 5.78159 19.4833 5.77408 19.4858 5.76907C19.5229 5.68394 19.565 5.6013 19.607 5.52118L19.6268 5.50615Z" fill="#EFF3FA"/>
<path d="M20.7079 4.32452C21.2348 4.01653 21.7617 4.02905 22.0363 4.50981L25.2372 10.1463C25.4549 10.5269 25.8705 10.6346 26.3529 10.4368L33.4672 7.48207C34.6793 6.97626 35.1691 8.42608 34.2934 9.93349L29.1655 18.7751C28.8191 19.3736 28.6608 20.0347 28.7449 20.5455L29.9843 28.0725C30.15 29.0891 29.3955 30.4338 28.5347 30.9371C28.3071 31.0698 28.0721 31.1449 27.847 31.1374L21.4748 30.9646C21.2596 30.9596 21.0221 31.0297 20.7871 31.17C20.5521 31.3102 20.3146 31.5105 20.0994 31.7684L13.7494 39.3756C13.5243 39.646 13.2893 39.8464 13.0617 39.9791C12.2009 40.4824 11.439 40.0241 11.5998 38.8172L12.7921 29.8704C12.8737 29.2644 12.713 28.7887 12.3642 28.5984L7.20163 25.7713C6.321 25.2906 6.80089 23.2748 8.013 22.3634L15.1199 17.0048C15.5998 16.6417 16.0153 16.0483 16.2305 15.4148L19.3894 6.05979C19.6591 5.26352 20.1835 4.63501 20.7104 4.32702L20.7079 4.32452Z" fill="#EFF3FA"/>
<path d="M0 20.9436V20.8986C0.00742107 20.8385 0.00989475 20.7759 0.0222632 20.6857L0.0346316 20.6131L0.0445264 20.5555C0.0494738 20.5255 0.0544211 20.4954 0.0593685 20.4654L0.106369 20.2676C0.121211 20.21 0.138527 20.1524 0.150895 20.1248C0.150895 20.1198 0.153369 20.1148 0.155842 20.1098C0.155842 20.1048 0.158316 20.0973 0.16079 20.0923C0.178106 20.0397 0.197895 19.9846 0.217685 19.932L0.262211 19.8244C0.262211 19.8244 0.277053 19.7868 0.279527 19.7843C0.299316 19.7367 0.32158 19.6891 0.343843 19.6416L0.393316 19.5414C0.393316 19.5414 0.410632 19.5063 0.413106 19.5038C0.437843 19.4588 0.46258 19.4137 0.487317 19.3686L0.568948 19.2334C0.598633 19.1858 0.628317 19.1408 0.660475 19.0957L0.722317 19.0106C0.722317 19.0106 0.742107 18.983 0.74458 18.9805L0.769317 18.948C0.81137 18.8929 0.853423 18.8403 0.917738 18.7677L1.00679 18.67C1.03153 18.6425 1.05379 18.6174 1.081 18.5924L1.18242 18.4972C1.25416 18.4321 1.3259 18.3695 1.40258 18.3119L8.50949 12.9534C8.55649 12.9183 8.60349 12.8782 8.65049 12.8357C8.65049 12.8357 8.69502 12.7956 8.69502 12.7931C8.7247 12.7656 8.75686 12.7355 8.78654 12.703C8.81128 12.6779 8.83354 12.6529 8.8558 12.6278C8.88302 12.5978 8.91023 12.5677 8.93496 12.5377L8.97702 12.4876C9.01412 12.4425 9.04875 12.395 9.09328 12.3324C9.13038 12.2773 9.16749 12.2197 9.20212 12.1621L9.22191 12.1295C9.25407 12.0745 9.28623 12.0169 9.33075 11.9292C9.36044 11.8691 9.39012 11.809 9.42475 11.7264C9.45196 11.6613 9.4767 11.5962 9.49896 11.5286L12.6579 2.1736C12.6727 2.12603 12.69 2.08096 12.7073 2.03588C12.7271 1.9833 12.7469 1.93322 12.7667 1.88815C12.7667 1.88564 12.789 1.83807 12.789 1.83556L12.831 1.74041C12.8533 1.69283 12.8755 1.64776 12.9003 1.60269L12.9275 1.55511L12.9498 1.51755L12.977 1.46998C13.0042 1.42491 13.0314 1.37983 13.0586 1.33727L13.1501 1.19955C13.1848 1.14947 13.2194 1.10189 13.2689 1.03929C13.2713 1.03679 13.2911 1.01175 13.2936 1.00924L13.3159 0.979192C13.3381 0.951648 13.3604 0.924104 13.3827 0.89656L13.4371 0.836464C13.4643 0.80892 13.489 0.778872 13.5237 0.741312L13.5608 0.701247C13.5954 0.666191 13.6325 0.631135 13.6919 0.578551C13.7562 0.520959 13.8205 0.468375 13.8848 0.420799L13.9318 0.385743C13.9986 0.338166 14.0654 0.29059 14.1347 0.250526C14.2089 0.207958 14.2831 0.170398 14.3449 0.145358C14.3598 0.137846 14.3746 0.130334 14.4216 0.112806C14.4686 0.0927735 14.5156 0.0777494 14.5577 0.0652294C14.575 0.0577174 14.5923 0.0527094 14.6319 0.0426934L14.7184 0.0226613C14.7382 0.0176533 14.758 0.0126453 14.8026 0.00763722C14.8248 0.00513322 14.8446 0.00262921 14.8693 0.000125201C14.8792 0.000125201 14.9163 -0.00488281 14.9238 -0.00488281H15.0153C15.0153 -0.00488281 15.045 -0.00488281 15.0549 -0.00488281C15.0969 -0.0023788 15.139 0.00262921 15.1959 0.0126453C15.2305 0.0201573 15.2651 0.0276693 15.2948 0.0351813C15.3097 0.0401893 15.3245 0.0451974 15.369 0.0602214C15.3764 0.0627254 15.3987 0.0702374 15.4086 0.0752454C15.4457 0.0902695 15.4828 0.107798 15.5298 0.135342C15.5298 0.135342 21.9441 3.90888 21.9515 3.91389C22.1074 4.01154 22.2385 4.14927 22.3399 4.32455L22.9534 5.40628L22.7827 5.1058L26.9335 3.38304C27.0003 3.3555 27.0646 3.33296 27.1166 3.32044L27.1537 3.30792C27.1537 3.30792 27.1883 3.30041 27.1908 3.30041C27.2229 3.2929 27.2526 3.28538 27.2798 3.28038L27.3169 3.27286C27.3169 3.27286 27.3516 3.26786 27.354 3.26786C27.3788 3.26535 27.4035 3.26285 27.4258 3.26034L27.4703 3.25533C27.4703 3.25533 27.4777 3.25533 27.4852 3.25533C27.495 3.25533 27.5049 3.25533 27.5049 3.25533H27.6014C27.6014 3.25533 27.641 3.26034 27.6435 3.26034L27.6855 3.26535C27.6855 3.26535 27.7152 3.26786 27.7276 3.27036L27.8067 3.28789C27.8067 3.28789 27.8315 3.2929 27.8414 3.2954C27.8686 3.30291 27.8933 3.31293 27.9329 3.32795C27.9403 3.33046 27.9477 3.33296 27.9552 3.33546C27.9923 3.35049 28.0294 3.37052 28.0764 3.39556L34.4511 7.14656C34.5599 7.20666 34.6613 7.28679 34.7479 7.38945C35.255 7.98039 35.1932 9.06964 34.5945 10.1013L29.4666 18.9429C29.1648 19.4638 29.0188 20.0522 29.0881 20.4754L30.3274 28.0024C30.5278 29.2294 29.6348 30.6867 28.7072 31.2301C28.4128 31.4029 28.1159 31.4855 27.8364 31.478L21.4642 31.3052C21.3232 31.3002 21.1426 31.3553 20.9596 31.463C20.7542 31.5832 20.5489 31.7635 20.3634 31.9838L14.0134 39.591C13.7686 39.884 13.5063 40.1118 13.2342 40.2721C12.9498 40.4373 12.6653 40.5225 12.4006 40.5225C12.1978 40.5225 12.0048 40.4724 11.8341 40.3722C11.8341 40.3722 11.8317 40.3722 11.8292 40.3722L5.42975 36.6062C5.37285 36.5712 5.31596 36.5311 5.26401 36.486C5.25906 36.481 5.20959 36.4309 5.20464 36.4259C5.17496 36.3984 5.14775 36.3683 5.12301 36.3358C5.10569 36.3157 5.09085 36.2932 5.06611 36.2506C5.04632 36.2206 5.02654 36.1905 5.00922 36.158C4.99685 36.1355 4.98696 36.1104 4.96469 36.0578C4.94985 36.0253 4.93501 35.9952 4.92264 35.9602C4.91522 35.9351 4.9078 35.9101 4.90038 35.8825L5.2368 35.7974L4.88801 35.845C4.87811 35.8124 4.87069 35.7799 4.86327 35.7448C4.85832 35.7198 4.85585 35.6922 4.8509 35.6647L5.19722 35.6246L4.84596 35.6171C4.84101 35.5846 4.83606 35.5495 4.83359 35.5145C4.83359 35.4869 4.83359 35.4569 4.83359 35.4268V35.3717C4.83359 35.3367 4.83111 35.3016 4.83359 35.2641C4.83359 35.234 4.83853 35.204 4.84101 35.1714L4.84596 35.1088C4.84596 35.0763 4.8509 35.0437 4.85585 34.9911L6.04817 26.0443C6.05064 26.0218 6.05312 25.9992 6.05312 25.9767L6.06301 25.8565C6.06301 25.8365 6.06301 25.8164 6.06301 25.7639C6.06301 25.7639 6.06301 25.7288 6.06301 25.7263V25.6887C6.06301 25.6712 6.05806 25.6537 6.05312 25.6061C6.05312 25.6036 6.0457 25.5435 6.0457 25.541C6.04322 25.526 6.03827 25.511 6.02838 25.4709L0.638212 22.3008C0.566475 22.2608 0.499685 22.2132 0.435369 22.1556C0.41558 22.1381 0.398264 22.1205 0.376001 22.0955C0.338895 22.0554 0.30179 22.0129 0.267158 21.9653C0.252316 21.9427 0.237474 21.9202 0.217685 21.8877C0.190474 21.8426 0.168211 21.7975 0.145948 21.7499C0.133579 21.7199 0.121211 21.6923 0.111316 21.6623C0.0940002 21.6147 0.079158 21.5646 0.0618422 21.4995C0.0544211 21.4745 0.0494738 21.452 0.0445264 21.4269C0.032158 21.3693 0.0247369 21.3117 0.0173158 21.2391C0.0173158 21.2316 0.0123684 21.189 0.00989475 21.1815C0.00494738 21.0989 0.00247369 21.0163 0.00494738 20.9286L0 20.9436ZM27.7251 4.01405C27.7251 4.01405 27.7078 4.00403 27.6979 3.99902C27.6905 3.99902 27.6855 3.99402 27.6806 3.99151L27.6756 3.9865C27.6756 3.9865 27.6509 3.97899 27.6385 3.97649C27.6385 3.97649 27.6286 3.97398 27.6262 3.97398C27.6212 3.97398 27.5792 3.96647 27.5717 3.96647C27.5668 3.96647 27.5223 3.96647 27.5148 3.96647C27.5099 3.96647 27.4901 3.96647 27.4777 3.96647H27.4406C27.4406 3.96647 27.4109 3.97398 27.406 3.97649L27.354 3.9865C27.354 3.9865 27.3293 3.99402 27.3219 3.99652C27.2823 4.00904 27.2403 4.02156 27.1982 4.03909L23.1315 5.72679L25.5384 9.96607C25.6992 10.249 25.9985 10.199 26.2186 10.1063L33.1746 7.21918L27.7226 4.01155L27.7251 4.01405ZM12.1607 39.7613C12.3289 39.8739 12.5985 39.8414 12.8879 39.6736C13.0908 39.5559 13.2911 39.3781 13.4841 39.1478L19.834 31.5406C20.069 31.2576 20.3387 31.0248 20.6132 30.8645C20.8952 30.6993 21.1847 30.6116 21.4518 30.6116C21.4617 30.6116 21.4741 30.6116 21.484 30.6116L27.8562 30.7844C28.012 30.7844 28.1803 30.7368 28.3608 30.6316C29.0733 30.2135 29.7906 29.0316 29.6422 28.1301L28.4029 20.6006C28.3064 20.0122 28.482 19.261 28.8679 18.5949L33.9959 9.75323C34.4807 8.91689 34.4758 8.15317 34.2235 7.8602C34.0924 7.70746 33.8821 7.68993 33.6001 7.80762L26.4858 10.7624C25.8377 11.0303 25.244 10.86 24.9373 10.3217L21.7363 4.68512C21.6893 4.60499 21.6349 4.5474 21.5706 4.51235C21.5582 4.50483 21.5434 4.49983 21.5211 4.49231C21.5087 4.48731 21.4964 4.4848 21.484 4.4823C21.4716 4.47979 21.4568 4.47729 21.4419 4.47479C21.432 4.47479 21.4221 4.47479 21.4098 4.47479C21.4098 4.47479 21.4098 4.47479 21.4073 4.47479C21.3999 4.47479 21.39 4.47479 21.3801 4.47479C21.3628 4.47479 21.3455 4.47479 21.2985 4.47979C21.2811 4.47979 21.2638 4.4848 21.2465 4.48981C21.2465 4.48981 21.2119 4.49732 21.2045 4.49732C21.1921 4.49983 21.1772 4.50483 21.1624 4.50984C21.1327 4.51986 21.1055 4.52987 21.0758 4.53989L21.0338 4.55742C20.9892 4.57745 20.9447 4.59748 20.9002 4.62503C20.8952 4.62753 20.8878 4.63254 20.8829 4.63504C20.8705 4.64255 20.8581 4.65007 20.8458 4.65758C20.8087 4.68011 20.7716 4.70515 20.7345 4.7327L20.6998 4.75774C20.6504 4.7953 20.6009 4.83536 20.5366 4.89296C20.4945 4.93052 20.4525 4.97308 20.4129 5.01315L20.351 5.08076C20.3139 5.12082 20.2768 5.16339 20.2422 5.20846C20.2422 5.20846 20.2249 5.231 20.215 5.24352C20.1977 5.26605 20.1779 5.29109 20.1606 5.31864C20.1556 5.32364 20.1531 5.33116 20.1482 5.33616C20.1284 5.36371 20.1086 5.39376 20.0864 5.42631C20.0789 5.43883 20.0715 5.44884 20.0641 5.46136C20.0567 5.47138 20.0517 5.4814 20.0443 5.49141C20.0295 5.51645 20.0121 5.54149 19.9973 5.56653C19.9899 5.57905 19.9849 5.58907 19.9775 5.60159C19.9602 5.63164 19.9429 5.66169 19.9256 5.69424C19.9256 5.69925 19.9206 5.70175 19.9206 5.70676C19.9033 5.73681 19.8885 5.76936 19.8736 5.80191C19.8662 5.81443 19.8612 5.82695 19.8538 5.84197C19.8415 5.86952 19.8266 5.89957 19.8142 5.92711C19.7994 5.96467 19.7821 5.99973 19.7697 6.03729C19.7697 6.04229 19.7648 6.0473 19.7648 6.04981C19.7524 6.08236 19.74 6.11741 19.7277 6.15247C19.7252 6.15998 19.7202 6.17 19.7178 6.17751L18.2212 10.6071L16.5589 15.5325C16.544 15.5776 16.5292 15.6201 16.5119 15.6627C16.5069 15.6752 16.502 15.6877 16.497 15.6978C16.4847 15.7303 16.4723 15.7629 16.4574 15.7929C16.455 15.8004 16.4525 15.8079 16.45 15.8079C16.4302 15.8555 16.408 15.9031 16.3882 15.9456L16.356 16.0108C16.3486 16.0233 16.3437 16.0358 16.3362 16.0483C16.3362 16.0483 16.3189 16.0834 16.3189 16.0859C16.309 16.1059 16.2991 16.1234 16.2868 16.1435C16.2818 16.1535 16.2744 16.166 16.2694 16.176C16.2596 16.191 16.2521 16.2086 16.2422 16.2236C16.2422 16.2236 16.2274 16.2486 16.22 16.2612L16.2101 16.2762L16.2002 16.2912L16.1581 16.3613C16.1284 16.4089 16.0963 16.4565 16.0443 16.5291C16.0147 16.5717 15.985 16.6117 15.9553 16.6543L15.9108 16.7119C15.8984 16.7294 15.8836 16.7469 15.8687 16.762L15.8539 16.7795C15.8539 16.7795 15.8267 16.812 15.8242 16.8145L15.8069 16.8321C15.7623 16.8821 15.7178 16.9297 15.6733 16.9773C15.6659 16.9848 15.6486 17.0023 15.6461 17.0073C15.6411 17.0124 15.6337 17.0174 15.6288 17.0224C15.5323 17.12 15.4284 17.2077 15.3245 17.2878L8.21759 22.6464C8.18296 22.6739 8.14833 22.7015 8.11617 22.729C8.09391 22.749 8.07165 22.7666 8.04938 22.7866L8.00733 22.8267C7.96528 22.8667 7.92817 22.9068 7.88859 22.9468C7.88859 22.9468 7.86386 22.9719 7.86386 22.9744L7.83912 23.0019C7.78965 23.057 7.74265 23.1146 7.69812 23.1747C7.69812 23.1747 7.68328 23.1947 7.67586 23.2048C7.63133 23.2674 7.58928 23.33 7.53733 23.4126C7.49528 23.4802 7.45817 23.5478 7.41117 23.6355C7.37654 23.7056 7.34191 23.7757 7.3048 23.8658C7.28996 23.8984 7.27759 23.9334 7.26522 23.966C7.26522 23.971 7.26028 23.9785 7.2578 23.9835C7.24543 24.0136 7.23554 24.0436 7.22564 24.0762C7.2207 24.0937 7.21575 24.1087 7.2108 24.1262C7.19596 24.1788 7.18112 24.2314 7.16875 24.2815L7.15638 24.3366C7.14649 24.3816 7.13907 24.4292 7.12422 24.5043L7.1168 24.5494C7.1168 24.5644 7.11185 24.582 7.11185 24.597C7.10938 24.627 7.10691 24.6596 7.10196 24.6997C7.10196 24.7222 7.09949 24.7422 7.09949 24.7648C7.09949 24.7823 7.09949 24.7998 7.09949 24.8148C7.09949 24.8274 7.09949 24.8424 7.09949 24.8549C7.09949 24.8774 7.09949 24.9 7.10443 24.925C7.10443 24.93 7.10938 24.9576 7.10938 24.9601C7.11433 24.9976 7.1168 25.0327 7.12422 25.0677L7.13659 25.1178C7.14401 25.1454 7.15143 25.1729 7.16133 25.1954L7.17864 25.2405C7.18854 25.2631 7.20091 25.2831 7.2108 25.3031L7.23307 25.3382C7.24543 25.3557 7.26028 25.3707 7.29491 25.4083C7.31222 25.4233 7.32707 25.4358 7.34438 25.4458C7.3518 25.4509 7.35675 25.4534 7.36417 25.4584L7.37407 25.4659L12.5317 28.2904C13.0141 28.5533 13.2417 29.1618 13.1402 29.9205L11.9479 38.8673C11.891 39.298 11.9702 39.6336 12.1631 39.7638L12.1607 39.7613ZM5.54106 35.1113C5.54106 35.1313 5.53859 35.1489 5.53611 35.1664L5.52622 35.2991C5.52622 35.3191 5.52622 35.3392 5.52622 35.3918C5.52622 35.3918 5.52622 35.4293 5.52622 35.4318V35.4694C5.52622 35.4869 5.53117 35.5019 5.53859 35.5495C5.53859 35.552 5.54601 35.6121 5.54601 35.6171L5.5658 35.6847C5.5658 35.6847 5.57817 35.7348 5.57817 35.7373C5.58311 35.7498 5.58806 35.7599 5.6029 35.7924C5.6029 35.7974 5.61775 35.8275 5.62022 35.8325L5.6499 35.8775L5.66722 35.9076L5.71917 35.9627C5.73648 35.9777 5.75627 35.9927 5.77606 36.0052L11.2305 39.2154C11.2256 39.0752 11.2305 38.9249 11.2528 38.7697L12.4451 29.8229C12.5045 29.3746 12.4105 29.0241 12.1953 28.9064L7.0327 26.0794C7.01785 26.0719 7.00054 26.0618 6.9857 26.0518L6.75564 25.9166C6.75564 25.9366 6.75317 25.9592 6.7507 25.9792L6.74575 26.0418C6.74328 26.0769 6.7408 26.1144 6.73585 26.152L5.54354 35.1138L5.54106 35.1113Z" fill="#035BE8"/>
</g>
</g>
<defs>
<clipPath id="clip0_443_2480">
<rect width="36" height="75" fill="white"/>
</clipPath>
</defs>
</svg>
